SplineFontDB: 3.2
FontName: werks-sans-light
FullName: werks sans light
FamilyName: werks sans light
Weight: Light
Copyright: Copyright (c) 2016 by Eduardo Manso. All rights reserved.
Version: 1.0
ItalicAngle: 0
UnderlinePosition: -110
UnderlineWidth: 43
Ascent: 800
Descent: 200
InvalidEm: 0
sfntRevision: 0x00010000
LayerCount: 2
Layer: 0 1 "Back" 1
Layer: 1 1 "Fore" 0
XUID: [1021 130 455389830 14418601]
StyleMap: 0x0000
FSType: 0
OS2Version: 3
OS2_WeightWidthSlopeOnly: 0
OS2_UseTypoMetrics: 0
CreationTime: 1472737458
ModificationTime: 1682392667
PfmFamily: 81
TTFWeight: 300
TTFWidth: 5
LineGap: 0
VLineGap: 0
Panose: 0 0 0 0 0 0 0 0 0 0
OS2TypoAscent: 1000
OS2TypoAOffset: 0
OS2TypoDescent: -300
OS2TypoDOffset: 0
OS2TypoLinegap: 0
OS2WinAscent: 1000
OS2WinAOffset: 0
OS2WinDescent: 300
OS2WinDOffset: 0
HheadAscent: 1000
HheadAOffset: 0
HheadDescent: -300
HheadDOffset: 0
OS2SubXSize: 650
OS2SubYSize: 600
OS2SubXOff: 0
OS2SubYOff: 75
OS2SupXSize: 650
OS2SupYSize: 600
OS2SupXOff: 0
OS2SupYOff: 350
OS2StrikeYSize: 43
OS2StrikeYPos: 315
OS2CapHeight: 700
OS2XHeight: 525
OS2Vendor: 'EMT '
OS2CodePages: 00000093.00000000
OS2UnicodeRanges: 00000007.00000000.00000000.00000000
Lookup: 1 0 0 "'numr' Numerators in Latin lookup 0" { "'numr' Numerators in Latin lookup 0 subtable"  } ['numr' ('DFLT' <'dflt' > 'latn' <'CAT ' 'dflt' > ) ]
Lookup: 1 0 0 "'dnom' Denominators in Latin lookup 1" { "'dnom' Denominators in Latin lookup 1 subtable"  } ['dnom' ('DFLT' <'dflt' > 'latn' <'CAT ' 'dflt' > ) ]
Lookup: 1 0 0 "'sinf' Scientific Inferiors in Latin lookup 2" { "'sinf' Scientific Inferiors in Latin lookup 2 subtable"  } ['sinf' ('DFLT' <'dflt' > 'latn' <'CAT ' 'dflt' > ) ]
Lookup: 1 0 0 "'sups' Superscript in Latin lookup 3" { "'sups' Superscript in Latin lookup 3 subtable" ("superior") } ['sups' ('DFLT' <'dflt' > 'latn' <'CAT ' 'dflt' > ) ]

StartChar: .notdef
Encoding: 65536 -1 0
Width: 869
GlyphClass: 1
Flags: W
LayerCount: 2
Fore
SplineSet
678 588 m 256,0,1
 727 539 727 539 754 474 c 128,-1,2
 781 409 781 409 781 341 c 0,3,4
 781 272 781 272 754.5 208 c 128,-1,5
 728 144 728 144 678 94 c 0,6,7
 627 44 627 44 563 18 c 128,-1,8
 499 -8 499 -8 429 -8 c 0,9,10
 360 -8 360 -8 296 18.5 c 128,-1,11
 232 45 232 45 183 94 c 256,12,13
 134 143 134 143 107 207 c 128,-1,14
 80 271 80 271 80 341 c 0,15,16
 80 410 80 410 107 474.5 c 128,-1,17
 134 539 134 539 183 588 c 256,18,19
 232 637 232 637 296 663.5 c 128,-1,20
 360 690 360 690 429 690 c 0,21,22
 499 690 499 690 564 663.5 c 128,-1,23
 629 637 629 637 678 588 c 256,0,1
205 116 m 256,24,25
 251 71 251 71 308.5 47 c 128,-1,26
 366 23 366 23 429 23 c 256,27,28
 492 23 492 23 550.5 47 c 128,-1,29
 609 71 609 71 655 116 c 0,30,31
 701 162 701 162 725.5 220.5 c 128,-1,32
 750 279 750 279 750 341 c 0,33,34
 750 404 750 404 725.5 462 c 128,-1,35
 701 520 701 520 655 566 c 0,36,37
 610 611 610 611 551 635.5 c 128,-1,38
 492 660 492 660 429 660 c 256,39,40
 366 660 366 660 308.5 636 c 128,-1,41
 251 612 251 612 205 566 c 256,42,43
 159 520 159 520 134.5 462.5 c 128,-1,44
 110 405 110 405 110 341 c 256,45,46
 110 277 110 277 134.5 219 c 128,-1,47
 159 161 159 161 205 116 c 256,24,25
452 341 m 1,48,-1
 582 211 l 1,49,-1
 560 190 l 1,50,-1
 431 320 l 1,51,-1
 301 191 l 1,52,-1
 280 212 l 1,53,-1
 409 341 l 1,54,-1
 280 471 l 1,55,-1
 301 493 l 1,56,-1
 431 362 l 1,57,-1
 561 493 l 1,58,-1
 583 471 l 1,59,-1
 452 341 l 1,48,-1
EndSplineSet
EndChar

StartChar: exclam
Encoding: 33 33 5
Width: 252
GlyphClass: 1
Flags: W
LayerCount: 2
Fore
SplineSet
94 585 m 2,0,-1
 94 700 l 1,1,-1
 158 700 l 1,2,-1
 158 585 l 2,3,4
 158 522 158 522 156.5 415.5 c 128,-1,5
 155 309 155 309 151 159 c 1,6,-1
 101 159 l 1,7,8
 98 309 98 309 96 415.5 c 128,-1,9
 94 522 94 522 94 585 c 2,0,-1
93 78 m 1,10,-1
 159 78 l 1,11,-1
 159 0 l 1,12,-1
 93 0 l 1,13,-1
 93 78 l 1,10,-1
EndSplineSet
EndChar

StartChar: quotedbl
Encoding: 34 34 6
Width: 338
GlyphClass: 1
Flags: W
LayerCount: 2
Fore
SplineSet
216 518 m 1,0,-1
 207 700 l 1,1,-1
 268 700 l 1,2,-1
 258 518 l 1,3,-1
 216 518 l 1,0,-1
80 518 m 1,4,-1
 70 700 l 1,5,-1
 132 700 l 1,6,-1
 122 518 l 1,7,-1
 80 518 l 1,4,-1
EndSplineSet
EndChar

StartChar: numbersign
Encoding: 35 35 7
Width: 620
GlyphClass: 1
Flags: W
LayerCount: 2
Fore
SplineSet
229 453 m 1,0,-1
 196 247 l 1,1,-1
 393 247 l 1,2,-1
 425 453 l 1,3,-1
 229 453 l 1,0,-1
437 197 m 1,4,-1
 406 0 l 1,5,-1
 354 0 l 1,6,-1
 385 197 l 1,7,-1
 188 197 l 1,8,-1
 157 0 l 1,9,-1
 105 0 l 1,10,-1
 136 197 l 1,11,-1
 46 197 l 1,12,-1
 46 247 l 1,13,-1
 144 247 l 1,14,-1
 176 453 l 1,15,-1
 86 453 l 1,16,-1
 86 504 l 1,17,-1
 184 504 l 1,18,-1
 215 700 l 1,19,-1
 267 700 l 1,20,-1
 236 504 l 1,21,-1
 433 504 l 1,22,-1
 464 700 l 1,23,-1
 516 700 l 1,24,-1
 485 504 l 1,25,-1
 574 504 l 1,26,-1
 574 453 l 1,27,-1
 477 453 l 1,28,-1
 445 247 l 1,29,-1
 534 247 l 1,30,-1
 534 197 l 1,31,-1
 437 197 l 1,4,-1
EndSplineSet
EndChar

StartChar: dollar
Encoding: 36 36 8
Width: 591
GlyphClass: 1
Flags: W
LayerCount: 2
Fore
SplineSet
535 200 m 0,0,1
 535 99 535 99 480 45.5 c 128,-1,2
 425 -8 425 -8 318 -11 c 1,3,-1
 318 -99 l 1,4,-1
 261 -99 l 1,5,-1
 261 -9 l 1,6,7
 158 -2 158 -2 107 40.5 c 128,-1,8
 56 83 56 83 56 164 c 2,9,-1
 56 174 l 1,10,-1
 118 174 l 1,11,-1
 118 165 l 2,12,13
 118 100 118 100 164.5 70 c 128,-1,14
 211 40 211 40 308 40 c 0,15,16
 388 40 388 40 430 79.5 c 128,-1,17
 472 119 472 119 472 194 c 0,18,19
 472 243 472 243 446.5 272.5 c 128,-1,20
 421 302 421 302 368 315 c 2,21,-1
 221 351 l 2,22,23
 139 371 139 371 101.5 411.5 c 128,-1,24
 64 452 64 452 64 522 c 0,25,26
 64 605 64 605 115 654.5 c 128,-1,27
 166 704 166 704 261 710 c 1,28,-1
 261 797 l 1,29,-1
 318 797 l 1,30,-1
 318 710 l 1,31,32
 420 705 420 705 472 657 c 128,-1,33
 524 609 524 609 524 522 c 2,34,-1
 524 511 l 1,35,-1
 462 511 l 1,36,-1
 462 521 l 2,37,38
 462 593 462 593 419.5 627 c 128,-1,39
 377 661 377 661 289 661 c 0,40,41
 208 661 208 661 166.5 627 c 128,-1,42
 125 593 125 593 125 527 c 0,43,44
 125 479 125 479 151 451.5 c 128,-1,45
 177 424 177 424 239 409 c 2,46,-1
 389 372 l 2,47,48
 460 355 460 355 497.5 311 c 128,-1,49
 535 267 535 267 535 200 c 0,0,1
EndSplineSet
EndChar

StartChar: ampersand
Encoding: 38 38 10
Width: 662
GlyphClass: 1
Flags: W
LayerCount: 2
Fore
SplineSet
393 572 m 0,0,1
 393 613 393 613 366 639 c 128,-1,2
 339 665 339 665 294 665 c 0,3,4
 248 665 248 665 220 635.5 c 128,-1,5
 192 606 192 606 192 562 c 0,6,7
 192 533 192 533 207.5 502 c 128,-1,8
 223 471 223 471 266 422 c 1,9,10
 309 447 309 447 324.5 458 c 128,-1,11
 340 469 340 469 351 480 c 0,12,13
 372 501 372 501 382.5 523.5 c 128,-1,14
 393 546 393 546 393 572 c 0,0,1
247 359 m 1,15,16
 171 312 171 312 142.5 272.5 c 128,-1,17
 114 233 114 233 114 185 c 0,18,19
 114 117 114 117 163 78.5 c 128,-1,20
 212 40 212 40 301 40 c 0,21,22
 360 40 360 40 404 55.5 c 128,-1,23
 448 71 448 71 477 102 c 1,24,-1
 247 359 l 1,15,16
631 16 m 1,25,-1
 631 0 l 1,26,-1
 569 0 l 1,27,-1
 513 63 l 1,28,29
 475 26 475 26 421.5 7.5 c 128,-1,30
 368 -11 368 -11 299 -11 c 0,31,32
 180 -11 180 -11 115.5 40 c 128,-1,33
 51 91 51 91 51 182 c 0,34,35
 51 241 51 241 84 289 c 128,-1,36
 117 337 117 337 214 397 c 1,37,38
 171 447 171 447 153.5 484 c 128,-1,39
 136 521 136 521 136 558 c 0,40,41
 136 623 136 623 179.5 667 c 128,-1,42
 223 711 223 711 295 711 c 0,43,44
 364 711 364 711 405.5 672 c 128,-1,45
 447 633 447 633 447 573 c 0,46,47
 447 521 447 521 418 479.5 c 128,-1,48
 389 438 389 438 301 383 c 1,49,-1
 513 148 l 1,50,51
 526 176 526 176 533 211.5 c 128,-1,52
 540 247 540 247 540 288 c 2,53,-1
 540 337 l 1,54,-1
 595 337 l 1,55,-1
 595 285 l 2,56,57
 595 232 595 232 583.5 186.5 c 128,-1,58
 572 141 572 141 550 106 c 1,59,-1
 631 16 l 1,25,-1
EndSplineSet
EndChar

StartChar: quotesingle
Encoding: 39 39 11
Width: 202
GlyphClass: 1
Flags: W
LayerCount: 2
Fore
SplineSet
80 518 m 1,0,-1
 70 700 l 1,1,-1
 132 700 l 1,2,-1
 122 518 l 1,3,-1
 80 518 l 1,0,-1
EndSplineSet
EndChar

StartChar: parenleft
Encoding: 40 40 12
Width: 346
GlyphClass: 1
Flags: W
LayerCount: 2
Fore
SplineSet
277 -131 m 2,0,1
 183 -131 183 -131 135 -85 c 128,-1,2
 87 -39 87 -39 87 49 c 2,3,-1
 87 583 l 2,4,5
 87 671 87 671 135 717 c 128,-1,6
 183 763 183 763 277 763 c 2,7,-1
 309 763 l 1,8,-1
 309 709 l 1,9,-1
 280 709 l 2,10,11
 215 709 215 709 182 676.5 c 128,-1,12
 149 644 149 644 149 580 c 2,13,-1
 149 52 l 2,14,15
 149 -12 149 -12 182 -44.5 c 128,-1,16
 215 -77 215 -77 280 -77 c 2,17,-1
 309 -77 l 1,18,-1
 309 -131 l 1,19,-1
 277 -131 l 2,0,1
EndSplineSet
Substitution2: "'sups' Superscript in Latin lookup 3 subtable" parenleft.superior
Substitution2: "'sinf' Scientific Inferiors in Latin lookup 2 subtable" parenleft.inferior
Substitution2: "'dnom' Denominators in Latin lookup 1 subtable" parenleft.denominator
Substitution2: "'numr' Numerators in Latin lookup 0 subtable" parenleft.numerator
EndChar

StartChar: parenright
Encoding: 41 41 13
Width: 346
GlyphClass: 1
Flags: W
LayerCount: 2
Fore
SplineSet
259 49 m 2,0,1
 259 -39 259 -39 211 -85 c 128,-1,2
 163 -131 163 -131 69 -131 c 2,3,-1
 37 -131 l 1,4,-1
 37 -77 l 1,5,-1
 66 -77 l 2,6,7
 131 -77 131 -77 164 -44.5 c 128,-1,8
 197 -12 197 -12 197 52 c 2,9,-1
 197 580 l 2,10,11
 197 644 197 644 164 676.5 c 128,-1,12
 131 709 131 709 66 709 c 2,13,-1
 37 709 l 1,14,-1
 37 763 l 1,15,-1
 69 763 l 2,16,17
 163 763 163 763 211 717 c 128,-1,18
 259 671 259 671 259 583 c 2,19,-1
 259 49 l 2,0,1
EndSplineSet
Substitution2: "'sups' Superscript in Latin lookup 3 subtable" parenright.superior
Substitution2: "'sinf' Scientific Inferiors in Latin lookup 2 subtable" parenright.inferior
Substitution2: "'dnom' Denominators in Latin lookup 1 subtable" parenright.denominator
Substitution2: "'numr' Numerators in Latin lookup 0 subtable" parenright.numerator
EndChar

StartChar: asterisk
Encoding: 42 42 14
Width: 483
GlyphClass: 1
Flags: W
LayerCount: 2
Fore
SplineSet
372 405 m 1,0,-1
 259 484 l 1,1,-1
 270 345 l 1,2,-1
 270 324 l 1,3,-1
 214 324 l 1,4,-1
 214 345 l 1,5,-1
 226 485 l 1,6,-1
 111 405 l 1,7,-1
 93 394 l 1,8,-1
 65 443 l 1,9,-1
 84 454 l 1,10,-1
 209 512 l 1,11,-1
 85 571 l 1,12,-1
 65 582 l 1,13,-1
 92 631 l 1,14,-1
 113 619 l 1,15,-1
 226 541 l 1,16,-1
 214 677 l 1,17,-1
 214 700 l 1,18,-1
 270 700 l 1,19,-1
 270 677 l 1,20,-1
 259 542 l 1,21,-1
 371 619 l 1,22,-1
 391 631 l 1,23,-1
 419 582 l 1,24,-1
 399 571 l 1,25,-1
 275 512 l 1,26,-1
 400 454 l 1,27,-1
 418 443 l 1,28,-1
 390 394 l 1,29,-1
 372 405 l 1,0,-1
EndSplineSet
EndChar

StartChar: plus
Encoding: 43 43 15
Width: 520
GlyphClass: 1
Flags: W
LayerCount: 2
Fore
SplineSet
286 305 m 1,0,-1
 286 126 l 1,1,-1
 232 126 l 1,2,-1
 232 305 l 1,3,-1
 54 305 l 1,4,-1
 54 357 l 1,5,-1
 232 357 l 1,6,-1
 232 537 l 1,7,-1
 286 537 l 1,8,-1
 286 357 l 1,9,-1
 466 357 l 1,10,-1
 466 305 l 1,11,-1
 286 305 l 1,0,-1
EndSplineSet
EndChar

StartChar: comma
Encoding: 44 44 16
Width: 217
GlyphClass: 1
Flags: W
LayerCount: 2
Fore
SplineSet
48 -108 m 1,0,-1
 80 78 l 1,1,-1
 145 78 l 1,2,-1
 145 62 l 1,3,-1
 93 -108 l 1,4,-1
 48 -108 l 1,0,-1
EndSplineSet
Substitution2: "'dnom' Denominators in Latin lookup 1 subtable" comma.denominator
Substitution2: "'numr' Numerators in Latin lookup 0 subtable" period.numerator
EndChar

StartChar: hyphen
Encoding: 45 45 17
Width: 419
GlyphClass: 1
Flags: W
LayerCount: 2
Fore
SplineSet
342 283 m 1,0,-1
 77 283 l 1,1,-1
 77 340 l 1,2,-1
 342 340 l 1,3,-1
 342 283 l 1,0,-1
EndSplineSet
Substitution2: "'dnom' Denominators in Latin lookup 1 subtable" hyphen.denominator
Substitution2: "'numr' Numerators in Latin lookup 0 subtable" hyphen.numerator
EndChar

StartChar: period
Encoding: 46 46 18
Width: 212
GlyphClass: 1
Flags: W
LayerCount: 2
Fore
SplineSet
73 78 m 1,0,-1
 139 78 l 1,1,-1
 139 0 l 1,2,-1
 73 0 l 1,3,-1
 73 78 l 1,0,-1
EndSplineSet
Substitution2: "'dnom' Denominators in Latin lookup 1 subtable" period.denominator
Substitution2: "'numr' Numerators in Latin lookup 0 subtable" comma.numerator
EndChar

StartChar: slash
Encoding: 47 47 19
Width: 514
GlyphClass: 1
Flags: W
LayerCount: 2
Fore
SplineSet
23 -126 m 1,0,-1
 432 758 l 1,1,-1
 492 758 l 1,2,-1
 82 -126 l 1,3,-1
 23 -126 l 1,0,-1
EndSplineSet
EndChar

StartChar: zero
Encoding: 48 48 20
Width: 615
GlyphClass: 1
Flags: W
LayerCount: 2
Fore
SplineSet
539 219 m 2,0,1
 539 113 539 113 478.5 51 c 128,-1,2
 418 -11 418 -11 307 -11 c 0,3,4
 197 -11 197 -11 136.5 51.5 c 128,-1,5
 76 114 76 114 76 219 c 2,6,-1
 76 481 l 2,7,8
 76 586 76 586 136.5 648.5 c 128,-1,9
 197 711 197 711 307 711 c 0,10,11
 418 711 418 711 478.5 649 c 128,-1,12
 539 587 539 587 539 481 c 2,13,-1
 539 219 l 2,0,1
307 656 m 0,14,15
 227 656 227 656 182 607.5 c 128,-1,16
 137 559 137 559 137 478 c 2,17,-1
 137 222 l 2,18,19
 137 141 137 141 182 92.5 c 128,-1,20
 227 44 227 44 307 44 c 0,21,22
 388 44 388 44 433 92.5 c 128,-1,23
 478 141 478 141 478 222 c 2,24,-1
 478 478 l 2,25,26
 478 559 478 559 433 607.5 c 128,-1,27
 388 656 388 656 307 656 c 0,14,15
EndSplineSet
Substitution2: "'tnum' Tabular Numbers in Latin lookup 7 subtable" zero.tab
Substitution2: "'sups' Superscript in Latin lookup 3 subtable" zero.superior
Substitution2: "'sinf' Scientific Inferiors in Latin lookup 2 subtable" zero.inferior
Substitution2: "'dnom' Denominators in Latin lookup 1 subtable" zero.denominator
Substitution2: "'numr' Numerators in Latin lookup 0 subtable" zero.numerator
EndChar

StartChar: one
Encoding: 49 49 21
Width: 565
GlyphClass: 1
Flags: W
LayerCount: 2
Fore
SplineSet
269 645 m 1,0,-1
 58 613 l 1,1,-1
 58 670 l 1,2,-1
 280 707 l 1,3,-1
 331 707 l 1,4,-1
 331 54 l 1,5,-1
 543 54 l 1,6,-1
 543 0 l 1,7,-1
 58 0 l 1,8,-1
 58 54 l 1,9,-1
 269 54 l 1,10,-1
 269 645 l 1,0,-1
EndSplineSet
Substitution2: "'tnum' Tabular Numbers in Latin lookup 7 subtable" one.tab
Substitution2: "'sups' Superscript in Latin lookup 3 subtable" onesuperior
Substitution2: "'sinf' Scientific Inferiors in Latin lookup 2 subtable" one.inferior
Substitution2: "'dnom' Denominators in Latin lookup 1 subtable" one.denominator
Substitution2: "'numr' Numerators in Latin lookup 0 subtable" one.numerator
EndChar

StartChar: two
Encoding: 50 50 22
Width: 595
GlyphClass: 1
Flags: W
LayerCount: 2
Fore
SplineSet
372 381 m 2,0,1
 423 406 423 406 444.5 439.5 c 128,-1,2
 466 473 466 473 466 519 c 0,3,4
 466 588 466 588 424 622 c 128,-1,5
 382 656 382 656 297 656 c 256,6,7
 212 656 212 656 169 618.5 c 128,-1,8
 126 581 126 581 126 507 c 2,9,-1
 126 490 l 1,10,-1
 66 490 l 1,11,-1
 66 509 l 2,12,13
 66 605 66 605 125.5 658 c 128,-1,14
 185 711 185 711 298 711 c 0,15,16
 412 711 412 711 470 662.5 c 128,-1,17
 528 614 528 614 528 519 c 0,18,19
 528 454 528 454 498 407.5 c 128,-1,20
 468 361 468 361 397 328 c 2,21,-1
 222 247 l 2,22,23
 172 225 172 225 153.5 195.5 c 128,-1,24
 135 166 135 166 135 119 c 2,25,-1
 135 54 l 1,26,-1
 535 54 l 1,27,-1
 535 0 l 1,28,-1
 73 0 l 1,29,-1
 73 124 l 2,30,31
 73 184 73 184 98 224.5 c 128,-1,32
 123 265 123 265 183 294 c 2,33,-1
 372 381 l 2,0,1
EndSplineSet
Substitution2: "'tnum' Tabular Numbers in Latin lookup 7 subtable" two.tab
Substitution2: "'sups' Superscript in Latin lookup 3 subtable" twosuperior
Substitution2: "'sinf' Scientific Inferiors in Latin lookup 2 subtable" two.inferior
Substitution2: "'dnom' Denominators in Latin lookup 1 subtable" two.denominator
Substitution2: "'numr' Numerators in Latin lookup 0 subtable" two.numerator
EndChar

StartChar: three
Encoding: 51 51 23
Width: 592
GlyphClass: 1
Flags: W
LayerCount: 2
Fore
SplineSet
413 371 m 1,0,1
 466 352 466 352 496.5 308 c 128,-1,2
 527 264 527 264 527 204 c 0,3,4
 527 97 527 97 468.5 43 c 128,-1,5
 410 -11 410 -11 294 -11 c 0,6,7
 181 -11 181 -11 122 37.5 c 128,-1,8
 63 86 63 86 63 176 c 2,9,-1
 63 195 l 1,10,-1
 123 195 l 1,11,-1
 123 179 l 2,12,13
 123 111 123 111 166 76.5 c 128,-1,14
 209 42 209 42 293 42 c 0,15,16
 379 42 379 42 421.5 82 c 128,-1,17
 464 122 464 122 464 206 c 0,18,19
 464 271 464 271 423.5 308 c 128,-1,20
 383 345 383 345 316 345 c 2,21,-1
 203 345 l 1,22,-1
 203 394 l 1,23,-1
 319 394 l 2,24,25
 377 394 377 394 413.5 429 c 128,-1,26
 450 464 450 464 450 524 c 0,27,28
 450 590 450 590 410 624 c 128,-1,29
 370 658 370 658 290 658 c 0,30,31
 211 658 211 658 171 624 c 128,-1,32
 131 590 131 590 131 522 c 2,33,-1
 131 507 l 1,34,-1
 70 507 l 1,35,-1
 70 525 l 2,36,37
 70 614 70 614 127 662.5 c 128,-1,38
 184 711 184 711 291 711 c 0,39,40
 399 711 399 711 455 664 c 128,-1,41
 511 617 511 617 511 528 c 0,42,43
 511 473 511 473 485.5 433 c 128,-1,44
 460 393 460 393 413 371 c 1,0,1
EndSplineSet
Substitution2: "'tnum' Tabular Numbers in Latin lookup 7 subtable" three.tab
Substitution2: "'sups' Superscript in Latin lookup 3 subtable" threesuperior
Substitution2: "'sinf' Scientific Inferiors in Latin lookup 2 subtable" three.inferior
Substitution2: "'dnom' Denominators in Latin lookup 1 subtable" three.denominator
Substitution2: "'numr' Numerators in Latin lookup 0 subtable" three.numerator
EndChar

StartChar: four
Encoding: 52 52 24
Width: 608
GlyphClass: 1
Flags: W
LayerCount: 2
Fore
SplineSet
40 270 m 1,0,-1
 204 700 l 1,1,-1
 266 700 l 1,2,-1
 106 275 l 1,3,-1
 447 275 l 1,4,-1
 447 700 l 1,5,-1
 508 700 l 1,6,-1
 508 0 l 1,7,-1
 447 0 l 1,8,-1
 447 217 l 1,9,-1
 40 217 l 1,10,-1
 40 270 l 1,0,-1
EndSplineSet
Substitution2: "'tnum' Tabular Numbers in Latin lookup 7 subtable" four.tab
Substitution2: "'sups' Superscript in Latin lookup 3 subtable" four.superior
Substitution2: "'sinf' Scientific Inferiors in Latin lookup 2 subtable" four.inferior
Substitution2: "'dnom' Denominators in Latin lookup 1 subtable" four.denominator
Substitution2: "'numr' Numerators in Latin lookup 0 subtable" four.numerator
EndChar

StartChar: five
Encoding: 53 53 25
Width: 579
GlyphClass: 1
Flags: W
LayerCount: 2
Fore
SplineSet
465 214 m 0,0,1
 465 289 465 289 422.5 326 c 128,-1,2
 380 363 380 363 290 363 c 2,3,-1
 86 363 l 1,4,-1
 86 700 l 1,5,-1
 482 700 l 1,6,-1
 482 646 l 1,7,-1
 149 646 l 1,8,-1
 149 418 l 1,9,-1
 296 418 l 2,10,11
 410 418 410 418 468.5 366.5 c 128,-1,12
 527 315 527 315 527 213 c 0,13,14
 527 103 527 103 468.5 46 c 128,-1,15
 410 -11 410 -11 295 -11 c 0,16,17
 181 -11 181 -11 122 37 c 128,-1,18
 63 85 63 85 63 176 c 2,19,-1
 63 193 l 1,20,-1
 124 193 l 1,21,-1
 124 179 l 2,22,23
 124 112 124 112 166.5 78 c 128,-1,24
 209 44 209 44 294 44 c 0,25,26
 381 44 381 44 423 85.5 c 128,-1,27
 465 127 465 127 465 214 c 0,0,1
EndSplineSet
Substitution2: "'tnum' Tabular Numbers in Latin lookup 7 subtable" five.tab
Substitution2: "'sups' Superscript in Latin lookup 3 subtable" five.superior
Substitution2: "'sinf' Scientific Inferiors in Latin lookup 2 subtable" five.inferior
Substitution2: "'dnom' Denominators in Latin lookup 1 subtable" five.denominator
Substitution2: "'numr' Numerators in Latin lookup 0 subtable" five.numerator
EndChar

StartChar: six
Encoding: 54 54 26
Width: 603
GlyphClass: 1
Flags: W
LayerCount: 2
Fore
SplineSet
319 420 m 0,0,1
 428 420 428 420 484.5 365 c 128,-1,2
 541 310 541 310 541 207 c 0,3,4
 541 101 541 101 482 45 c 128,-1,5
 423 -11 423 -11 309 -11 c 256,6,7
 195 -11 195 -11 136.5 45 c 128,-1,8
 78 101 78 101 78 208 c 2,9,-1
 78 475 l 2,10,11
 78 583 78 583 138.5 647 c 128,-1,12
 199 711 199 711 308 711 c 0,13,14
 413 711 413 711 471.5 662 c 128,-1,15
 530 613 530 613 530 532 c 2,16,-1
 530 509 l 1,17,-1
 469 509 l 1,18,-1
 469 531 l 2,19,20
 469 588 469 588 426 623.5 c 128,-1,21
 383 659 383 659 309 659 c 0,22,23
 229 659 229 659 184 610.5 c 128,-1,24
 139 562 139 562 139 482 c 2,25,-1
 139 329 l 1,26,27
 163 374 163 374 208.5 397 c 128,-1,28
 254 420 254 420 319 420 c 0,0,1
309 368 m 0,29,30
 225 368 225 368 182 326.5 c 128,-1,31
 139 285 139 285 139 204 c 256,32,33
 139 123 139 123 182 81.5 c 128,-1,34
 225 40 225 40 309 40 c 0,35,36
 394 40 394 40 436.5 81.5 c 128,-1,37
 479 123 479 123 479 204 c 256,38,39
 479 285 479 285 436.5 326.5 c 128,-1,40
 394 368 394 368 309 368 c 0,29,30
EndSplineSet
Substitution2: "'tnum' Tabular Numbers in Latin lookup 7 subtable" six.tab
Substitution2: "'sups' Superscript in Latin lookup 3 subtable" six.superior
Substitution2: "'sinf' Scientific Inferiors in Latin lookup 2 subtable" six.inferior
Substitution2: "'dnom' Denominators in Latin lookup 1 subtable" six.denominator
Substitution2: "'numr' Numerators in Latin lookup 0 subtable" six.numerator
EndChar

StartChar: seven
Encoding: 55 55 27
Width: 538
GlyphClass: 1
Flags: W
LayerCount: 2
Fore
SplineSet
441 646 m 1,0,-1
 30 646 l 1,1,-1
 30 700 l 1,2,-1
 510 700 l 1,3,-1
 510 651 l 1,4,-1
 190 0 l 1,5,-1
 123 0 l 1,6,-1
 441 646 l 1,0,-1
EndSplineSet
Substitution2: "'tnum' Tabular Numbers in Latin lookup 7 subtable" seven.tab
Substitution2: "'sups' Superscript in Latin lookup 3 subtable" seven.superior
Substitution2: "'sinf' Scientific Inferiors in Latin lookup 2 subtable" seven.inferior
Substitution2: "'dnom' Denominators in Latin lookup 1 subtable" seven.denominator
Substitution2: "'numr' Numerators in Latin lookup 0 subtable" seven.numerator
EndChar

StartChar: eight
Encoding: 56 56 28
Width: 599
GlyphClass: 1
Flags: W
LayerCount: 2
Fore
SplineSet
416 375 m 1,0,1
 471 354 471 354 502 308.5 c 128,-1,2
 533 263 533 263 533 201 c 0,3,4
 533 99 533 99 473 44 c 128,-1,5
 413 -11 413 -11 299 -11 c 256,6,7
 185 -11 185 -11 125.5 44 c 128,-1,8
 66 99 66 99 66 201 c 0,9,10
 66 263 66 263 97 308.5 c 128,-1,11
 128 354 128 354 184 375 c 1,12,13
 134 393 134 393 106.5 431.5 c 128,-1,14
 79 470 79 470 79 523 c 0,15,16
 79 613 79 613 135.5 662 c 128,-1,17
 192 711 192 711 299 711 c 0,18,19
 407 711 407 711 463.5 662 c 128,-1,20
 520 613 520 613 520 523 c 0,21,22
 520 471 520 471 492.5 432.5 c 128,-1,23
 465 394 465 394 416 375 c 1,0,1
299 662 m 0,24,25
 220 662 220 662 179.5 626 c 128,-1,26
 139 590 139 590 139 521 c 0,27,28
 139 465 139 465 179.5 431 c 128,-1,29
 220 397 220 397 279 397 c 2,30,-1
 320 397 l 2,31,32
 380 397 380 397 420.5 431 c 128,-1,33
 461 465 461 465 461 521 c 0,34,35
 461 590 461 590 420 626 c 128,-1,36
 379 662 379 662 299 662 c 0,24,25
299 39 m 256,37,38
 383 39 383 39 427.5 81 c 128,-1,39
 472 123 472 123 472 202 c 0,40,41
 472 269 472 269 428.5 309 c 128,-1,42
 385 349 385 349 320 349 c 2,43,-1
 279 349 l 2,44,45
 214 349 214 349 171 309 c 128,-1,46
 128 269 128 269 128 202 c 0,47,48
 128 123 128 123 171.5 81 c 128,-1,49
 215 39 215 39 299 39 c 256,37,38
EndSplineSet
Substitution2: "'tnum' Tabular Numbers in Latin lookup 7 subtable" eight.tab
Substitution2: "'sups' Superscript in Latin lookup 3 subtable" eight.superior
Substitution2: "'sinf' Scientific Inferiors in Latin lookup 2 subtable" eight.inferior
Substitution2: "'dnom' Denominators in Latin lookup 1 subtable" eight.denominator
Substitution2: "'numr' Numerators in Latin lookup 0 subtable" eight.numerator
EndChar

StartChar: nine
Encoding: 57 57 29
Width: 604
GlyphClass: 1
Flags: W
LayerCount: 2
Fore
SplineSet
294 333 m 0,0,1
 379 333 379 333 422 374.5 c 128,-1,2
 465 416 465 416 465 496 c 0,3,4
 465 577 465 577 422 618.5 c 128,-1,5
 379 660 379 660 294 660 c 0,6,7
 210 660 210 660 167 618.5 c 128,-1,8
 124 577 124 577 124 496 c 0,9,10
 124 416 124 416 167 374.5 c 128,-1,11
 210 333 210 333 294 333 c 0,0,1
285 282 m 0,12,13
 176 282 176 282 119.5 336 c 128,-1,14
 63 390 63 390 63 492 c 0,15,16
 63 599 63 599 121.5 654.5 c 128,-1,17
 180 710 180 710 294 710 c 256,18,19
 408 710 408 710 467 654 c 128,-1,20
 526 598 526 598 526 492 c 2,21,-1
 526 225 l 2,22,23
 526 118 526 118 466.5 54 c 128,-1,24
 407 -10 407 -10 300 -10 c 256,25,26
 193 -10 193 -10 133.5 38.5 c 128,-1,27
 74 87 74 87 74 168 c 2,28,-1
 74 191 l 1,29,-1
 134 191 l 1,30,-1
 134 170 l 2,31,32
 134 113 134 113 178 77.5 c 128,-1,33
 222 42 222 42 299 42 c 0,34,35
 377 42 377 42 421 90 c 128,-1,36
 465 138 465 138 465 219 c 2,37,-1
 465 371 l 1,38,39
 438 325 438 325 394.5 303.5 c 128,-1,40
 351 282 351 282 285 282 c 0,12,13
EndSplineSet
Substitution2: "'tnum' Tabular Numbers in Latin lookup 7 subtable" nine.tab
Substitution2: "'sups' Superscript in Latin lookup 3 subtable" nine.superior
Substitution2: "'sinf' Scientific Inferiors in Latin lookup 2 subtable" nine.inferior
Substitution2: "'dnom' Denominators in Latin lookup 1 subtable" nine.denominator
Substitution2: "'numr' Numerators in Latin lookup 0 subtable" nine.numerator
EndChar

StartChar: less
Encoding: 60 60 32
Width: 552
GlyphClass: 1
Flags: W
LayerCount: 2
Fore
SplineSet
38 260 m 1,0,-1
 38 308 l 1,1,-1
 493 555 l 1,2,-1
 493 493 l 1,3,-1
 101 285 l 1,4,-1
 101 284 l 1,5,-1
 493 74 l 1,6,-1
 493 12 l 1,7,-1
 38 260 l 1,0,-1
EndSplineSet
EndChar

StartChar: equal
Encoding: 61 61 33
Width: 572
GlyphClass: 1
Flags: W
LayerCount: 2
Fore
SplineSet
492 399 m 1,0,-1
 80 399 l 1,1,-1
 80 451 l 1,2,-1
 492 451 l 1,3,-1
 492 399 l 1,0,-1
492 211 m 1,4,-1
 80 211 l 1,5,-1
 80 264 l 1,6,-1
 492 264 l 1,7,-1
 492 211 l 1,4,-1
EndSplineSet
EndChar

StartChar: greater
Encoding: 62 62 34
Width: 552
GlyphClass: 1
Flags: W
LayerCount: 2
Fore
SplineSet
514 308 m 1,0,-1
 514 260 l 1,1,-1
 59 12 l 1,2,-1
 59 74 l 1,3,-1
 451 284 l 1,4,-1
 451 285 l 1,5,-1
 59 493 l 1,6,-1
 59 555 l 1,7,-1
 514 308 l 1,0,-1
EndSplineSet
EndChar

StartChar: question
Encoding: 63 63 35
Width: 560
GlyphClass: 1
Flags: W
LayerCount: 2
Fore
SplineSet
400 340 m 0,0,1
 339 305 339 305 323.5 283.5 c 128,-1,2
 308 262 308 262 308 231 c 2,3,-1
 308 159 l 1,4,-1
 247 159 l 1,5,-1
 247 233 l 2,6,7
 247 276 247 276 268 305.5 c 128,-1,8
 289 335 289 335 354 371 c 0,9,10
 416 404 416 404 436 434.5 c 128,-1,11
 456 465 456 465 456 515 c 0,12,13
 456 586 456 586 412.5 622 c 128,-1,14
 369 658 369 658 282 658 c 0,15,16
 190 658 190 658 145.5 623.5 c 128,-1,17
 101 589 101 589 101 516 c 2,18,-1
 101 486 l 1,19,-1
 40 486 l 1,20,-1
 40 519 l 2,21,22
 40 614 40 614 101 662.5 c 128,-1,23
 162 711 162 711 282 711 c 0,24,25
 397 711 397 711 457 662 c 128,-1,26
 517 613 517 613 517 520 c 0,27,28
 517 458 517 458 492 418 c 128,-1,29
 467 378 467 378 400 340 c 0,0,1
244 78 m 1,30,-1
 311 78 l 1,31,-1
 311 0 l 1,32,-1
 244 0 l 1,33,-1
 244 78 l 1,30,-1
EndSplineSet
EndChar

StartChar: at
Encoding: 64 64 36
Width: 871
GlyphClass: 1
Flags: W
LayerCount: 2
Fore
SplineSet
551 360 m 1,0,-1
 561 422 l 1,1,-1
 610 422 l 1,2,-1
 575 149 l 2,3,4
 568 99 568 99 585 71.5 c 128,-1,5
 602 44 602 44 640 44 c 0,6,7
 694 44 694 44 722.5 96.5 c 128,-1,8
 751 149 751 149 751 243 c 0,9,10
 751 398 751 398 668 485 c 128,-1,11
 585 572 585 572 432 572 c 0,12,13
 280 572 280 572 198 483 c 128,-1,14
 116 394 116 394 116 235 c 0,15,16
 116 77 116 77 196.5 -10.5 c 128,-1,17
 277 -98 277 -98 426 -98 c 0,18,19
 467 -98 467 -98 503 -91.5 c 128,-1,20
 539 -85 539 -85 572 -71 c 1,21,-1
 585 -114 l 1,22,23
 550 -129 550 -129 510.5 -136.5 c 128,-1,24
 471 -144 471 -144 426 -144 c 0,25,26
 251 -144 251 -144 156 -43.5 c 128,-1,27
 61 57 61 57 61 235 c 0,28,29
 61 415 61 415 157.5 517 c 128,-1,30
 254 619 254 619 432 619 c 0,31,32
 611 619 611 619 708.5 519 c 128,-1,33
 806 419 806 419 806 243 c 0,34,35
 806 128 806 128 762.5 64 c 128,-1,36
 719 0 719 0 636 0 c 0,37,38
 583 0 583 0 552.5 26.5 c 128,-1,39
 522 53 522 53 520 102 c 1,40,41
 499 70 499 70 465 53.5 c 128,-1,42
 431 37 431 37 385 37 c 0,43,44
 322 37 322 37 285 71 c 128,-1,45
 248 105 248 105 248 161 c 0,46,47
 248 166 248 166 249 175 c 128,-1,48
 250 184 250 184 251 191 c 2,49,-1
 262 277 l 2,50,51
 272 352 272 352 312 390.5 c 128,-1,52
 352 429 352 429 420 429 c 0,53,54
 469 429 469 429 502.5 411.5 c 128,-1,55
 536 394 536 394 551 360 c 1,0,-1
303 172 m 0,56,57
 303 127 303 127 327 106 c 128,-1,58
 351 85 351 85 401 85 c 0,59,60
 458 85 458 85 488 111.5 c 128,-1,61
 518 138 518 138 528 204 c 2,62,-1
 538 270 l 2,63,64
 545 324 545 324 517.5 353.5 c 128,-1,65
 490 383 490 383 430 383 c 0,66,67
 378 383 378 383 351 357 c 128,-1,68
 324 331 324 331 315 266 c 2,69,-1
 305 201 l 2,70,71
 304 192 304 192 303.5 184 c 128,-1,72
 303 176 303 176 303 172 c 0,56,57
EndSplineSet
EndChar

StartChar: A
Encoding: 65 65 37
Width: 615
GlyphClass: 1
Flags: W
LayerCount: 2
Fore
SplineSet
306 626 m 1,0,-1
 178 261 l 1,1,-1
 434 261 l 1,2,-1
 306 626 l 1,0,-1
339 700 m 1,3,-1
 591 0 l 1,4,-1
 526 0 l 1,5,-1
 452 211 l 1,6,-1
 161 211 l 1,7,-1
 86 0 l 1,8,-1
 24 0 l 1,9,-1
 277 700 l 1,10,-1
 339 700 l 1,3,-1
EndSplineSet
EndChar

StartChar: B
Encoding: 66 66 38
Width: 659
GlyphClass: 1
Flags: W
LayerCount: 2
Fore
SplineSet
599 195 m 0,0,1
 599 99 599 99 535 49.5 c 128,-1,2
 471 0 471 0 346 0 c 2,3,-1
 94 0 l 1,4,-1
 94 700 l 1,5,-1
 349 700 l 2,6,7
 463 700 463 700 520 656.5 c 128,-1,8
 577 613 577 613 577 526 c 0,9,10
 577 465 577 465 547 426 c 128,-1,11
 517 387 517 387 456 370 c 1,12,13
 527 353 527 353 563 309 c 128,-1,14
 599 265 599 265 599 195 c 0,0,1
349 394 m 2,15,16
 433 394 433 394 474 425.5 c 128,-1,17
 515 457 515 457 515 522 c 256,18,19
 515 587 515 587 473.5 619 c 128,-1,20
 432 651 432 651 349 651 c 2,21,-1
 157 651 l 1,22,-1
 157 394 l 1,23,-1
 349 394 l 2,15,16
346 49 m 2,24,25
 441 49 441 49 488.5 86 c 128,-1,26
 536 123 536 123 536 197 c 256,27,28
 536 271 536 271 488.5 308.5 c 128,-1,29
 441 346 441 346 346 346 c 2,30,-1
 157 346 l 1,31,-1
 157 49 l 1,32,-1
 346 49 l 2,24,25
EndSplineSet
EndChar

StartChar: C
Encoding: 67 67 39
Width: 626
GlyphClass: 1
Flags: W
LayerCount: 2
Fore
SplineSet
328 44 m 0,0,1
 416 44 416 44 464.5 85 c 128,-1,2
 513 126 513 126 513 194 c 2,3,-1
 513 209 l 1,4,-1
 574 209 l 1,5,-1
 574 191 l 2,6,7
 574 99 574 99 509.5 44 c 128,-1,8
 445 -11 445 -11 328 -11 c 0,9,10
 208 -11 208 -11 141.5 55 c 128,-1,11
 75 121 75 121 75 232 c 2,12,-1
 75 469 l 2,13,14
 75 580 75 580 141.5 645.5 c 128,-1,15
 208 711 208 711 328 711 c 0,16,17
 445 711 445 711 509.5 658.5 c 128,-1,18
 574 606 574 606 574 517 c 2,19,-1
 574 500 l 1,20,-1
 513 500 l 1,21,-1
 513 514 l 2,22,23
 513 578 513 578 464 617 c 128,-1,24
 415 656 415 656 328 656 c 0,25,26
 237 656 237 656 186.5 605 c 128,-1,27
 136 554 136 554 136 469 c 2,28,-1
 136 232 l 2,29,30
 136 146 136 146 186.5 95 c 128,-1,31
 237 44 237 44 328 44 c 0,0,1
EndSplineSet
EndChar

StartChar: D
Encoding: 68 68 40
Width: 682
GlyphClass: 1
Flags: W
LayerCount: 2
Fore
SplineSet
609 242 m 2,0,1
 609 131 609 131 542.5 65.5 c 128,-1,2
 476 0 476 0 355 0 c 2,3,-1
 94 0 l 1,4,-1
 94 700 l 1,5,-1
 355 700 l 2,6,7
 476 700 476 700 542.5 634.5 c 128,-1,8
 609 569 609 569 609 458 c 2,9,-1
 609 242 l 2,0,1
355 645 m 2,10,-1
 157 645 l 1,11,-1
 157 55 l 1,12,-1
 355 55 l 2,13,14
 446 55 446 55 496 106 c 128,-1,15
 546 157 546 157 546 245 c 2,16,-1
 546 455 l 2,17,18
 546 543 546 543 496 594 c 128,-1,19
 446 645 446 645 355 645 c 2,10,-1
EndSplineSet
EndChar

StartChar: E
Encoding: 69 69 41
Width: 598
GlyphClass: 1
Flags: W
LayerCount: 2
Fore
SplineSet
544 53 m 1,0,-1
 544 0 l 1,1,-1
 94 0 l 1,2,-1
 94 700 l 1,3,-1
 526 700 l 1,4,-1
 526 647 l 1,5,-1
 157 647 l 1,6,-1
 157 392 l 1,7,-1
 511 392 l 1,8,-1
 511 341 l 1,9,-1
 157 341 l 1,10,-1
 157 53 l 1,11,-1
 544 53 l 1,0,-1
EndSplineSet
EndChar

StartChar: F
Encoding: 70 70 42
Width: 577
GlyphClass: 1
Flags: W
LayerCount: 2
Fore
SplineSet
157 374 m 1,0,-1
 519 374 l 1,1,-1
 519 320 l 1,2,-1
 157 320 l 1,3,-1
 157 0 l 1,4,-1
 94 0 l 1,5,-1
 94 700 l 1,6,-1
 535 700 l 1,7,-1
 535 646 l 1,8,-1
 157 646 l 1,9,-1
 157 374 l 1,0,-1
EndSplineSet
EndChar

StartChar: G
Encoding: 71 71 43
Width: 647
GlyphClass: 1
Flags: W
LayerCount: 2
Fore
SplineSet
318 294 m 1,0,-1
 318 341 l 1,1,-1
 580 341 l 1,2,-1
 580 230 l 2,3,4
 580 114 580 114 516 51.5 c 128,-1,5
 452 -11 452 -11 329 -11 c 0,6,7
 207 -11 207 -11 141 54 c 128,-1,8
 75 119 75 119 75 232 c 2,9,-1
 75 469 l 2,10,11
 75 580 75 580 141 645.5 c 128,-1,12
 207 711 207 711 327 711 c 256,13,14
 447 711 447 711 513 659 c 128,-1,15
 579 607 579 607 579 519 c 2,16,-1
 579 505 l 1,17,-1
 517 505 l 1,18,-1
 517 517 l 2,19,20
 517 580 517 580 467 618 c 128,-1,21
 417 656 417 656 327 656 c 256,22,23
 237 656 237 656 186.5 605 c 128,-1,24
 136 554 136 554 136 469 c 2,25,-1
 136 232 l 2,26,27
 136 146 136 146 186.5 95 c 128,-1,28
 237 44 237 44 329 44 c 0,29,30
 420 44 420 44 469.5 91 c 128,-1,31
 519 138 519 138 519 220 c 2,32,-1
 519 294 l 1,33,-1
 318 294 l 1,0,-1
EndSplineSet
EndChar

StartChar: H
Encoding: 72 72 44
Width: 693
GlyphClass: 1
Flags: W
LayerCount: 2
Fore
SplineSet
598 700 m 1,0,-1
 598 0 l 1,1,-1
 536 0 l 1,2,-1
 536 343 l 1,3,-1
 157 343 l 1,4,-1
 157 0 l 1,5,-1
 94 0 l 1,6,-1
 94 700 l 1,7,-1
 157 700 l 1,8,-1
 157 397 l 1,9,-1
 536 397 l 1,10,-1
 536 700 l 1,11,-1
 598 700 l 1,0,-1
EndSplineSet
EndChar

StartChar: I
Encoding: 73 73 45
Width: 256
GlyphClass: 1
Flags: W
LayerCount: 2
Fore
SplineSet
97 0 m 1,0,-1
 97 700 l 1,1,-1
 159 700 l 1,2,-1
 159 0 l 1,3,-1
 97 0 l 1,0,-1
EndSplineSet
EndChar

StartChar: J
Encoding: 74 74 46
Width: 571
GlyphClass: 1
Flags: W
LayerCount: 2
Fore
SplineSet
261 44 m 0,0,1
 336 44 336 44 378 92 c 128,-1,2
 420 140 420 140 420 220 c 2,3,-1
 420 700 l 1,4,-1
 482 700 l 1,5,-1
 482 218 l 2,6,7
 482 113 482 113 424 51 c 128,-1,8
 366 -11 366 -11 261 -11 c 0,9,10
 153 -11 153 -11 94 45 c 128,-1,11
 35 101 35 101 35 199 c 2,12,-1
 35 227 l 1,13,-1
 96 227 l 1,14,-1
 96 202 l 2,15,16
 96 128 96 128 139 86 c 128,-1,17
 182 44 182 44 261 44 c 0,0,1
EndSplineSet
EndChar

StartChar: K
Encoding: 75 75 47
Width: 636
GlyphClass: 1
Flags: W
LayerCount: 2
Fore
SplineSet
543 0 m 1,0,-1
 292 356 l 1,1,-1
 157 212 l 1,2,-1
 157 0 l 1,3,-1
 94 0 l 1,4,-1
 94 700 l 1,5,-1
 157 700 l 1,6,-1
 157 290 l 1,7,-1
 533 700 l 1,8,-1
 608 700 l 1,9,-1
 334 403 l 1,10,-1
 619 0 l 1,11,-1
 543 0 l 1,0,-1
EndSplineSet
EndChar

StartChar: L
Encoding: 76 76 48
Width: 552
GlyphClass: 1
Flags: W
LayerCount: 2
Fore
SplineSet
528 55 m 1,0,-1
 528 0 l 1,1,-1
 94 0 l 1,2,-1
 94 700 l 1,3,-1
 157 700 l 1,4,-1
 157 55 l 1,5,-1
 528 55 l 1,0,-1
EndSplineSet
EndChar

StartChar: M
Encoding: 77 77 49
Width: 760
GlyphClass: 1
Flags: W
LayerCount: 2
Fore
SplineSet
605 587 m 1,0,-1
 393 257 l 1,1,-1
 364 257 l 1,2,-1
 153 584 l 1,3,-1
 153 0 l 1,4,-1
 94 0 l 1,5,-1
 94 700 l 1,6,-1
 147 700 l 1,7,-1
 380 337 l 1,8,-1
 611 700 l 1,9,-1
 666 700 l 1,10,-1
 666 0 l 1,11,-1
 605 0 l 1,12,-1
 605 587 l 1,0,-1
EndSplineSet
EndChar

StartChar: N
Encoding: 78 78 50
Width: 691
GlyphClass: 1
Flags: W
LayerCount: 2
Fore
SplineSet
597 700 m 1,0,-1
 597 0 l 1,1,-1
 545 0 l 1,2,-1
 153 583 l 1,3,-1
 153 0 l 1,4,-1
 94 0 l 1,5,-1
 94 700 l 1,6,-1
 146 700 l 1,7,-1
 538 117 l 1,8,-1
 538 700 l 1,9,-1
 597 700 l 1,0,-1
EndSplineSet
EndChar

StartChar: O
Encoding: 79 79 51
Width: 658
GlyphClass: 1
Flags: W
LayerCount: 2
Fore
SplineSet
583 232 m 2,0,1
 583 119 583 119 516.5 54 c 128,-1,2
 450 -11 450 -11 328 -11 c 0,3,4
 208 -11 208 -11 141.5 55 c 128,-1,5
 75 121 75 121 75 232 c 2,6,-1
 75 469 l 2,7,8
 75 580 75 580 141.5 645.5 c 128,-1,9
 208 711 208 711 328 711 c 0,10,11
 450 711 450 711 516.5 646 c 128,-1,12
 583 581 583 581 583 469 c 2,13,-1
 583 232 l 2,0,1
136 235 m 2,14,15
 136 148 136 148 186.5 96 c 128,-1,16
 237 44 237 44 328 44 c 0,17,18
 420 44 420 44 471 95.5 c 128,-1,19
 522 147 522 147 522 235 c 2,20,-1
 522 465 l 2,21,22
 522 553 522 553 471 604.5 c 128,-1,23
 420 656 420 656 328 656 c 0,24,25
 237 656 237 656 186.5 604 c 128,-1,26
 136 552 136 552 136 465 c 2,27,-1
 136 235 l 2,14,15
EndSplineSet
EndChar

StartChar: P
Encoding: 80 80 52
Width: 643
GlyphClass: 1
Flags: W
LayerCount: 2
Fore
SplineSet
345 700 m 2,0,1
 471 700 471 700 535 644.5 c 128,-1,2
 599 589 599 589 599 481 c 256,3,4
 599 373 599 373 535 317.5 c 128,-1,5
 471 262 471 262 345 262 c 2,6,-1
 157 262 l 1,7,-1
 157 0 l 1,8,-1
 94 0 l 1,9,-1
 94 700 l 1,10,-1
 345 700 l 2,0,1
345 315 m 2,11,12
 440 315 440 315 488 356.5 c 128,-1,13
 536 398 536 398 536 481 c 0,14,15
 536 563 536 563 488 604.5 c 128,-1,16
 440 646 440 646 345 646 c 2,17,-1
 157 646 l 1,18,-1
 157 315 l 1,19,-1
 345 315 l 2,11,12
EndSplineSet
EndChar

StartChar: Q
Encoding: 81 81 53
Width: 658
GlyphClass: 1
Flags: W
LayerCount: 2
Fore
SplineSet
453 12 m 1,0,-1
 573 -135 l 1,1,-1
 573 -143 l 1,2,-1
 501 -143 l 1,3,-1
 390 -6 l 1,4,5
 374 -9 374 -9 358.5 -10 c 128,-1,6
 343 -11 343 -11 328 -11 c 0,7,8
 208 -11 208 -11 141.5 55 c 128,-1,9
 75 121 75 121 75 232 c 2,10,-1
 75 469 l 2,11,12
 75 580 75 580 141.5 645.5 c 128,-1,13
 208 711 208 711 328 711 c 0,14,15
 450 711 450 711 516.5 646 c 128,-1,16
 583 581 583 581 583 469 c 2,17,-1
 583 232 l 2,18,19
 583 154 583 154 549.5 97 c 128,-1,20
 516 40 516 40 453 12 c 1,0,-1
136 235 m 2,21,22
 136 148 136 148 186.5 96 c 128,-1,23
 237 44 237 44 328 44 c 0,24,25
 420 44 420 44 471 95.5 c 128,-1,26
 522 147 522 147 522 235 c 2,27,-1
 522 465 l 2,28,29
 522 553 522 553 471 604.5 c 128,-1,30
 420 656 420 656 328 656 c 0,31,32
 237 656 237 656 186.5 604 c 128,-1,33
 136 552 136 552 136 465 c 2,34,-1
 136 235 l 2,21,22
EndSplineSet
EndChar

StartChar: R
Encoding: 82 82 54
Width: 654
GlyphClass: 1
Flags: W
LayerCount: 2
Fore
SplineSet
345 330 m 2,0,1
 440 330 440 330 488 369.5 c 128,-1,2
 536 409 536 409 536 488 c 0,3,4
 536 568 536 568 488.5 607.5 c 128,-1,5
 441 647 441 647 345 647 c 2,6,-1
 157 647 l 1,7,-1
 157 330 l 1,8,-1
 345 330 l 2,0,1
389 280 m 1,9,10
 372 279 372 279 362.5 278.5 c 128,-1,11
 353 278 353 278 345 278 c 2,12,-1
 157 278 l 1,13,-1
 157 0 l 1,14,-1
 94 0 l 1,15,-1
 94 700 l 1,16,-1
 345 700 l 2,17,18
 471 700 471 700 535 646.5 c 128,-1,19
 599 593 599 593 599 489 c 0,20,21
 599 409 599 409 561.5 359 c 128,-1,22
 524 309 524 309 450 290 c 1,23,-1
 586 0 l 1,24,-1
 520 0 l 1,25,-1
 389 280 l 1,9,10
EndSplineSet
EndChar

StartChar: S
Encoding: 83 83 55
Width: 621
GlyphClass: 1
Flags: W
LayerCount: 2
Fore
SplineSet
304 711 m 0,0,1
 424 711 424 711 486 663 c 128,-1,2
 548 615 548 615 548 524 c 2,3,-1
 548 513 l 1,4,-1
 486 513 l 1,5,-1
 486 523 l 2,6,7
 486 592 486 592 441 624.5 c 128,-1,8
 396 657 396 657 303 657 c 0,9,10
 217 657 217 657 173 624 c 128,-1,11
 129 591 129 591 129 526 c 0,12,13
 129 479 129 479 156.5 452 c 128,-1,14
 184 425 184 425 246 411 c 2,15,-1
 405 375 l 2,16,17
 483 357 483 357 522.5 313 c 128,-1,18
 562 269 562 269 562 201 c 0,19,20
 562 98 562 98 501 43.5 c 128,-1,21
 440 -11 440 -11 323 -11 c 0,22,23
 191 -11 191 -11 125.5 32.5 c 128,-1,24
 60 76 60 76 60 164 c 2,25,-1
 60 175 l 1,26,-1
 121 175 l 1,27,-1
 121 165 l 2,28,29
 121 102 121 102 170.5 72.5 c 128,-1,30
 220 43 220 43 323 43 c 0,31,32
 409 43 409 43 453.5 81.5 c 128,-1,33
 498 120 498 120 498 195 c 0,34,35
 498 244 498 244 470 274 c 128,-1,36
 442 304 442 304 384 318 c 2,37,-1
 225 354 l 2,38,39
 144 373 144 373 106 413.5 c 128,-1,40
 68 454 68 454 68 522 c 0,41,42
 68 613 68 613 128.5 662 c 128,-1,43
 189 711 189 711 304 711 c 0,0,1
EndSplineSet
EndChar

StartChar: T
Encoding: 84 84 56
Width: 565
GlyphClass: 1
Flags: W
LayerCount: 2
Fore
SplineSet
25 700 m 1,0,-1
 540 700 l 1,1,-1
 540 645 l 1,2,-1
 313 645 l 1,3,-1
 313 0 l 1,4,-1
 251 0 l 1,5,-1
 251 645 l 1,6,-1
 25 645 l 1,7,-1
 25 700 l 1,0,-1
EndSplineSet
EndChar

StartChar: U
Encoding: 85 85 57
Width: 686
GlyphClass: 1
Flags: W
LayerCount: 2
Fore
SplineSet
342 -11 m 0,0,1
 222 -11 222 -11 155.5 55 c 128,-1,2
 89 121 89 121 89 232 c 2,3,-1
 89 700 l 1,4,-1
 151 700 l 1,5,-1
 151 235 l 2,6,7
 151 148 151 148 201 96 c 128,-1,8
 251 44 251 44 342 44 c 0,9,10
 434 44 434 44 484.5 95.5 c 128,-1,11
 535 147 535 147 535 235 c 2,12,-1
 535 700 l 1,13,-1
 597 700 l 1,14,-1
 597 232 l 2,15,16
 597 120 597 120 530.5 54.5 c 128,-1,17
 464 -11 464 -11 342 -11 c 0,0,1
EndSplineSet
EndChar

StartChar: V
Encoding: 86 86 58
Width: 605
GlyphClass: 1
Flags: W
LayerCount: 2
Fore
SplineSet
580 700 m 1,0,-1
 333 0 l 1,1,-1
 272 0 l 1,2,-1
 25 700 l 1,3,-1
 91 700 l 1,4,-1
 305 85 l 1,5,-1
 517 700 l 1,6,-1
 580 700 l 1,0,-1
EndSplineSet
EndChar

StartChar: W
Encoding: 87 87 59
Width: 923
GlyphClass: 1
Flags: W
LayerCount: 2
Fore
SplineSet
462 599 m 1,0,-1
 279 0 l 1,1,-1
 217 0 l 1,2,-1
 35 700 l 1,3,-1
 99 700 l 1,4,-1
 252 95 l 1,5,-1
 432 700 l 1,6,-1
 493 700 l 1,7,-1
 674 94 l 1,8,-1
 825 700 l 1,9,-1
 888 700 l 1,10,-1
 706 0 l 1,11,-1
 645 0 l 1,12,-1
 462 599 l 1,0,-1
EndSplineSet
EndChar

StartChar: X
Encoding: 88 88 60
Width: 604
GlyphClass: 1
Flags: W
LayerCount: 2
Fore
SplineSet
338 359 m 1,0,-1
 581 0 l 1,1,-1
 509 0 l 1,2,-1
 299 309 l 1,3,-1
 89 0 l 1,4,-1
 20 0 l 1,5,-1
 264 355 l 1,6,-1
 33 700 l 1,7,-1
 105 700 l 1,8,-1
 303 404 l 1,9,-1
 507 700 l 1,10,-1
 575 700 l 1,11,-1
 338 359 l 1,0,-1
EndSplineSet
EndChar

StartChar: Y
Encoding: 89 89 61
Width: 589
GlyphClass: 1
Flags: W
LayerCount: 2
Fore
SplineSet
568 700 m 1,0,-1
 326 268 l 1,1,-1
 326 0 l 1,2,-1
 264 0 l 1,3,-1
 264 264 l 1,4,-1
 21 700 l 1,5,-1
 88 700 l 1,6,-1
 294 323 l 1,7,-1
 504 700 l 1,8,-1
 568 700 l 1,0,-1
EndSplineSet
EndChar

StartChar: Z
Encoding: 90 90 62
Width: 579
GlyphClass: 1
Flags: W
LayerCount: 2
Fore
SplineSet
446 646 m 1,0,-1
 56 646 l 1,1,-1
 56 700 l 1,2,-1
 525 700 l 1,3,-1
 525 652 l 1,4,-1
 119 54 l 1,5,-1
 537 54 l 1,6,-1
 537 0 l 1,7,-1
 40 0 l 1,8,-1
 40 49 l 1,9,-1
 446 646 l 1,0,-1
EndSplineSet
EndChar

StartChar: bracketleft
Encoding: 91 91 63
Width: 337
GlyphClass: 1
Flags: W
LayerCount: 2
Fore
SplineSet
297 -74 m 1,0,-1
 297 -126 l 1,1,-1
 97 -126 l 1,2,-1
 97 758 l 1,3,-1
 297 758 l 1,4,-1
 297 706 l 1,5,-1
 159 706 l 1,6,-1
 159 -74 l 1,7,-1
 297 -74 l 1,0,-1
EndSplineSet
EndChar

StartChar: backslash
Encoding: 92 92 64
Width: 514
GlyphClass: 1
Flags: W
LayerCount: 2
Fore
SplineSet
82 758 m 1,0,-1
 492 -126 l 1,1,-1
 432 -126 l 1,2,-1
 23 758 l 1,3,-1
 82 758 l 1,0,-1
EndSplineSet
EndChar

StartChar: bracketright
Encoding: 93 93 65
Width: 337
GlyphClass: 1
Flags: W
LayerCount: 2
Fore
SplineSet
40 -126 m 1,0,-1
 40 -74 l 1,1,-1
 178 -74 l 1,2,-1
 178 706 l 1,3,-1
 40 706 l 1,4,-1
 40 758 l 1,5,-1
 240 758 l 1,6,-1
 240 -126 l 1,7,-1
 40 -126 l 1,0,-1
EndSplineSet
EndChar

StartChar: asciicircum
Encoding: 94 94 66
Width: 469
GlyphClass: 1
Flags: W
LayerCount: 2
Fore
SplineSet
210 700 m 1,0,-1
 259 700 l 1,1,-1
 417 359 l 1,2,-1
 357 359 l 1,3,-1
 235 632 l 1,4,-1
 112 358 l 1,5,-1
 52 358 l 1,6,-1
 210 700 l 1,0,-1
EndSplineSet
EndChar

StartChar: underscore
Encoding: 95 95 67
Width: 504
GlyphClass: 1
Flags: W
LayerCount: 2
Fore
SplineSet
504 -138 m 1,0,-1
 0 -138 l 1,1,-1
 0 -89 l 1,2,-1
 504 -89 l 1,3,-1
 504 -138 l 1,0,-1
EndSplineSet
EndChar

StartChar: grave
Encoding: 96 96 68
Width: 500
GlyphClass: 1
Flags: W
LayerCount: 2
Fore
SplineSet
241 736 m 1,0,-1
 321 597 l 1,1,-1
 271 597 l 1,2,-1
 176 736 l 1,3,-1
 241 736 l 1,0,-1
EndSplineSet
EndChar

StartChar: a
Encoding: 97 97 69
Width: 545
GlyphClass: 1
Flags: W
LayerCount: 2
Fore
SplineSet
252 253 m 2,0,1
 181 253 181 253 147 227.5 c 128,-1,2
 113 202 113 202 113 148 c 0,3,4
 113 93 113 93 146 65.5 c 128,-1,5
 179 38 179 38 245 38 c 0,6,7
 326 38 326 38 367 75.5 c 128,-1,8
 408 113 408 113 408 186 c 2,9,-1
 408 253 l 1,10,-1
 252 253 l 2,0,1
467 350 m 2,11,-1
 467 0 l 1,12,-1
 414 0 l 1,13,-1
 412 73 l 1,14,15
 391 31 391 31 345.5 10 c 128,-1,16
 300 -11 300 -11 231 -11 c 0,17,18
 143 -11 143 -11 98.5 29 c 128,-1,19
 54 69 54 69 54 147 c 256,20,21
 54 225 54 225 101 263.5 c 128,-1,22
 148 302 148 302 244 302 c 2,23,-1
 408 302 l 1,24,-1
 408 352 l 2,25,26
 408 417 408 417 372 452 c 128,-1,27
 336 487 336 487 267 487 c 0,28,29
 200 487 200 487 161.5 460.5 c 128,-1,30
 123 434 123 434 123 391 c 2,31,-1
 123 383 l 1,32,-1
 67 383 l 1,33,-1
 67 391 l 2,34,35
 67 456 67 456 120.5 496 c 128,-1,36
 174 536 174 536 268 536 c 0,37,38
 365 536 365 536 416 488 c 128,-1,39
 467 440 467 440 467 350 c 2,11,-1
EndSplineSet
EndChar

StartChar: b
Encoding: 98 98 70
Width: 571
GlyphClass: 1
Flags: W
LayerCount: 2
Fore
SplineSet
506 194 m 2,0,1
 506 101 506 101 454.5 45 c 128,-1,2
 403 -11 403 -11 313 -11 c 0,3,4
 249 -11 249 -11 204.5 13.5 c 128,-1,5
 160 38 160 38 139 83 c 1,6,-1
 135 0 l 1,7,-1
 83 0 l 1,8,-1
 83 730 l 1,9,-1
 142 730 l 1,10,-1
 142 444 l 1,11,12
 164 489 164 489 208.5 512.5 c 128,-1,13
 253 536 253 536 315 536 c 0,14,15
 404 536 404 536 455 480 c 128,-1,16
 506 424 506 424 506 331 c 2,17,-1
 506 194 l 2,0,1
142 209 m 2,18,19
 142 130 142 130 182.5 86 c 128,-1,20
 223 42 223 42 299 42 c 0,21,22
 372 42 372 42 409.5 83.5 c 128,-1,23
 447 125 447 125 447 206 c 2,24,-1
 447 319 l 2,25,26
 447 398 447 398 409 440.5 c 128,-1,27
 371 483 371 483 299 483 c 0,28,29
 223 483 223 483 182.5 439 c 128,-1,30
 142 395 142 395 142 316 c 2,31,-1
 142 209 l 2,18,19
EndSplineSet
EndChar

StartChar: c
Encoding: 99 99 71
Width: 535
GlyphClass: 1
Flags: W
LayerCount: 2
Fore
SplineSet
278 40 m 0,0,1
 346 40 346 40 385 75 c 128,-1,2
 424 110 424 110 424 166 c 2,3,-1
 424 176 l 1,4,-1
 483 176 l 1,5,-1
 483 166 l 2,6,7
 483 87 483 87 428.5 38 c 128,-1,8
 374 -11 374 -11 278 -11 c 0,9,10
 177 -11 177 -11 120.5 45 c 128,-1,11
 64 101 64 101 64 194 c 2,12,-1
 64 332 l 2,13,14
 64 425 64 425 120.5 480.5 c 128,-1,15
 177 536 177 536 278 536 c 0,16,17
 374 536 374 536 428 487.5 c 128,-1,18
 482 439 482 439 482 360 c 2,19,-1
 482 350 l 1,20,-1
 424 350 l 1,21,-1
 424 360 l 2,22,23
 424 416 424 416 385 451 c 128,-1,24
 346 486 346 486 278 486 c 0,25,26
 204 486 204 486 163.5 444 c 128,-1,27
 123 402 123 402 123 332 c 2,28,-1
 123 194 l 2,29,30
 123 124 123 124 163.5 82 c 128,-1,31
 204 40 204 40 278 40 c 0,0,1
EndSplineSet
EndChar

StartChar: d
Encoding: 100 100 72
Width: 571
GlyphClass: 1
Flags: W
LayerCount: 2
Fore
SplineSet
124 203 m 2,0,1
 124 125 124 125 161.5 83.5 c 128,-1,2
 199 42 199 42 271 42 c 0,3,4
 347 42 347 42 388 85 c 128,-1,5
 429 128 429 128 429 206 c 2,6,-1
 429 320 l 2,7,8
 429 397 429 397 388 440 c 128,-1,9
 347 483 347 483 271 483 c 0,10,11
 199 483 199 483 161.5 442 c 128,-1,12
 124 401 124 401 124 323 c 2,13,-1
 124 203 l 2,0,1
488 730 m 1,14,-1
 488 0 l 1,15,-1
 436 0 l 1,16,-1
 432 84 l 1,17,18
 410 38 410 38 365 13.5 c 128,-1,19
 320 -11 320 -11 256 -11 c 0,20,21
 167 -11 167 -11 116 44 c 128,-1,22
 65 99 65 99 65 191 c 2,23,-1
 65 334 l 2,24,25
 65 426 65 426 116.5 481 c 128,-1,26
 168 536 168 536 258 536 c 0,27,28
 320 536 320 536 363.5 514 c 128,-1,29
 407 492 407 492 429 449 c 1,30,-1
 429 730 l 1,31,-1
 488 730 l 1,14,-1
EndSplineSet
EndChar

StartChar: e
Encoding: 101 101 73
Width: 542
GlyphClass: 1
Flags: W
LayerCount: 2
Fore
SplineSet
424 158 m 1,0,-1
 480 158 l 1,1,-1
 480 147 l 2,2,3
 480 75 480 75 426 32 c 128,-1,4
 372 -11 372 -11 275 -11 c 0,5,6
 174 -11 174 -11 119 42.5 c 128,-1,7
 64 96 64 96 64 187 c 2,8,-1
 64 332 l 2,9,10
 64 425 64 425 119.5 480.5 c 128,-1,11
 175 536 175 536 274 536 c 256,12,13
 373 536 373 536 428 480.5 c 128,-1,14
 483 425 483 425 483 332 c 2,15,-1
 483 251 l 1,16,-1
 122 251 l 1,17,-1
 122 182 l 2,18,19
 122 116 122 116 162 77 c 128,-1,20
 202 38 202 38 275 38 c 0,21,22
 345 38 345 38 384.5 68.5 c 128,-1,23
 424 99 424 99 424 149 c 2,24,-1
 424 158 l 1,0,-1
426 339 m 2,25,26
 426 406 426 406 386 447 c 128,-1,27
 346 488 346 488 274 488 c 256,28,29
 202 488 202 488 162 447 c 128,-1,30
 122 406 122 406 122 339 c 2,31,-1
 122 299 l 1,32,-1
 426 299 l 1,33,-1
 426 339 l 2,25,26
EndSplineSet
EndChar

StartChar: f
Encoding: 102 102 74
Width: 336
GlyphClass: 1
Flags: W
LayerCount: 2
Fore
SplineSet
167 525 m 1,0,-1
 315 525 l 1,1,-1
 315 477 l 1,2,-1
 167 477 l 1,3,-1
 167 0 l 1,4,-1
 107 0 l 1,5,-1
 107 477 l 1,6,-1
 30 477 l 1,7,-1
 30 525 l 1,8,-1
 107 525 l 1,9,-1
 107 550 l 2,10,11
 107 637 107 637 154.5 683.5 c 128,-1,12
 202 730 202 730 293 730 c 2,13,-1
 335 730 l 1,14,-1
 335 680 l 1,15,-1
 292 680 l 2,16,17
 230 680 230 680 198.5 647.5 c 128,-1,18
 167 615 167 615 167 552 c 2,19,-1
 167 525 l 1,0,-1
EndSplineSet
EndChar

StartChar: g
Encoding: 103 103 75
Width: 570
GlyphClass: 1
Flags: W
LayerCount: 2
Fore
SplineSet
123 227 m 2,0,1
 123 152 123 152 161 111 c 128,-1,2
 199 70 199 70 270 70 c 0,3,4
 346 70 346 70 387 111.5 c 128,-1,5
 428 153 428 153 428 227 c 2,6,-1
 428 326 l 2,7,8
 428 400 428 400 387 442 c 128,-1,9
 346 484 346 484 270 484 c 0,10,11
 199 484 199 484 161 442.5 c 128,-1,12
 123 401 123 401 123 326 c 2,13,-1
 123 227 l 2,0,1
487 -1 m 2,14,15
 487 -91 487 -91 435 -140.5 c 128,-1,16
 383 -190 383 -190 285 -190 c 0,17,18
 185 -190 185 -190 133.5 -154.5 c 128,-1,19
 82 -119 82 -119 82 -51 c 2,20,-1
 82 -46 l 1,21,-1
 139 -46 l 1,22,-1
 139 -51 l 2,23,24
 139 -97 139 -97 175 -119.5 c 128,-1,25
 211 -142 211 -142 284 -142 c 0,26,27
 354 -142 354 -142 391 -106.5 c 128,-1,28
 428 -71 428 -71 428 -6 c 2,29,-1
 428 107 l 1,30,31
 406 64 406 64 361.5 40.5 c 128,-1,32
 317 17 317 17 255 17 c 0,33,34
 166 17 166 17 115 72 c 128,-1,35
 64 127 64 127 64 219 c 2,36,-1
 64 334 l 2,37,38
 64 425 64 425 116 480.5 c 128,-1,39
 168 536 168 536 257 536 c 0,40,41
 320 536 320 536 365 512 c 128,-1,42
 410 488 410 488 431 443 c 1,43,-1
 435 525 l 1,44,-1
 487 525 l 1,45,-1
 487 -1 l 2,14,15
EndSplineSet
EndChar

StartChar: h
Encoding: 104 104 76
Width: 584
GlyphClass: 1
Flags: W
LayerCount: 2
Fore
SplineSet
299 483 m 0,0,1
 224 483 224 483 183 439.5 c 128,-1,2
 142 396 142 396 142 320 c 2,3,-1
 142 0 l 1,4,-1
 83 0 l 1,5,-1
 83 730 l 1,6,-1
 142 730 l 1,7,-1
 142 445 l 1,8,9
 164 489 164 489 209 512.5 c 128,-1,10
 254 536 254 536 315 536 c 0,11,12
 404 536 404 536 455 483 c 128,-1,13
 506 430 506 430 506 342 c 2,14,-1
 506 0 l 1,15,-1
 446 0 l 1,16,-1
 446 330 l 2,17,18
 446 402 446 402 408 442.5 c 128,-1,19
 370 483 370 483 299 483 c 0,0,1
EndSplineSet
EndChar

StartChar: i
Encoding: 105 105 77
Width: 231
GlyphClass: 1
Flags: W
LayerCount: 2
Fore
SplineSet
84 730 m 1,0,-1
 147 730 l 1,1,-1
 147 640 l 1,2,-1
 84 640 l 1,3,-1
 84 730 l 1,0,-1
85 525 m 1,4,-1
 145 525 l 1,5,-1
 145 0 l 1,6,-1
 85 0 l 1,7,-1
 85 525 l 1,4,-1
EndSplineSet
EndChar

StartChar: j
Encoding: 106 106 78
Width: 231
GlyphClass: 1
Flags: W
LayerCount: 2
Fore
SplineSet
84 730 m 1,0,-1
 147 730 l 1,1,-1
 147 640 l 1,2,-1
 84 640 l 1,3,-1
 84 730 l 1,0,-1
145 -32 m 2,4,5
 145 -102 145 -102 100 -141 c 128,-1,6
 55 -180 55 -180 -30 -180 c 2,7,-1
 -62 -180 l 1,8,-1
 -62 -130 l 1,9,-1
 -36 -130 l 2,10,11
 23 -130 23 -130 54 -105 c 128,-1,12
 85 -80 85 -80 85 -34 c 2,13,-1
 85 525 l 1,14,-1
 145 525 l 1,15,-1
 145 -32 l 2,4,5
EndSplineSet
EndChar

StartChar: k
Encoding: 107 107 79
Width: 510
GlyphClass: 1
Flags: W
LayerCount: 2
Fore
SplineSet
427 0 m 1,0,-1
 228 270 l 1,1,-1
 142 183 l 1,2,-1
 142 0 l 1,3,-1
 83 0 l 1,4,-1
 83 730 l 1,5,-1
 142 730 l 1,6,-1
 142 257 l 1,7,-1
 406 525 l 1,8,-1
 479 525 l 1,9,-1
 268 310 l 1,10,-1
 499 0 l 1,11,-1
 427 0 l 1,0,-1
EndSplineSet
EndChar

StartChar: l
Encoding: 108 108 80
Width: 231
GlyphClass: 1
Flags: W
LayerCount: 2
Fore
SplineSet
85 730 m 1,0,-1
 145 730 l 1,1,-1
 145 0 l 1,2,-1
 85 0 l 1,3,-1
 85 730 l 1,0,-1
EndSplineSet
EndChar

StartChar: m
Encoding: 109 109 81
Width: 930
GlyphClass: 1
Flags: W
LayerCount: 2
Fore
SplineSet
295 483 m 0,0,1
 222 483 222 483 182 439.5 c 128,-1,2
 142 396 142 396 142 320 c 2,3,-1
 142 0 l 1,4,-1
 83 0 l 1,5,-1
 83 525 l 1,6,-1
 135 525 l 1,7,-1
 139 440 l 1,8,9
 161 486 161 486 205.5 511 c 128,-1,10
 250 536 250 536 311 536 c 0,11,12
 374 536 374 536 418 507 c 128,-1,13
 462 478 462 478 481 424 c 1,14,15
 501 478 501 478 549 507 c 128,-1,16
 597 536 597 536 666 536 c 0,17,18
 752 536 752 536 802 482.5 c 128,-1,19
 852 429 852 429 852 342 c 2,20,-1
 852 0 l 1,21,-1
 793 0 l 1,22,-1
 793 330 l 2,23,24
 793 402 793 402 756 442.5 c 128,-1,25
 719 483 719 483 650 483 c 0,26,27
 577 483 577 483 537 439.5 c 128,-1,28
 497 396 497 396 497 320 c 2,29,-1
 497 0 l 1,30,-1
 438 0 l 1,31,-1
 438 330 l 2,32,33
 438 402 438 402 401 442.5 c 128,-1,34
 364 483 364 483 295 483 c 0,0,1
EndSplineSet
EndChar

StartChar: n
Encoding: 110 110 82
Width: 584
GlyphClass: 1
Flags: W
LayerCount: 2
Fore
SplineSet
299 483 m 0,0,1
 224 483 224 483 183 439.5 c 128,-1,2
 142 396 142 396 142 320 c 2,3,-1
 142 0 l 1,4,-1
 83 0 l 1,5,-1
 83 525 l 1,6,-1
 135 525 l 1,7,-1
 139 440 l 1,8,9
 162 486 162 486 207 511 c 128,-1,10
 252 536 252 536 315 536 c 0,11,12
 404 536 404 536 455 483 c 128,-1,13
 506 430 506 430 506 342 c 2,14,-1
 506 0 l 1,15,-1
 446 0 l 1,16,-1
 446 330 l 2,17,18
 446 402 446 402 408 442.5 c 128,-1,19
 370 483 370 483 299 483 c 0,0,1
EndSplineSet
EndChar

StartChar: o
Encoding: 111 111 83
Width: 552
GlyphClass: 1
Flags: W
LayerCount: 2
Fore
SplineSet
488 194 m 2,0,1
 488 100 488 100 432.5 44.5 c 128,-1,2
 377 -11 377 -11 276 -11 c 256,3,4
 175 -11 175 -11 119.5 44.5 c 128,-1,5
 64 100 64 100 64 194 c 2,6,-1
 64 332 l 2,7,8
 64 425 64 425 119.5 480.5 c 128,-1,9
 175 536 175 536 276 536 c 256,10,11
 377 536 377 536 432.5 480.5 c 128,-1,12
 488 425 488 425 488 332 c 2,13,-1
 488 194 l 2,0,1
123 193 m 2,14,15
 123 124 123 124 163.5 81.5 c 128,-1,16
 204 39 204 39 276 39 c 256,17,18
 348 39 348 39 388.5 81.5 c 128,-1,19
 429 124 429 124 429 193 c 2,20,-1
 429 332 l 2,21,22
 429 402 429 402 388.5 444 c 128,-1,23
 348 486 348 486 276 486 c 256,24,25
 204 486 204 486 163.5 444 c 128,-1,26
 123 402 123 402 123 332 c 2,27,-1
 123 193 l 2,14,15
EndSplineSet
EndChar

StartChar: p
Encoding: 112 112 84
Width: 571
GlyphClass: 1
Flags: W
LayerCount: 2
Fore
SplineSet
142 206 m 2,0,1
 142 128 142 128 182.5 85 c 128,-1,2
 223 42 223 42 299 42 c 0,3,4
 372 42 372 42 409.5 82.5 c 128,-1,5
 447 123 447 123 447 202 c 2,6,-1
 447 322 l 2,7,8
 447 400 447 400 409.5 441.5 c 128,-1,9
 372 483 372 483 299 483 c 0,10,11
 223 483 223 483 182.5 440 c 128,-1,12
 142 397 142 397 142 320 c 2,13,-1
 142 206 l 2,0,1
506 191 m 2,14,15
 506 99 506 99 454.5 44 c 128,-1,16
 403 -11 403 -11 313 -11 c 0,17,18
 252 -11 252 -11 208 11.5 c 128,-1,19
 164 34 164 34 142 76 c 1,20,-1
 142 -180 l 1,21,-1
 83 -180 l 1,22,-1
 83 525 l 1,23,-1
 135 525 l 1,24,-1
 139 441 l 1,25,26
 161 487 161 487 206 511.5 c 128,-1,27
 251 536 251 536 315 536 c 0,28,29
 404 536 404 536 455 481 c 128,-1,30
 506 426 506 426 506 334 c 2,31,-1
 506 191 l 2,14,15
EndSplineSet
EndChar

StartChar: q
Encoding: 113 113 85
Width: 570
GlyphClass: 1
Flags: W
LayerCount: 2
Fore
SplineSet
436 525 m 1,0,-1
 488 525 l 1,1,-1
 488 -180 l 1,2,-1
 428 -180 l 1,3,-1
 428 78 l 1,4,5
 405 35 405 35 361 12 c 128,-1,6
 317 -11 317 -11 256 -11 c 0,7,8
 167 -11 167 -11 116 44 c 128,-1,9
 65 99 65 99 65 191 c 2,10,-1
 65 334 l 2,11,12
 65 426 65 426 116.5 481 c 128,-1,13
 168 536 168 536 258 536 c 0,14,15
 321 536 321 536 365.5 512.5 c 128,-1,16
 410 489 410 489 432 444 c 1,17,-1
 436 525 l 1,0,-1
124 203 m 2,18,19
 124 125 124 125 161.5 83.5 c 128,-1,20
 199 42 199 42 271 42 c 0,21,22
 345 42 345 42 386.5 84.5 c 128,-1,23
 428 127 428 127 428 198 c 2,24,-1
 428 327 l 2,25,26
 428 399 428 399 386.5 441 c 128,-1,27
 345 483 345 483 271 483 c 0,28,29
 199 483 199 483 161.5 442 c 128,-1,30
 124 401 124 401 124 323 c 2,31,-1
 124 203 l 2,18,19
EndSplineSet
EndChar

StartChar: r
Encoding: 114 114 86
Width: 350
GlyphClass: 1
Flags: W
LayerCount: 2
Fore
SplineSet
316 478 m 2,0,1
 232 478 232 478 187 428.5 c 128,-1,2
 142 379 142 379 142 291 c 2,3,-1
 142 0 l 1,4,-1
 83 0 l 1,5,-1
 83 525 l 1,6,-1
 135 525 l 1,7,-1
 140 423 l 1,8,9
 163 478 163 478 210.5 506.5 c 128,-1,10
 258 535 258 535 327 535 c 1,11,-1
 327 478 l 1,12,-1
 316 478 l 2,0,1
EndSplineSet
EndChar

StartChar: s
Encoding: 115 115 87
Width: 514
GlyphClass: 1
Flags: W
LayerCount: 2
Fore
SplineSet
251 536 m 0,0,1
 349 536 349 536 398 500 c 128,-1,2
 447 464 447 464 447 392 c 2,3,-1
 447 383 l 1,4,-1
 390 383 l 1,5,-1
 390 391 l 2,6,7
 390 442 390 442 355.5 466 c 128,-1,8
 321 490 321 490 250 490 c 0,9,10
 186 490 186 490 152.5 465.5 c 128,-1,11
 119 441 119 441 119 395 c 0,12,13
 119 362 119 362 140.5 342 c 128,-1,14
 162 322 162 322 211 311 c 2,15,-1
 333 284 l 2,16,17
 397 269 397 269 429 235.5 c 128,-1,18
 461 202 461 202 461 150 c 0,19,20
 461 74 461 74 409.5 31.5 c 128,-1,21
 358 -11 358 -11 262 -11 c 0,22,23
 158 -11 158 -11 106 22.5 c 128,-1,24
 54 56 54 56 54 124 c 2,25,-1
 54 134 l 1,26,-1
 112 134 l 1,27,-1
 112 125 l 2,28,29
 112 79 112 79 149 58 c 128,-1,30
 186 37 186 37 263 37 c 0,31,32
 330 37 330 37 366 65 c 128,-1,33
 402 93 402 93 402 145 c 0,34,35
 402 178 402 178 380.5 199.5 c 128,-1,36
 359 221 359 221 315 232 c 2,37,-1
 196 258 l 2,38,39
 124 274 124 274 93.5 306 c 128,-1,40
 63 338 63 338 63 392 c 0,41,42
 63 459 63 459 112.5 497.5 c 128,-1,43
 162 536 162 536 251 536 c 0,0,1
EndSplineSet
EndChar

StartChar: t
Encoding: 116 116 88
Width: 354
GlyphClass: 1
Flags: W
LayerCount: 2
Fore
SplineSet
165 161 m 2,0,1
 165 105 165 105 196 77.5 c 128,-1,2
 227 50 227 50 290 50 c 2,3,-1
 335 50 l 1,4,-1
 335 0 l 1,5,-1
 282 0 l 2,6,7
 194 0 194 0 150 39.5 c 128,-1,8
 106 79 106 79 106 158 c 2,9,-1
 106 477 l 1,10,-1
 27 477 l 1,11,-1
 27 525 l 1,12,-1
 106 525 l 1,13,-1
 106 664 l 1,14,-1
 165 664 l 1,15,-1
 165 525 l 1,16,-1
 315 525 l 1,17,-1
 315 477 l 1,18,-1
 165 477 l 1,19,-1
 165 161 l 2,0,1
EndSplineSet
EndChar

StartChar: u
Encoding: 117 117 89
Width: 575
GlyphClass: 1
Flags: W
LayerCount: 2
Fore
SplineSet
492 525 m 1,0,-1
 492 0 l 1,1,-1
 440 0 l 1,2,-1
 436 85 l 1,3,4
 413 39 413 39 369 14 c 128,-1,5
 325 -11 325 -11 264 -11 c 0,6,7
 179 -11 179 -11 128.5 41.5 c 128,-1,8
 78 94 78 94 78 178 c 2,9,-1
 78 525 l 1,10,-1
 137 525 l 1,11,-1
 137 190 l 2,12,13
 137 121 137 121 174 81.5 c 128,-1,14
 211 42 211 42 280 42 c 0,15,16
 353 42 353 42 392.5 86 c 128,-1,17
 432 130 432 130 432 206 c 2,18,-1
 432 525 l 1,19,-1
 492 525 l 1,0,-1
EndSplineSet
EndChar

StartChar: v
Encoding: 118 118 90
Width: 506
GlyphClass: 1
Flags: W
LayerCount: 2
Fore
SplineSet
476 525 m 1,0,-1
 282 0 l 1,1,-1
 224 0 l 1,2,-1
 29 525 l 1,3,-1
 91 525 l 1,4,-1
 255 75 l 1,5,-1
 416 525 l 1,6,-1
 476 525 l 1,0,-1
EndSplineSet
EndChar

StartChar: w
Encoding: 119 119 91
Width: 786
GlyphClass: 1
Flags: W
LayerCount: 2
Fore
SplineSet
393 445 m 1,0,-1
 246 0 l 1,1,-1
 188 0 l 1,2,-1
 35 525 l 1,3,-1
 97 525 l 1,4,-1
 221 75 l 1,5,-1
 365 525 l 1,6,-1
 424 525 l 1,7,-1
 568 75 l 1,8,-1
 692 525 l 1,9,-1
 751 525 l 1,10,-1
 598 0 l 1,11,-1
 540 0 l 1,12,-1
 393 445 l 1,0,-1
EndSplineSet
EndChar

StartChar: x
Encoding: 120 120 92
Width: 500
GlyphClass: 1
Flags: W
LayerCount: 2
Fore
SplineSet
283 270 m 1,0,-1
 475 0 l 1,1,-1
 407 0 l 1,2,-1
 245 228 l 1,3,-1
 89 0 l 1,4,-1
 24 0 l 1,5,-1
 214 268 l 1,6,-1
 34 525 l 1,7,-1
 100 525 l 1,8,-1
 252 310 l 1,9,-1
 404 525 l 1,10,-1
 466 525 l 1,11,-1
 283 270 l 1,0,-1
EndSplineSet
EndChar

StartChar: y
Encoding: 121 121 93
Width: 505
GlyphClass: 1
Flags: W
LayerCount: 2
Fore
SplineSet
419 525 m 1,0,-1
 478 525 l 1,1,-1
 214 -180 l 1,2,-1
 156 -180 l 1,3,-1
 225 3 l 1,4,-1
 31 525 l 1,5,-1
 94 525 l 1,6,-1
 254 81 l 1,7,-1
 419 525 l 1,0,-1
EndSplineSet
EndChar

StartChar: z
Encoding: 122 122 94
Width: 490
GlyphClass: 1
Flags: W
LayerCount: 2
Fore
SplineSet
363 478 m 1,0,-1
 54 478 l 1,1,-1
 54 525 l 1,2,-1
 437 525 l 1,3,-1
 437 482 l 1,4,-1
 116 47 l 1,5,-1
 446 47 l 1,6,-1
 446 0 l 1,7,-1
 42 0 l 1,8,-1
 42 45 l 1,9,-1
 363 478 l 1,0,-1
EndSplineSet
EndChar

StartChar: braceleft
Encoding: 123 123 95
Width: 401
GlyphClass: 1
Flags: W
LayerCount: 2
Fore
SplineSet
212 426 m 2,0,1
 212 381 212 381 189 354 c 128,-1,2
 166 327 166 327 121 317 c 1,3,-1
 121 316 l 1,4,5
 166 306 166 306 189 279 c 128,-1,6
 212 252 212 252 212 207 c 2,7,-1
 212 44 l 2,8,9
 212 -15 212 -15 243 -46 c 128,-1,10
 274 -77 274 -77 335 -77 c 2,11,-1
 364 -77 l 1,12,-1
 364 -131 l 1,13,-1
 332 -131 l 2,14,15
 242 -131 242 -131 196 -87 c 128,-1,16
 150 -43 150 -43 150 41 c 2,17,-1
 150 207 l 2,18,19
 150 250 150 250 121 271.5 c 128,-1,20
 92 293 92 293 34 293 c 2,21,-1
 22 293 l 1,22,-1
 22 340 l 1,23,-1
 34 340 l 2,24,25
 92 340 92 340 121 361.5 c 128,-1,26
 150 383 150 383 150 426 c 2,27,-1
 150 591 l 2,28,29
 150 675 150 675 196 719 c 128,-1,30
 242 763 242 763 332 763 c 2,31,-1
 364 763 l 1,32,-1
 364 709 l 1,33,-1
 335 709 l 2,34,35
 274 709 274 709 243 678 c 128,-1,36
 212 647 212 647 212 588 c 2,37,-1
 212 426 l 2,0,1
EndSplineSet
EndChar

StartChar: bar
Encoding: 124 124 96
Width: 255
GlyphClass: 1
Flags: W
LayerCount: 2
Fore
SplineSet
97 -126 m 1,0,-1
 97 758 l 1,1,-1
 159 758 l 1,2,-1
 159 -126 l 1,3,-1
 97 -126 l 1,0,-1
EndSplineSet
EndChar

StartChar: braceright
Encoding: 125 125 97
Width: 401
GlyphClass: 1
Flags: W
LayerCount: 2
Fore
SplineSet
280 317 m 1,0,1
 235 327 235 327 212 354 c 128,-1,2
 189 381 189 381 189 426 c 2,3,-1
 189 588 l 2,4,5
 189 647 189 647 158 678 c 128,-1,6
 127 709 127 709 66 709 c 2,7,-1
 37 709 l 1,8,-1
 37 763 l 1,9,-1
 69 763 l 2,10,11
 159 763 159 763 205 719 c 128,-1,12
 251 675 251 675 251 591 c 2,13,-1
 251 426 l 2,14,15
 251 383 251 383 280 361.5 c 128,-1,16
 309 340 309 340 367 340 c 2,17,-1
 379 340 l 1,18,-1
 379 293 l 1,19,-1
 367 293 l 2,20,21
 309 293 309 293 280 271.5 c 128,-1,22
 251 250 251 250 251 207 c 2,23,-1
 251 41 l 2,24,25
 251 -43 251 -43 205 -87 c 128,-1,26
 159 -131 159 -131 69 -131 c 2,27,-1
 37 -131 l 1,28,-1
 37 -77 l 1,29,-1
 66 -77 l 2,30,31
 127 -77 127 -77 158 -46 c 128,-1,32
 189 -15 189 -15 189 44 c 2,33,-1
 189 207 l 2,34,35
 189 252 189 252 212 279 c 128,-1,36
 235 306 235 306 280 316 c 1,37,-1
 280 317 l 1,0,1
EndSplineSet
EndChar

StartChar: asciitilde
Encoding: 126 126 98
Width: 544
GlyphClass: 1
Flags: W
LayerCount: 2
Fore
SplineSet
303 306 m 2,0,1
 321 295 321 295 332.5 291 c 128,-1,2
 344 287 344 287 355 287 c 0,3,4
 381 287 381 287 397 302 c 128,-1,5
 413 317 413 317 431 359 c 1,6,-1
 468 343 l 1,7,8
 447 285 447 285 423 262.5 c 128,-1,9
 399 240 399 240 358 240 c 0,10,11
 339 240 339 240 321.5 245 c 128,-1,12
 304 250 304 250 289 259 c 2,13,-1
 250 284 l 2,14,15
 231 297 231 297 217 302.5 c 128,-1,16
 203 308 203 308 190 308 c 0,17,18
 162 308 162 308 144 291 c 128,-1,19
 126 274 126 274 112 236 c 1,20,-1
 76 251 l 1,21,22
 94 307 94 307 120 331.5 c 128,-1,23
 146 356 146 356 187 356 c 0,24,25
 208 356 208 356 227.5 350 c 128,-1,26
 247 344 247 344 266 331 c 2,27,-1
 303 306 l 2,0,1
EndSplineSet
EndChar

StartChar: exclamdown
Encoding: 161 161 100
Width: 241
GlyphClass: 1
Flags: W
LayerCount: 2
Fore
SplineSet
154 447 m 1,0,-1
 88 447 l 1,1,-1
 88 525 l 1,2,-1
 154 525 l 1,3,-1
 154 447 l 1,0,-1
89 -175 m 1,4,-1
 89 -60 l 2,5,6
 89 3 89 3 91 109.5 c 128,-1,7
 93 216 93 216 96 366 c 1,8,-1
 146 366 l 1,9,10
 150 216 150 216 151.5 109.5 c 128,-1,11
 153 3 153 3 153 -60 c 2,12,-1
 153 -175 l 1,13,-1
 89 -175 l 1,4,-1
EndSplineSet
EndChar

StartChar: cent
Encoding: 162 162 101
Width: 544
GlyphClass: 1
Flags: W
LayerCount: 2
Fore
SplineSet
427 271 m 1,0,-1
 485 271 l 1,1,-1
 485 261 l 2,2,3
 485 189 485 189 438.5 141.5 c 128,-1,4
 392 94 392 94 310 87 c 1,5,-1
 310 -10 l 1,6,-1
 253 -10 l 1,7,-1
 253 87 l 1,8,9
 164 95 164 95 115 149.5 c 128,-1,10
 66 204 66 204 66 289 c 2,11,-1
 66 428 l 2,12,13
 66 513 66 513 115 567.5 c 128,-1,14
 164 622 164 622 253 630 c 1,15,-1
 253 711 l 1,16,-1
 310 711 l 1,17,-1
 310 630 l 1,18,19
 393 623 393 623 439 576.5 c 128,-1,20
 485 530 485 530 485 456 c 2,21,-1
 485 446 l 1,22,-1
 427 446 l 1,23,-1
 427 456 l 2,24,25
 427 512 427 512 388 546.5 c 128,-1,26
 349 581 349 581 281 581 c 0,27,28
 208 581 208 581 167 539 c 128,-1,29
 126 497 126 497 126 428 c 2,30,-1
 126 289 l 2,31,32
 126 220 126 220 167 178 c 128,-1,33
 208 136 208 136 281 136 c 0,34,35
 349 136 349 136 388 170.5 c 128,-1,36
 427 205 427 205 427 261 c 2,37,-1
 427 271 l 1,0,-1
EndSplineSet
EndChar

StartChar: sterling
Encoding: 163 163 102
Width: 630
GlyphClass: 1
Flags: W
LayerCount: 2
Fore
SplineSet
192 302 m 1,0,-1
 192 50 l 1,1,-1
 556 50 l 1,2,-1
 556 0 l 1,3,-1
 54 0 l 1,4,-1
 54 45 l 1,5,-1
 131 50 l 1,6,-1
 131 302 l 1,7,-1
 54 302 l 1,8,-1
 54 348 l 1,9,-1
 131 348 l 1,10,-1
 131 472 l 2,11,12
 131 582 131 582 190 646.5 c 128,-1,13
 249 711 249 711 357 711 c 0,14,15
 458 711 458 711 515.5 653.5 c 128,-1,16
 573 596 573 596 573 504 c 2,17,-1
 573 486 l 1,18,-1
 512 486 l 1,19,-1
 512 500 l 2,20,21
 512 569 512 569 470 612.5 c 128,-1,22
 428 656 428 656 355 656 c 0,23,24
 277 656 277 656 234.5 606 c 128,-1,25
 192 556 192 556 192 472 c 2,26,-1
 192 348 l 1,27,-1
 422 348 l 1,28,-1
 422 302 l 1,29,-1
 192 302 l 1,0,-1
EndSplineSet
EndChar

StartChar: currency
Encoding: 164 164 103
Width: 588
GlyphClass: 1
Flags: W
LayerCount: 2
Fore
SplineSet
455 217 m 1,0,-1
 523 146 l 1,1,-1
 482 107 l 1,2,-1
 418 175 l 1,3,4
 395 156 395 156 364 146.5 c 128,-1,5
 333 137 333 137 294 137 c 0,6,7
 254 137 254 137 222.5 147.5 c 128,-1,8
 191 158 191 158 168 178 c 1,9,-1
 101 112 l 1,10,-1
 61 151 l 1,11,-1
 132 222 l 1,12,13
 119 244 119 244 112.5 271.5 c 128,-1,14
 106 299 106 299 106 331 c 2,15,-1
 106 349 l 2,16,17
 106 381 106 381 113 410 c 128,-1,18
 120 439 120 439 134 463 c 1,19,-1
 66 536 l 1,20,-1
 107 573 l 1,21,-1
 172 506 l 1,22,23
 196 525 196 525 226.5 534.5 c 128,-1,24
 257 544 257 544 294 544 c 0,25,26
 333 544 333 544 365.5 533.5 c 128,-1,27
 398 523 398 523 421 503 c 1,28,-1
 487 568 l 1,29,-1
 528 530 l 1,30,-1
 457 460 l 1,31,32
 470 437 470 437 477 408.5 c 128,-1,33
 484 380 484 380 484 349 c 2,34,-1
 484 331 l 2,35,36
 484 298 484 298 476.5 269 c 128,-1,37
 469 240 469 240 455 217 c 1,0,-1
427 355 m 2,38,39
 427 418 427 418 392.5 454.5 c 128,-1,40
 358 491 358 491 294 491 c 0,41,42
 231 491 231 491 196.5 454.5 c 128,-1,43
 162 418 162 418 162 355 c 2,44,-1
 162 325 l 2,45,46
 162 262 162 262 196.5 225.5 c 128,-1,47
 231 189 231 189 294 189 c 0,48,49
 358 189 358 189 392.5 225.5 c 128,-1,50
 427 262 427 262 427 325 c 2,51,-1
 427 355 l 2,38,39
EndSplineSet
EndChar

StartChar: yen
Encoding: 165 165 104
Width: 571
GlyphClass: 1
Flags: W
LayerCount: 2
Fore
SplineSet
316 202 m 1,0,-1
 480 202 l 1,1,-1
 480 156 l 1,2,-1
 316 156 l 1,3,-1
 316 0 l 1,4,-1
 254 0 l 1,5,-1
 254 156 l 1,6,-1
 91 156 l 1,7,-1
 91 202 l 1,8,-1
 254 202 l 1,9,-1
 254 266 l 1,10,-1
 249 276 l 1,11,-1
 91 276 l 1,12,-1
 91 322 l 1,13,-1
 225 322 l 1,14,-1
 31 700 l 1,15,-1
 99 700 l 1,16,-1
 284 325 l 1,17,-1
 475 700 l 1,18,-1
 540 700 l 1,19,-1
 343 322 l 1,20,-1
 480 322 l 1,21,-1
 480 276 l 1,22,-1
 319 276 l 1,23,-1
 316 270 l 1,24,-1
 316 202 l 1,0,-1
EndSplineSet
EndChar

StartChar: brokenbar
Encoding: 166 166 105
Width: 253
GlyphClass: 1
Flags: W
LayerCount: 2
Fore
SplineSet
96 758 m 1,0,-1
 158 758 l 1,1,-1
 158 427 l 1,2,-1
 96 427 l 1,3,-1
 96 758 l 1,0,-1
158 -126 m 1,4,-1
 96 -126 l 1,5,-1
 96 205 l 1,6,-1
 158 205 l 1,7,-1
 158 -126 l 1,4,-1
EndSplineSet
EndChar

StartChar: section
Encoding: 167 167 106
Width: 522
GlyphClass: 1
Flags: W
LayerCount: 2
Fore
SplineSet
362 383 m 2,0,1
 405 367 405 367 423.5 350 c 128,-1,2
 442 333 442 333 442 312 c 0,3,4
 442 307 442 307 441 301.5 c 128,-1,5
 440 296 440 296 438 291 c 1,6,-1
 197 391 l 2,7,8
 127 419 127 419 96.5 457 c 128,-1,9
 66 495 66 495 66 552 c 0,10,11
 66 628 66 628 115 669.5 c 128,-1,12
 164 711 164 711 256 711 c 0,13,14
 355 711 355 711 404 674.5 c 128,-1,15
 453 638 453 638 453 564 c 2,16,-1
 453 557 l 1,17,-1
 396 557 l 1,18,-1
 396 564 l 2,19,20
 396 616 396 616 361.5 640.5 c 128,-1,21
 327 665 327 665 255 665 c 0,22,23
 189 665 189 665 155 636.5 c 128,-1,24
 121 608 121 608 121 554 c 0,25,26
 121 515 121 515 144 487.5 c 128,-1,27
 167 460 167 460 216 441 c 2,28,-1
 362 383 l 2,0,1
160 198 m 2,29,30
 117 214 117 214 98.5 231 c 128,-1,31
 80 248 80 248 80 269 c 0,32,33
 80 275 80 275 81 280 c 128,-1,34
 82 285 82 285 84 290 c 1,35,-1
 325 190 l 2,36,37
 395 162 395 162 425.5 124 c 128,-1,38
 456 86 456 86 456 29 c 0,39,40
 456 -48 456 -48 407.5 -89 c 128,-1,41
 359 -130 359 -130 266 -130 c 0,42,43
 168 -130 168 -130 118.5 -93 c 128,-1,44
 69 -56 69 -56 69 17 c 2,45,-1
 69 24 l 1,46,-1
 125 24 l 1,47,-1
 125 17 l 2,48,49
 125 -35 125 -35 160 -59.5 c 128,-1,50
 195 -84 195 -84 267 -84 c 0,51,52
 333 -84 333 -84 367 -55.5 c 128,-1,53
 401 -27 401 -27 401 27 c 0,54,55
 401 66 401 66 378 93.5 c 128,-1,56
 355 121 355 121 306 140 c 2,57,-1
 160 198 l 2,29,30
EndSplineSet
EndChar

StartChar: dieresis
Encoding: 168 168 107
Width: 500
GlyphClass: 1
Flags: W
LayerCount: 2
Fore
SplineSet
280 708 m 1,0,-1
 338 708 l 1,1,-1
 338 640 l 1,2,-1
 280 640 l 1,3,-1
 280 708 l 1,0,-1
161 708 m 1,4,-1
 219 708 l 1,5,-1
 219 640 l 1,6,-1
 161 640 l 1,7,-1
 161 708 l 1,4,-1
EndSplineSet
EndChar

StartChar: copyright
Encoding: 169 169 108
Width: 839
GlyphClass: 1
Flags: W
LayerCount: 2
Fore
SplineSet
779 350 m 256,0,1
 779 201 779 201 673.5 95.5 c 128,-1,2
 568 -10 568 -10 419 -10 c 256,3,4
 270 -10 270 -10 164.5 95.5 c 128,-1,5
 59 201 59 201 59 350 c 256,6,7
 59 499 59 499 164.5 604.5 c 128,-1,8
 270 710 270 710 419 710 c 256,9,10
 568 710 568 710 673.5 604.5 c 128,-1,11
 779 499 779 499 779 350 c 256,0,1
743 350 m 256,12,13
 743 484 743 484 648 579 c 128,-1,14
 553 674 553 674 419 674 c 0,15,16
 286 674 286 674 191 579 c 128,-1,17
 96 484 96 484 96 350 c 256,18,19
 96 216 96 216 191 121 c 128,-1,20
 286 26 286 26 419 26 c 0,21,22
 553 26 553 26 648 121 c 128,-1,23
 743 216 743 216 743 350 c 256,12,13
419 179 m 0,24,25
 469 179 469 179 498 204.5 c 128,-1,26
 527 230 527 230 527 270 c 2,27,-1
 527 280 l 1,28,-1
 587 280 l 1,29,-1
 587 270 l 2,30,31
 587 207 587 207 542 167.5 c 128,-1,32
 497 128 497 128 419 128 c 0,33,34
 336 128 336 128 289.5 172.5 c 128,-1,35
 243 217 243 217 243 291 c 2,36,-1
 243 406 l 2,37,38
 243 480 243 480 289.5 525 c 128,-1,39
 336 570 336 570 419 570 c 0,40,41
 497 570 497 570 541.5 531 c 128,-1,42
 586 492 586 492 586 428 c 2,43,-1
 586 417 l 1,44,-1
 527 417 l 1,45,-1
 527 428 l 2,46,47
 527 468 527 468 498.5 493.5 c 128,-1,48
 470 519 470 519 419 519 c 0,49,50
 364 519 364 519 333.5 488 c 128,-1,51
 303 457 303 457 303 407 c 2,52,-1
 303 291 l 2,53,54
 303 241 303 241 333.5 210 c 128,-1,55
 364 179 364 179 419 179 c 0,24,25
EndSplineSet
EndChar

StartChar: ordfeminine
Encoding: 170 170 109
Width: 422
GlyphClass: 1
Flags: W
LayerCount: 2
Fore
SplineSet
197 512 m 2,0,1
 155 512 155 512 135 497.5 c 128,-1,2
 115 483 115 483 115 452 c 0,3,4
 115 420 115 420 135 404 c 128,-1,5
 155 388 155 388 195 388 c 0,6,7
 244 388 244 388 268.5 410 c 128,-1,8
 293 432 293 432 293 476 c 2,9,-1
 293 512 l 1,10,-1
 197 512 l 2,0,1
343 582 m 2,11,-1
 343 353 l 1,12,-1
 299 353 l 1,13,-1
 296 405 l 1,14,15
 284 375 284 375 255.5 360 c 128,-1,16
 227 345 227 345 183 345 c 0,17,18
 124 345 124 345 94 371.5 c 128,-1,19
 64 398 64 398 64 450 c 0,20,21
 64 501 64 501 95.5 526.5 c 128,-1,22
 127 552 127 552 190 552 c 2,23,-1
 293 552 l 1,24,-1
 293 583 l 2,25,26
 293 622 293 622 271 643.5 c 128,-1,27
 249 665 249 665 207 665 c 256,28,29
 165 665 165 665 141.5 649.5 c 128,-1,30
 118 634 118 634 118 607 c 2,31,-1
 118 603 l 1,32,-1
 71 603 l 1,33,-1
 71 607 l 2,34,35
 71 653 71 653 107 679.5 c 128,-1,36
 143 706 143 706 208 706 c 0,37,38
 275 706 275 706 309 674.5 c 128,-1,39
 343 643 343 643 343 582 c 2,11,-1
EndSplineSet
EndChar

StartChar: guillemotleft
Encoding: 171 171 110
Width: 483
GlyphClass: 1
Flags: W
LayerCount: 2
Fore
SplineSet
358 453 m 1,0,-1
 420 453 l 1,1,-1
 268 262 l 1,2,-1
 420 73 l 1,3,-1
 358 73 l 1,4,-1
 197 262 l 1,5,-1
 358 453 l 1,0,-1
202 453 m 1,6,-1
 264 453 l 1,7,-1
 112 262 l 1,8,-1
 264 73 l 1,9,-1
 202 73 l 1,10,-1
 41 262 l 1,11,-1
 202 453 l 1,6,-1
EndSplineSet
EndChar

StartChar: logicalnot
Encoding: 172 172 111
Width: 569
GlyphClass: 1
Flags: W
LayerCount: 2
Fore
SplineSet
75 436 m 1,0,-1
 487 436 l 1,1,-1
 487 203 l 1,2,-1
 431 203 l 1,3,-1
 431 384 l 1,4,-1
 75 384 l 1,5,-1
 75 436 l 1,0,-1
EndSplineSet
EndChar

StartChar: uni00AD
Encoding: 173 173 112
Width: 419
GlyphClass: 1
Flags: W
LayerCount: 2
Fore
SplineSet
342 283 m 1,0,-1
 77 283 l 1,1,-1
 77 340 l 1,2,-1
 342 340 l 1,3,-1
 342 283 l 1,0,-1
EndSplineSet
EndChar

StartChar: registered
Encoding: 174 174 113
Width: 552
GlyphClass: 1
Flags: W
LayerCount: 2
Fore
SplineSet
495 490 m 0,0,1
 495 399 495 399 431 335 c 128,-1,2
 367 271 367 271 276 271 c 256,3,4
 185 271 185 271 121 335 c 128,-1,5
 57 399 57 399 57 490 c 256,6,7
 57 581 57 581 121 645.5 c 128,-1,8
 185 710 185 710 276 710 c 256,9,10
 367 710 367 710 431 646 c 128,-1,11
 495 582 495 582 495 490 c 0,0,1
460 490 m 0,12,13
 460 567 460 567 406 621.5 c 128,-1,14
 352 676 352 676 276 676 c 256,15,16
 200 676 200 676 146 621.5 c 128,-1,17
 92 567 92 567 92 490 c 0,18,19
 92 414 92 414 146 360 c 128,-1,20
 200 306 200 306 276 306 c 0,21,22
 353 306 353 306 406.5 360 c 128,-1,23
 460 414 460 414 460 490 c 0,12,13
279 489 m 2,24,25
 304 489 304 489 316.5 498.5 c 128,-1,26
 329 508 329 508 329 527 c 256,27,28
 329 546 329 546 316.5 556 c 128,-1,29
 304 566 304 566 279 566 c 2,30,-1
 235 566 l 1,31,-1
 235 489 l 1,32,-1
 279 489 l 2,24,25
361 385 m 1,33,-1
 321 385 l 1,34,-1
 291 458 l 1,35,-1
 235 458 l 1,36,-1
 235 385 l 1,37,-1
 198 385 l 1,38,-1
 198 597 l 1,39,-1
 284 597 l 2,40,41
 325 597 325 597 346 579 c 128,-1,42
 367 561 367 561 367 528 c 0,43,44
 367 505 367 505 357 489 c 128,-1,45
 347 473 347 473 327 465 c 1,46,-1
 361 385 l 1,33,-1
EndSplineSet
EndChar

StartChar: macron
Encoding: 175 175 114
Width: 500
GlyphClass: 1
Flags: W
LayerCount: 2
Fore
SplineSet
368 641 m 1,0,-1
 131 641 l 1,1,-1
 131 681 l 1,2,-1
 368 681 l 1,3,-1
 368 641 l 1,0,-1
EndSplineSet
EndChar

StartChar: degree
Encoding: 176 176 115
Width: 372
GlyphClass: 1
Flags: W
LayerCount: 2
Fore
SplineSet
56 580 m 256,0,1
 56 634 56 634 93.5 672.5 c 128,-1,2
 131 711 131 711 185 711 c 0,3,4
 240 711 240 711 278 673 c 128,-1,5
 316 635 316 635 316 580 c 0,6,7
 316 526 316 526 277.5 487.5 c 128,-1,8
 239 449 239 449 185 449 c 0,9,10
 132 449 132 449 94 487.5 c 128,-1,11
 56 526 56 526 56 580 c 256,0,1
93 580 m 256,12,13
 93 541 93 541 120 513.5 c 128,-1,14
 147 486 147 486 185 486 c 0,15,16
 224 486 224 486 251.5 513.5 c 128,-1,17
 279 541 279 541 279 580 c 256,18,19
 279 619 279 619 251.5 646.5 c 128,-1,20
 224 674 224 674 185 674 c 0,21,22
 147 674 147 674 120 646.5 c 128,-1,23
 93 619 93 619 93 580 c 256,12,13
EndSplineSet
EndChar

StartChar: plusminus
Encoding: 177 177 116
Width: 583
GlyphClass: 1
Flags: W
LayerCount: 2
Fore
SplineSet
86 456 m 1,0,-1
 264 456 l 1,1,-1
 264 626 l 1,2,-1
 317 626 l 1,3,-1
 317 456 l 1,4,-1
 497 456 l 1,5,-1
 497 405 l 1,6,-1
 317 405 l 1,7,-1
 317 234 l 1,8,-1
 264 234 l 1,9,-1
 264 405 l 1,10,-1
 86 405 l 1,11,-1
 86 456 l 1,0,-1
86 88 m 1,12,-1
 86 139 l 1,13,-1
 497 139 l 1,14,-1
 497 88 l 1,15,-1
 86 88 l 1,12,-1
EndSplineSet
EndChar

StartChar: acute
Encoding: 180 180 119
Width: 500
GlyphClass: 1
Flags: W
LayerCount: 2
Fore
SplineSet
178 597 m 1,0,-1
 257 736 l 1,1,-1
 323 736 l 1,2,-1
 228 597 l 1,3,-1
 178 597 l 1,0,-1
EndSplineSet
EndChar

StartChar: mu
Encoding: 181 181 120
Width: 602
GlyphClass: 1
Flags: W
LayerCount: 2
Fore
SplineSet
452 85 m 1,0,1
 430 39 430 39 385.5 14 c 128,-1,2
 341 -11 341 -11 280 -11 c 0,3,4
 238 -11 238 -11 204 4 c 128,-1,5
 170 19 170 19 147 48 c 1,6,-1
 153 -180 l 1,7,-1
 94 -180 l 1,8,-1
 94 525 l 1,9,-1
 153 525 l 1,10,-1
 153 190 l 2,11,12
 153 123 153 123 190.5 82.5 c 128,-1,13
 228 42 228 42 296 42 c 0,14,15
 369 42 369 42 409 86 c 128,-1,16
 449 130 449 130 449 206 c 2,17,-1
 449 525 l 1,18,-1
 508 525 l 1,19,-1
 508 0 l 1,20,-1
 456 0 l 1,21,-1
 452 85 l 1,0,1
EndSplineSet
EndChar

StartChar: paragraph
Encoding: 182 182 121
Width: 482
GlyphClass: 1
Flags: W
LayerCount: 2
Fore
SplineSet
382 700 m 1,0,-1
 382 0 l 1,1,-1
 321 0 l 1,2,-1
 321 289 l 1,3,-1
 276 289 l 2,4,5
 159 289 159 289 100.5 340 c 128,-1,6
 42 391 42 391 42 494 c 0,7,8
 42 598 42 598 100.5 649 c 128,-1,9
 159 700 159 700 276 700 c 2,10,-1
 382 700 l 1,0,-1
EndSplineSet
EndChar

StartChar: cedilla
Encoding: 184 184 123
Width: 500
GlyphClass: 1
Flags: W
LayerCount: 2
Fore
SplineSet
261 -130 m 0,0,1
 261 -111 261 -111 250 -101.5 c 128,-1,2
 239 -92 239 -92 218 -92 c 0,3,4
 209 -92 209 -92 200 -94.5 c 128,-1,5
 191 -97 191 -97 174 -105 c 1,6,-1
 145 -88 l 1,7,-1
 198 10 l 1,8,-1
 238 10 l 1,9,-1
 200 -60 l 1,10,11
 206 -57 206 -57 213 -56 c 128,-1,12
 220 -55 220 -55 228 -55 c 0,13,14
 264 -55 264 -55 284.5 -75.5 c 128,-1,15
 305 -96 305 -96 305 -129 c 0,16,17
 305 -165 305 -165 282.5 -186.5 c 128,-1,18
 260 -208 260 -208 220 -208 c 256,19,20
 180 -208 180 -208 159 -192.5 c 128,-1,21
 138 -177 138 -177 138 -149 c 2,22,-1
 138 -139 l 1,23,-1
 176 -139 l 1,24,-1
 176 -146 l 2,25,26
 176 -158 176 -158 186.5 -164 c 128,-1,27
 197 -170 197 -170 219 -170 c 0,28,29
 240 -170 240 -170 250.5 -160 c 128,-1,30
 261 -150 261 -150 261 -130 c 0,0,1
EndSplineSet
EndChar

StartChar: ordmasculine
Encoding: 186 186 125
Width: 419
GlyphClass: 1
Flags: W
LayerCount: 2
Fore
SplineSet
354 481 m 2,0,1
 354 418 354 418 316 381.5 c 128,-1,2
 278 345 278 345 209 345 c 256,3,4
 140 345 140 345 102.5 381.5 c 128,-1,5
 65 418 65 418 65 481 c 2,6,-1
 65 571 l 2,7,8
 65 633 65 633 102.5 669.5 c 128,-1,9
 140 706 140 706 209 706 c 256,10,11
 278 706 278 706 316 669.5 c 128,-1,12
 354 633 354 633 354 571 c 2,13,-1
 354 481 l 2,0,1
115 480 m 2,14,15
 115 437 115 437 139.5 412 c 128,-1,16
 164 387 164 387 209 387 c 256,17,18
 254 387 254 387 278 412 c 128,-1,19
 302 437 302 437 302 480 c 2,20,-1
 302 571 l 2,21,22
 302 615 302 615 278 640 c 128,-1,23
 254 665 254 665 209 665 c 256,24,25
 164 665 164 665 139.5 639.5 c 128,-1,26
 115 614 115 614 115 571 c 2,27,-1
 115 480 l 2,14,15
EndSplineSet
EndChar

StartChar: questiondown
Encoding: 191 191 130
Width: 554
GlyphClass: 1
Flags: W
LayerCount: 2
Fore
SplineSet
313 447 m 1,0,-1
 246 447 l 1,1,-1
 246 525 l 1,2,-1
 313 525 l 1,3,-1
 313 447 l 1,0,-1
157 185 m 0,4,5
 218 220 218 220 233.5 241.5 c 128,-1,6
 249 263 249 263 249 294 c 2,7,-1
 249 366 l 1,8,-1
 310 366 l 1,9,-1
 310 292 l 2,10,11
 310 249 310 249 289 219.5 c 128,-1,12
 268 190 268 190 203 154 c 0,13,14
 141 121 141 121 121 90.5 c 128,-1,15
 101 60 101 60 101 10 c 0,16,17
 101 -61 101 -61 144.5 -97 c 128,-1,18
 188 -133 188 -133 275 -133 c 0,19,20
 367 -133 367 -133 411.5 -98.5 c 128,-1,21
 456 -64 456 -64 456 9 c 2,22,-1
 456 39 l 1,23,-1
 517 39 l 1,24,-1
 517 6 l 2,25,26
 517 -89 517 -89 456 -137.5 c 128,-1,27
 395 -186 395 -186 275 -186 c 0,28,29
 160 -186 160 -186 100 -137 c 128,-1,30
 40 -88 40 -88 40 5 c 0,31,32
 40 67 40 67 65 107 c 128,-1,33
 90 147 90 147 157 185 c 0,4,5
EndSplineSet
EndChar

StartChar: AE
Encoding: 198 198 137
Width: 977
GlyphClass: 1
Flags: W
LayerCount: 2
Fore
SplineSet
467 647 m 1,0,-1
 228 261 l 1,1,-1
 470 261 l 1,2,-1
 470 647 l 1,3,-1
 467 647 l 1,0,-1
922 53 m 1,4,-1
 922 0 l 1,5,-1
 470 0 l 1,6,-1
 470 211 l 1,7,-1
 197 211 l 1,8,-1
 66 0 l 1,9,-1
 3 0 l 1,10,-1
 443 700 l 1,11,-1
 905 700 l 1,12,-1
 905 647 l 1,13,-1
 532 647 l 1,14,-1
 532 392 l 1,15,-1
 890 392 l 1,16,-1
 890 341 l 1,17,-1
 532 341 l 1,18,-1
 532 53 l 1,19,-1
 922 53 l 1,4,-1
EndSplineSet
EndChar

StartChar: Ccedilla
Encoding: 199 199 138
Width: 626
GlyphClass: 1
Flags: W
LayerCount: 2
Fore
SplineSet
336 -55 m 0,0,1
 372 -55 372 -55 392.5 -75.5 c 128,-1,2
 413 -96 413 -96 413 -129 c 0,3,4
 413 -165 413 -165 390.5 -186.5 c 128,-1,5
 368 -208 368 -208 328 -208 c 256,6,7
 288 -208 288 -208 267 -192.5 c 128,-1,8
 246 -177 246 -177 246 -149 c 2,9,-1
 246 -139 l 1,10,-1
 284 -139 l 1,11,-1
 284 -146 l 2,12,13
 284 -158 284 -158 294.5 -164 c 128,-1,14
 305 -170 305 -170 327 -170 c 0,15,16
 348 -170 348 -170 358.5 -160 c 128,-1,17
 369 -150 369 -150 369 -130 c 0,18,19
 369 -111 369 -111 358 -101.5 c 128,-1,20
 347 -92 347 -92 326 -92 c 0,21,22
 317 -92 317 -92 308 -94.5 c 128,-1,23
 299 -97 299 -97 282 -105 c 1,24,-1
 253 -88 l 1,25,-1
 295 -10 l 1,26,27
 190 -1 190 -1 132.5 64 c 128,-1,28
 75 129 75 129 75 232 c 2,29,-1
 75 469 l 2,30,31
 75 580 75 580 141.5 645.5 c 128,-1,32
 208 711 208 711 328 711 c 0,33,34
 445 711 445 711 509.5 658.5 c 128,-1,35
 574 606 574 606 574 517 c 2,36,-1
 574 500 l 1,37,-1
 513 500 l 1,38,-1
 513 514 l 2,39,40
 513 578 513 578 464 617 c 128,-1,41
 415 656 415 656 328 656 c 0,42,43
 237 656 237 656 186.5 605 c 128,-1,44
 136 554 136 554 136 469 c 2,45,-1
 136 232 l 2,46,47
 136 146 136 146 186.5 95 c 128,-1,48
 237 44 237 44 328 44 c 0,49,50
 416 44 416 44 464.5 85 c 128,-1,51
 513 126 513 126 513 194 c 2,52,-1
 513 209 l 1,53,-1
 574 209 l 1,54,-1
 574 191 l 2,55,56
 574 99 574 99 511 44 c 128,-1,57
 448 -11 448 -11 335 -11 c 1,58,-1
 308 -60 l 1,59,60
 314 -57 314 -57 321 -56 c 128,-1,61
 328 -55 328 -55 336 -55 c 0,0,1
EndSplineSet
EndChar

StartChar: Eth
Encoding: 208 208 147
Width: 685
GlyphClass: 1
Flags: W
LayerCount: 2
Fore
SplineSet
612 242 m 2,0,1
 612 131 612 131 545.5 65.5 c 128,-1,2
 479 0 479 0 358 0 c 2,3,-1
 97 0 l 1,4,-1
 97 344 l 1,5,-1
 36 344 l 1,6,-1
 36 390 l 1,7,-1
 97 390 l 1,8,-1
 97 700 l 1,9,-1
 358 700 l 2,10,11
 479 700 479 700 545.5 634.5 c 128,-1,12
 612 569 612 569 612 458 c 2,13,-1
 612 242 l 2,0,1
276 344 m 1,14,-1
 160 344 l 1,15,-1
 160 55 l 1,16,-1
 358 55 l 2,17,18
 449 55 449 55 499 106 c 128,-1,19
 549 157 549 157 549 245 c 2,20,-1
 549 455 l 2,21,22
 549 543 549 543 499 594 c 128,-1,23
 449 645 449 645 358 645 c 2,24,-1
 160 645 l 1,25,-1
 160 390 l 1,26,-1
 276 390 l 1,27,-1
 276 344 l 1,14,-1
EndSplineSet
EndChar

StartChar: multiply
Encoding: 215 215 154
Width: 474
GlyphClass: 1
Flags: W
LayerCount: 2
Fore
SplineSet
274 331 m 1,0,-1
 401 205 l 1,1,-1
 363 167 l 1,2,-1
 236 293 l 1,3,-1
 110 168 l 1,4,-1
 72 206 l 1,5,-1
 199 331 l 1,6,-1
 72 458 l 1,7,-1
 110 496 l 1,8,-1
 236 369 l 1,9,-1
 364 496 l 1,10,-1
 402 459 l 1,11,-1
 274 331 l 1,0,-1
EndSplineSet
EndChar

StartChar: Oslash
Encoding: 216 216 155
Width: 658
GlyphClass: 1
Flags: W
LayerCount: 2
Fore
SplineSet
328 656 m 0,0,1
 237 656 237 656 186.5 604 c 128,-1,2
 136 552 136 552 136 465 c 2,3,-1
 136 235 l 2,4,5
 136 197 136 197 146.5 164 c 128,-1,6
 157 131 157 131 177 106 c 1,7,-1
 445 626 l 1,8,9
 422 641 422 641 393 648.5 c 128,-1,10
 364 656 364 656 328 656 c 0,0,1
213 74 m 1,11,12
 236 59 236 59 265 51.5 c 128,-1,13
 294 44 294 44 328 44 c 0,14,15
 420 44 420 44 471 95.5 c 128,-1,16
 522 147 522 147 522 235 c 2,17,-1
 522 465 l 2,18,19
 522 503 522 503 511.5 536 c 128,-1,20
 501 569 501 569 481 594 c 1,21,-1
 213 74 l 1,11,12
583 232 m 2,22,23
 583 119 583 119 516.5 54 c 128,-1,24
 450 -11 450 -11 328 -11 c 0,25,26
 287 -11 287 -11 251.5 -3 c 128,-1,27
 216 5 216 5 187 21 c 1,28,-1
 163 -23 l 1,29,-1
 106 -23 l 1,30,-1
 146 50 l 1,31,32
 111 83 111 83 93 129.5 c 128,-1,33
 75 176 75 176 75 232 c 2,34,-1
 75 469 l 2,35,36
 75 580 75 580 141.5 645.5 c 128,-1,37
 208 711 208 711 328 711 c 0,38,39
 371 711 371 711 406.5 703 c 128,-1,40
 442 695 442 695 471 679 c 1,41,-1
 495 723 l 1,42,-1
 552 723 l 1,43,-1
 513 649 l 1,44,45
 547 617 547 617 565 571 c 128,-1,46
 583 525 583 525 583 469 c 2,47,-1
 583 232 l 2,22,23
EndSplineSet
EndChar

StartChar: Thorn
Encoding: 222 222 161
Width: 647
GlyphClass: 1
Flags: W
LayerCount: 2
Fore
SplineSet
345 542 m 2,0,1
 471 542 471 542 535 486.5 c 128,-1,2
 599 431 599 431 599 322 c 0,3,4
 599 214 599 214 535 158.5 c 128,-1,5
 471 103 471 103 345 103 c 2,6,-1
 157 103 l 1,7,-1
 157 0 l 1,8,-1
 94 0 l 1,9,-1
 94 700 l 1,10,-1
 157 700 l 1,11,-1
 157 542 l 1,12,-1
 345 542 l 2,0,1
345 156 m 2,13,14
 440 156 440 156 488 197.5 c 128,-1,15
 536 239 536 239 536 322 c 256,16,17
 536 405 536 405 488 446.5 c 128,-1,18
 440 488 440 488 345 488 c 2,19,-1
 157 488 l 1,20,-1
 157 156 l 1,21,-1
 345 156 l 2,13,14
EndSplineSet
EndChar

StartChar: germandbls
Encoding: 223 223 162
Width: 580
GlyphClass: 1
Flags: W
LayerCount: 2
Fore
SplineSet
430 557 m 0,0,1
 430 622 430 622 393 657 c 128,-1,2
 356 692 356 692 286 692 c 0,3,4
 215 692 215 692 178.5 652.5 c 128,-1,5
 142 613 142 613 142 539 c 2,6,-1
 142 0 l 1,7,-1
 83 0 l 1,8,-1
 83 538 l 2,9,10
 83 634 83 634 136 687.5 c 128,-1,11
 189 741 189 741 288 741 c 0,12,13
 386 741 386 741 437.5 694.5 c 128,-1,14
 489 648 489 648 489 562 c 0,15,16
 489 499 489 499 460 458.5 c 128,-1,17
 431 418 431 418 372 400 c 1,18,19
 448 383 448 383 486.5 335.5 c 128,-1,20
 525 288 525 288 525 211 c 0,21,22
 525 108 525 108 461.5 54 c 128,-1,23
 398 0 398 0 274 0 c 2,24,-1
 243 0 l 1,25,-1
 243 49 l 1,26,-1
 274 49 l 2,27,28
 369 49 369 49 416.5 89.5 c 128,-1,29
 464 130 464 130 464 212 c 0,30,31
 464 292 464 292 415.5 333 c 128,-1,32
 367 374 367 374 271 374 c 2,33,-1
 243 374 l 1,34,-1
 243 421 l 1,35,-1
 261 421 l 2,36,37
 345 421 345 421 387.5 455 c 128,-1,38
 430 489 430 489 430 557 c 0,0,1
EndSplineSet
EndChar

StartChar: ae
Encoding: 230 230 169
Width: 887
GlyphClass: 1
Flags: W
LayerCount: 2
Fore
SplineSet
769 158 m 1,0,-1
 825 158 l 1,1,-1
 825 147 l 2,2,3
 825 75 825 75 772 32 c 128,-1,4
 719 -11 719 -11 623 -11 c 0,5,6
 547 -11 547 -11 497.5 22 c 128,-1,7
 448 55 448 55 429 115 c 1,8,9
 418 52 418 52 369 20.5 c 128,-1,10
 320 -11 320 -11 234 -11 c 0,11,12
 145 -11 145 -11 100 29 c 128,-1,13
 55 69 55 69 55 148 c 0,14,15
 55 224 55 224 102.5 262 c 128,-1,16
 150 300 150 300 246 300 c 2,17,-1
 409 300 l 1,18,-1
 409 352 l 2,19,20
 409 417 409 417 372.5 453 c 128,-1,21
 336 489 336 489 267 489 c 256,22,23
 198 489 198 489 158.5 462 c 128,-1,24
 119 435 119 435 119 391 c 2,25,-1
 119 383 l 1,26,-1
 63 383 l 1,27,-1
 63 391 l 2,28,29
 63 457 63 457 117 496.5 c 128,-1,30
 171 536 171 536 266 536 c 0,31,32
 333 536 333 536 378 509.5 c 128,-1,33
 423 483 423 483 441 433 c 1,34,35
 466 483 466 483 512 509.5 c 128,-1,36
 558 536 558 536 622 536 c 0,37,38
 720 536 720 536 774 479.5 c 128,-1,39
 828 423 828 423 828 329 c 2,40,-1
 828 253 l 1,41,-1
 468 253 l 1,42,-1
 468 182 l 2,43,44
 468 116 468 116 508 77 c 128,-1,45
 548 38 548 38 620 38 c 0,46,47
 691 38 691 38 730 68.5 c 128,-1,48
 769 99 769 99 769 149 c 2,49,-1
 769 158 l 1,0,-1
770 339 m 2,50,51
 770 407 770 407 730 448 c 128,-1,52
 690 489 690 489 619 489 c 0,53,54
 547 489 547 489 507.5 448 c 128,-1,55
 468 407 468 407 468 339 c 2,56,-1
 468 300 l 1,57,-1
 770 300 l 1,58,-1
 770 339 l 2,50,51
253 253 m 2,59,60
 183 253 183 253 149 227.5 c 128,-1,61
 115 202 115 202 115 149 c 0,62,63
 115 93 115 93 148 65.5 c 128,-1,64
 181 38 181 38 247 38 c 0,65,66
 328 38 328 38 368.5 75 c 128,-1,67
 409 112 409 112 409 186 c 2,68,-1
 409 253 l 1,69,-1
 253 253 l 2,59,60
EndSplineSet
EndChar

StartChar: ccedilla
Encoding: 231 231 170
Width: 535
GlyphClass: 1
Flags: W
LayerCount: 2
Fore
SplineSet
281 -55 m 0,0,1
 317 -55 317 -55 337.5 -75.5 c 128,-1,2
 358 -96 358 -96 358 -129 c 0,3,4
 358 -165 358 -165 335.5 -186.5 c 128,-1,5
 313 -208 313 -208 273 -208 c 256,6,7
 233 -208 233 -208 212 -192.5 c 128,-1,8
 191 -177 191 -177 191 -149 c 2,9,-1
 191 -139 l 1,10,-1
 229 -139 l 1,11,-1
 229 -146 l 2,12,13
 229 -158 229 -158 239.5 -164 c 128,-1,14
 250 -170 250 -170 272 -170 c 0,15,16
 293 -170 293 -170 303.5 -160 c 128,-1,17
 314 -150 314 -150 314 -130 c 0,18,19
 314 -111 314 -111 303 -101.5 c 128,-1,20
 292 -92 292 -92 271 -92 c 0,21,22
 262 -92 262 -92 253 -94.5 c 128,-1,23
 244 -97 244 -97 227 -105 c 1,24,-1
 198 -88 l 1,25,-1
 241 -9 l 1,26,27
 157 1 157 1 110.5 55.5 c 128,-1,28
 64 110 64 110 64 194 c 2,29,-1
 64 332 l 2,30,31
 64 425 64 425 120.5 480.5 c 128,-1,32
 177 536 177 536 278 536 c 0,33,34
 374 536 374 536 428 487.5 c 128,-1,35
 482 439 482 439 482 360 c 2,36,-1
 482 350 l 1,37,-1
 424 350 l 1,38,-1
 424 360 l 2,39,40
 424 416 424 416 385 451 c 128,-1,41
 346 486 346 486 278 486 c 0,42,43
 204 486 204 486 163.5 444 c 128,-1,44
 123 402 123 402 123 332 c 2,45,-1
 123 194 l 2,46,47
 123 124 123 124 163.5 82 c 128,-1,48
 204 40 204 40 278 40 c 0,49,50
 346 40 346 40 385 75 c 128,-1,51
 424 110 424 110 424 166 c 2,52,-1
 424 176 l 1,53,-1
 483 176 l 1,54,-1
 483 166 l 2,55,56
 483 87 483 87 429 38 c 128,-1,57
 375 -11 375 -11 280 -11 c 1,58,-1
 253 -60 l 1,59,60
 259 -57 259 -57 266 -56 c 128,-1,61
 273 -55 273 -55 281 -55 c 0,0,1
EndSplineSet
EndChar

StartChar: eth
Encoding: 240 240 179
Width: 559
GlyphClass: 1
Flags: W
LayerCount: 2
Fore
SplineSet
439 535 m 0,0,1
 463 485 463 485 475.5 435.5 c 128,-1,2
 488 386 488 386 488 336 c 2,3,-1
 488 194 l 2,4,5
 488 97 488 97 433.5 43.5 c 128,-1,6
 379 -10 379 -10 276 -10 c 256,7,8
 173 -10 173 -10 118.5 44 c 128,-1,9
 64 98 64 98 64 194 c 2,10,-1
 64 332 l 2,11,12
 64 423 64 423 118.5 478 c 128,-1,13
 173 533 173 533 270 533 c 0,14,15
 314 533 314 533 348.5 518 c 128,-1,16
 383 503 383 503 408 473 c 1,17,18
 399 495 399 495 394.5 506.5 c 128,-1,19
 390 518 390 518 385 527 c 0,20,21
 374 549 374 549 359.5 572 c 128,-1,22
 345 595 345 595 328 618 c 1,23,-1
 234 577 l 1,24,-1
 217 615 l 1,25,-1
 302 652 l 1,26,27
 283 675 283 675 265 694 c 128,-1,28
 247 713 247 713 229 730 c 1,29,-1
 297 730 l 1,30,31
 309 718 309 718 322.5 703.5 c 128,-1,32
 336 689 336 689 350 672 c 1,33,-1
 437 710 l 1,34,-1
 453 673 l 1,35,-1
 376 638 l 1,36,37
 397 611 397 611 412.5 585.5 c 128,-1,38
 428 560 428 560 439 535 c 0,0,1
123 193 m 2,39,40
 123 120 123 120 162.5 80 c 128,-1,41
 202 40 202 40 276 40 c 256,42,43
 350 40 350 40 389.5 80 c 128,-1,44
 429 120 429 120 429 193 c 2,45,-1
 429 332 l 2,46,47
 429 404 429 404 389.5 445 c 128,-1,48
 350 486 350 486 276 486 c 0,49,50
 204 486 204 486 163.5 444 c 128,-1,51
 123 402 123 402 123 332 c 2,52,-1
 123 193 l 2,39,40
EndSplineSet
EndChar

StartChar: divide
Encoding: 247 247 186
Width: 563
GlyphClass: 1
Flags: W
LayerCount: 2
Fore
SplineSet
248 553 m 1,0,-1
 314 553 l 1,1,-1
 314 484 l 1,2,-1
 248 484 l 1,3,-1
 248 553 l 1,0,-1
76 358 m 1,4,-1
 487 358 l 1,5,-1
 487 305 l 1,6,-1
 76 305 l 1,7,-1
 76 358 l 1,4,-1
248 179 m 1,8,-1
 314 179 l 1,9,-1
 314 110 l 1,10,-1
 248 110 l 1,11,-1
 248 179 l 1,8,-1
EndSplineSet
EndChar

StartChar: oslash
Encoding: 248 248 187
Width: 552
GlyphClass: 1
Flags: W
LayerCount: 2
Fore
SplineSet
276 486 m 0,0,1
 204 486 204 486 163.5 444 c 128,-1,2
 123 402 123 402 123 332 c 2,3,-1
 123 193 l 2,4,5
 123 166 123 166 130 141 c 128,-1,6
 137 116 137 116 151 96 c 1,7,-1
 370 460 l 1,8,9
 351 473 351 473 327.5 479.5 c 128,-1,10
 304 486 304 486 276 486 c 0,0,1
182 65 m 1,11,12
 201 52 201 52 224.5 45.5 c 128,-1,13
 248 39 248 39 276 39 c 0,14,15
 348 39 348 39 388.5 81.5 c 128,-1,16
 429 124 429 124 429 193 c 2,17,-1
 429 332 l 2,18,19
 429 360 429 360 422 385 c 128,-1,20
 415 410 415 410 401 430 c 1,21,-1
 182 65 l 1,11,12
488 194 m 2,22,23
 488 100 488 100 432.5 44.5 c 128,-1,24
 377 -11 377 -11 276 -11 c 0,25,26
 240 -11 240 -11 210 -4 c 128,-1,27
 180 3 180 3 155 18 c 1,28,-1
 127 -29 l 1,29,-1
 72 -29 l 1,30,-1
 118 46 l 1,31,32
 92 73 92 73 78 111 c 128,-1,33
 64 149 64 149 64 194 c 2,34,-1
 64 332 l 2,35,36
 64 425 64 425 119.5 480.5 c 128,-1,37
 175 536 175 536 276 536 c 0,38,39
 311 536 311 536 341.5 529 c 128,-1,40
 372 522 372 522 396 508 c 1,41,-1
 427 558 l 1,42,-1
 481 558 l 1,43,-1
 434 479 l 1,44,45
 460 453 460 453 474 415 c 128,-1,46
 488 377 488 377 488 332 c 2,47,-1
 488 194 l 2,22,23
EndSplineSet
EndChar

StartChar: thorn
Encoding: 254 254 193
Width: 571
GlyphClass: 1
Flags: W
LayerCount: 2
Fore
SplineSet
142 206 m 2,0,1
 142 128 142 128 182.5 85 c 128,-1,2
 223 42 223 42 299 42 c 0,3,4
 372 42 372 42 409.5 82.5 c 128,-1,5
 447 123 447 123 447 202 c 2,6,-1
 447 322 l 2,7,8
 447 400 447 400 409.5 441.5 c 128,-1,9
 372 483 372 483 299 483 c 0,10,11
 223 483 223 483 182.5 440 c 128,-1,12
 142 397 142 397 142 320 c 2,13,-1
 142 206 l 2,0,1
506 191 m 2,14,15
 506 99 506 99 454.5 44 c 128,-1,16
 403 -11 403 -11 313 -11 c 0,17,18
 252 -11 252 -11 208 11.5 c 128,-1,19
 164 34 164 34 142 76 c 1,20,-1
 142 -164 l 1,21,-1
 83 -164 l 1,22,-1
 83 730 l 1,23,-1
 142 730 l 1,24,-1
 142 446 l 1,25,26
 164 489 164 489 208.5 512.5 c 128,-1,27
 253 536 253 536 315 536 c 0,28,29
 404 536 404 536 455 481 c 128,-1,30
 506 426 506 426 506 334 c 2,31,-1
 506 191 l 2,14,15
EndSplineSet
EndChar

StartChar: Aogonek
Encoding: 260 260 199
Width: 615
GlyphClass: 1
Flags: W
LayerCount: 2
Fore
SplineSet
538 -137 m 0,0,1
 547 -137 547 -137 557 -135.5 c 128,-1,2
 567 -134 567 -134 581 -131 c 1,3,-1
 581 -168 l 1,4,5
 568 -174 568 -174 553.5 -177 c 128,-1,6
 539 -180 539 -180 524 -180 c 0,7,8
 482 -180 482 -180 455 -157 c 128,-1,9
 428 -134 428 -134 428 -100 c 0,10,11
 428 -68 428 -68 450.5 -40.5 c 128,-1,12
 473 -13 473 -13 522 13 c 1,13,-1
 452 211 l 1,14,-1
 161 211 l 1,15,-1
 86 0 l 1,16,-1
 24 0 l 1,17,-1
 277 700 l 1,18,-1
 339 700 l 1,19,-1
 591 0 l 1,20,-1
 559 0 l 1,21,22
 516 -23 516 -23 497 -44 c 128,-1,23
 478 -65 478 -65 478 -88 c 0,24,25
 478 -110 478 -110 494.5 -123.5 c 128,-1,26
 511 -137 511 -137 538 -137 c 0,0,1
306 626 m 1,27,-1
 178 261 l 1,28,-1
 434 261 l 1,29,-1
 306 626 l 1,27,-1
EndSplineSet
EndChar

StartChar: aogonek
Encoding: 261 261 200
Width: 545
GlyphClass: 1
Flags: W
LayerCount: 2
Fore
SplineSet
425 -137 m 0,0,1
 434 -137 434 -137 444 -135.5 c 128,-1,2
 454 -134 454 -134 468 -131 c 1,3,-1
 468 -168 l 1,4,5
 455 -174 455 -174 440.5 -177 c 128,-1,6
 426 -180 426 -180 411 -180 c 0,7,8
 369 -180 369 -180 342 -157 c 128,-1,9
 315 -134 315 -134 315 -100 c 0,10,11
 315 -67 315 -67 339 -39 c 128,-1,12
 363 -11 363 -11 414 15 c 1,13,-1
 412 73 l 1,14,15
 391 31 391 31 345.5 10 c 128,-1,16
 300 -11 300 -11 231 -11 c 0,17,18
 143 -11 143 -11 98.5 29 c 128,-1,19
 54 69 54 69 54 147 c 256,20,21
 54 225 54 225 101 263.5 c 128,-1,22
 148 302 148 302 244 302 c 2,23,-1
 408 302 l 1,24,-1
 408 352 l 2,25,26
 408 417 408 417 372 452 c 128,-1,27
 336 487 336 487 267 487 c 0,28,29
 200 487 200 487 161.5 460.5 c 128,-1,30
 123 434 123 434 123 391 c 2,31,-1
 123 383 l 1,32,-1
 67 383 l 1,33,-1
 67 391 l 2,34,35
 67 456 67 456 120.5 496 c 128,-1,36
 174 536 174 536 268 536 c 0,37,38
 365 536 365 536 416 488 c 128,-1,39
 467 440 467 440 467 350 c 2,40,-1
 467 0 l 1,41,-1
 446 0 l 1,42,43
 403 -23 403 -23 384 -44 c 128,-1,44
 365 -65 365 -65 365 -88 c 0,45,46
 365 -110 365 -110 381.5 -123.5 c 128,-1,47
 398 -137 398 -137 425 -137 c 0,0,1
252 253 m 2,48,49
 181 253 181 253 147 227.5 c 128,-1,50
 113 202 113 202 113 148 c 0,51,52
 113 93 113 93 146 65.5 c 128,-1,53
 179 38 179 38 245 38 c 0,54,55
 326 38 326 38 367 75.5 c 128,-1,56
 408 113 408 113 408 186 c 2,57,-1
 408 253 l 1,58,-1
 252 253 l 2,48,49
EndSplineSet
EndChar

StartChar: Dcroat
Encoding: 272 272 211
Width: 685
GlyphClass: 1
Flags: W
LayerCount: 2
Fore
SplineSet
612 242 m 2,0,1
 612 131 612 131 545.5 65.5 c 128,-1,2
 479 0 479 0 358 0 c 2,3,-1
 97 0 l 1,4,-1
 97 344 l 1,5,-1
 36 344 l 1,6,-1
 36 390 l 1,7,-1
 97 390 l 1,8,-1
 97 700 l 1,9,-1
 358 700 l 2,10,11
 479 700 479 700 545.5 634.5 c 128,-1,12
 612 569 612 569 612 458 c 2,13,-1
 612 242 l 2,0,1
276 344 m 1,14,-1
 160 344 l 1,15,-1
 160 55 l 1,16,-1
 358 55 l 2,17,18
 449 55 449 55 499 106 c 128,-1,19
 549 157 549 157 549 245 c 2,20,-1
 549 455 l 2,21,22
 549 543 549 543 499 594 c 128,-1,23
 449 645 449 645 358 645 c 2,24,-1
 160 645 l 1,25,-1
 160 390 l 1,26,-1
 276 390 l 1,27,-1
 276 344 l 1,14,-1
EndSplineSet
EndChar

StartChar: dcroat
Encoding: 273 273 212
Width: 571
GlyphClass: 1
Flags: W
LayerCount: 2
Fore
SplineSet
124 203 m 2,0,1
 124 125 124 125 161.5 83.5 c 128,-1,2
 199 42 199 42 271 42 c 0,3,4
 347 42 347 42 388 85 c 128,-1,5
 429 128 429 128 429 206 c 2,6,-1
 429 320 l 2,7,8
 429 397 429 397 388 440 c 128,-1,9
 347 483 347 483 271 483 c 0,10,11
 199 483 199 483 161.5 442 c 128,-1,12
 124 401 124 401 124 323 c 2,13,-1
 124 203 l 2,0,1
488 0 m 1,14,-1
 436 0 l 1,15,-1
 432 84 l 1,16,17
 410 38 410 38 365 13.5 c 128,-1,18
 320 -11 320 -11 256 -11 c 0,19,20
 167 -11 167 -11 116 44 c 128,-1,21
 65 99 65 99 65 191 c 2,22,-1
 65 334 l 2,23,24
 65 426 65 426 116.5 481 c 128,-1,25
 168 536 168 536 258 536 c 0,26,27
 320 536 320 536 363.5 514 c 128,-1,28
 407 492 407 492 429 449 c 1,29,-1
 429 598 l 1,30,-1
 272 598 l 1,31,-1
 272 639 l 1,32,-1
 429 639 l 1,33,-1
 429 730 l 1,34,-1
 488 730 l 1,35,-1
 488 639 l 1,36,-1
 552 639 l 1,37,-1
 552 598 l 1,38,-1
 488 598 l 1,39,-1
 488 0 l 1,14,-1
EndSplineSet
EndChar

StartChar: Eogonek
Encoding: 280 280 219
Width: 598
GlyphClass: 1
Flags: W
LayerCount: 2
Fore
SplineSet
444 -137 m 0,0,1
 453 -137 453 -137 462.5 -135.5 c 128,-1,2
 472 -134 472 -134 486 -131 c 1,3,-1
 486 -168 l 1,4,5
 473 -174 473 -174 459 -177 c 128,-1,6
 445 -180 445 -180 430 -180 c 0,7,8
 388 -180 388 -180 361 -157 c 128,-1,9
 334 -134 334 -134 334 -100 c 0,10,11
 334 -72 334 -72 351.5 -47 c 128,-1,12
 369 -22 369 -22 405 0 c 1,13,-1
 94 0 l 1,14,-1
 94 700 l 1,15,-1
 526 700 l 1,16,-1
 526 647 l 1,17,-1
 157 647 l 1,18,-1
 157 392 l 1,19,-1
 511 392 l 1,20,-1
 511 341 l 1,21,-1
 157 341 l 1,22,-1
 157 53 l 1,23,-1
 544 53 l 1,24,-1
 544 0 l 1,25,-1
 464 0 l 1,26,27
 420 -24 420 -24 402 -44.5 c 128,-1,28
 384 -65 384 -65 384 -88 c 0,29,30
 384 -110 384 -110 400.5 -123.5 c 128,-1,31
 417 -137 417 -137 444 -137 c 0,0,1
EndSplineSet
EndChar

StartChar: eogonek
Encoding: 281 281 220
Width: 542
GlyphClass: 1
Flags: W
LayerCount: 2
Fore
SplineSet
396 -168 m 1,0,1
 383 -174 383 -174 368.5 -177 c 128,-1,2
 354 -180 354 -180 339 -180 c 0,3,4
 297 -180 297 -180 270 -157 c 128,-1,5
 243 -134 243 -134 243 -100 c 0,6,7
 243 -75 243 -75 256.5 -52 c 128,-1,8
 270 -29 270 -29 297 -10 c 1,9,10
 293 -11 293 -11 288.5 -11 c 128,-1,11
 284 -11 284 -11 275 -11 c 0,12,13
 174 -11 174 -11 119 42.5 c 128,-1,14
 64 96 64 96 64 187 c 2,15,-1
 64 332 l 2,16,17
 64 425 64 425 119.5 480.5 c 128,-1,18
 175 536 175 536 274 536 c 256,19,20
 373 536 373 536 428 480.5 c 128,-1,21
 483 425 483 425 483 332 c 2,22,-1
 483 251 l 1,23,-1
 122 251 l 1,24,-1
 122 182 l 2,25,26
 122 116 122 116 162 77 c 128,-1,27
 202 38 202 38 275 38 c 0,28,29
 345 38 345 38 384.5 68.5 c 128,-1,30
 424 99 424 99 424 149 c 2,31,-1
 424 158 l 1,32,-1
 480 158 l 1,33,-1
 480 147 l 2,34,35
 480 103 480 103 457.5 67.5 c 128,-1,36
 435 32 435 32 392 11 c 0,37,38
 339 -14 339 -14 316 -38 c 128,-1,39
 293 -62 293 -62 293 -88 c 0,40,41
 293 -110 293 -110 309.5 -123.5 c 128,-1,42
 326 -137 326 -137 353 -137 c 0,43,44
 362 -137 362 -137 372 -135.5 c 128,-1,45
 382 -134 382 -134 396 -131 c 1,46,-1
 396 -168 l 1,0,1
426 339 m 2,47,48
 426 406 426 406 386 447 c 128,-1,49
 346 488 346 488 274 488 c 256,50,51
 202 488 202 488 162 447 c 128,-1,52
 122 406 122 406 122 339 c 2,53,-1
 122 299 l 1,54,-1
 426 299 l 1,55,-1
 426 339 l 2,47,48
EndSplineSet
EndChar

StartChar: Hbar
Encoding: 294 294 233
Width: 699
GlyphClass: 1
Flags: W
LayerCount: 2
Fore
SplineSet
539 529 m 1,0,-1
 160 529 l 1,1,-1
 160 397 l 1,2,-1
 539 397 l 1,3,-1
 539 529 l 1,0,-1
539 0 m 1,4,-1
 539 343 l 1,5,-1
 160 343 l 1,6,-1
 160 0 l 1,7,-1
 97 0 l 1,8,-1
 97 529 l 1,9,-1
 36 529 l 1,10,-1
 36 572 l 1,11,-1
 97 572 l 1,12,-1
 97 700 l 1,13,-1
 160 700 l 1,14,-1
 160 572 l 1,15,-1
 539 572 l 1,16,-1
 539 700 l 1,17,-1
 601 700 l 1,18,-1
 601 572 l 1,19,-1
 663 572 l 1,20,-1
 663 529 l 1,21,-1
 601 529 l 1,22,-1
 601 0 l 1,23,-1
 539 0 l 1,4,-1
EndSplineSet
EndChar

StartChar: hbar
Encoding: 295 295 234
Width: 584
GlyphClass: 1
Flags: W
LayerCount: 2
Fore
SplineSet
446 330 m 2,0,1
 446 402 446 402 408 442.5 c 128,-1,2
 370 483 370 483 299 483 c 0,3,4
 224 483 224 483 183 439.5 c 128,-1,5
 142 396 142 396 142 320 c 2,6,-1
 142 0 l 1,7,-1
 83 0 l 1,8,-1
 83 598 l 1,9,-1
 19 598 l 1,10,-1
 19 639 l 1,11,-1
 83 639 l 1,12,-1
 83 730 l 1,13,-1
 142 730 l 1,14,-1
 142 639 l 1,15,-1
 299 639 l 1,16,-1
 299 598 l 1,17,-1
 142 598 l 1,18,-1
 142 445 l 1,19,20
 164 489 164 489 209 512.5 c 128,-1,21
 254 536 254 536 315 536 c 0,22,23
 404 536 404 536 455 483 c 128,-1,24
 506 430 506 430 506 342 c 2,25,-1
 506 0 l 1,26,-1
 446 0 l 1,27,-1
 446 330 l 2,0,1
EndSplineSet
EndChar

StartChar: Iogonek
Encoding: 302 302 239
Width: 256
GlyphClass: 1
Flags: W
LayerCount: 2
Fore
SplineSet
116 -137 m 0,0,1
 125 -137 125 -137 134.5 -135.5 c 128,-1,2
 144 -134 144 -134 158 -131 c 1,3,-1
 158 -168 l 1,4,5
 144 -174 144 -174 130.5 -177 c 128,-1,6
 117 -180 117 -180 102 -180 c 0,7,8
 59 -180 59 -180 32.5 -157 c 128,-1,9
 6 -134 6 -134 6 -100 c 0,10,11
 6 -68 6 -68 28 -41 c 128,-1,12
 50 -14 50 -14 97 11 c 1,13,-1
 97 700 l 1,14,-1
 159 700 l 1,15,-1
 159 0 l 1,16,-1
 136 0 l 1,17,18
 93 -23 93 -23 74 -44 c 128,-1,19
 55 -65 55 -65 55 -88 c 256,20,21
 55 -111 55 -111 71.5 -124 c 128,-1,22
 88 -137 88 -137 116 -137 c 0,0,1
EndSplineSet
EndChar

StartChar: iogonek
Encoding: 303 303 240
Width: 231
GlyphClass: 1
Flags: W
LayerCount: 2
Fore
SplineSet
84 730 m 1,0,-1
 147 730 l 1,1,-1
 147 640 l 1,2,-1
 84 640 l 1,3,-1
 84 730 l 1,0,-1
103 -137 m 0,4,5
 112 -137 112 -137 121.5 -135.5 c 128,-1,6
 131 -134 131 -134 145 -131 c 1,7,-1
 145 -168 l 1,8,9
 131 -174 131 -174 117.5 -177 c 128,-1,10
 104 -180 104 -180 89 -180 c 0,11,12
 46 -180 46 -180 19.5 -157 c 128,-1,13
 -7 -134 -7 -134 -7 -100 c 0,14,15
 -7 -68 -7 -68 15.5 -40.5 c 128,-1,16
 38 -13 38 -13 85 12 c 1,17,-1
 85 525 l 1,18,-1
 145 525 l 1,19,-1
 145 0 l 1,20,-1
 123 0 l 1,21,22
 80 -23 80 -23 61 -44 c 128,-1,23
 42 -65 42 -65 42 -88 c 256,24,25
 42 -111 42 -111 58.5 -124 c 128,-1,26
 75 -137 75 -137 103 -137 c 0,4,5
EndSplineSet
EndChar

StartChar: dotlessi
Encoding: 305 305 242
Width: 231
GlyphClass: 1
Flags: W
LayerCount: 2
Fore
SplineSet
85 525 m 1,0,-1
 145 525 l 1,1,-1
 145 0 l 1,2,-1
 85 0 l 1,3,-1
 85 525 l 1,0,-1
EndSplineSet
EndChar

StartChar: kgreenlandic
Encoding: 312 312 249
Width: 510
GlyphClass: 1
Flags: W
LayerCount: 2
Fore
SplineSet
268 310 m 1,0,-1
 499 0 l 1,1,-1
 427 0 l 1,2,-1
 228 270 l 1,3,-1
 142 183 l 1,4,-1
 142 0 l 1,5,-1
 83 0 l 1,6,-1
 83 525 l 1,7,-1
 142 525 l 1,8,-1
 142 257 l 1,9,-1
 406 525 l 1,10,-1
 479 525 l 1,11,-1
 268 310 l 1,0,-1
EndSplineSet
EndChar

StartChar: Lslash
Encoding: 321 321 258
Width: 578
GlyphClass: 1
Flags: W
LayerCount: 2
Fore
SplineSet
183 55 m 1,0,-1
 554 55 l 1,1,-1
 554 0 l 1,2,-1
 120 0 l 1,3,-1
 120 344 l 1,4,-1
 17 261 l 1,5,-1
 17 319 l 1,6,-1
 120 402 l 1,7,-1
 120 700 l 1,8,-1
 183 700 l 1,9,-1
 183 452 l 1,10,-1
 287 536 l 1,11,-1
 287 478 l 1,12,-1
 183 394 l 1,13,-1
 183 55 l 1,0,-1
EndSplineSet
EndChar

StartChar: lslash
Encoding: 322 322 259
Width: 274
GlyphClass: 1
Flags: W
LayerCount: 2
Fore
SplineSet
257 478 m 1,0,-1
 170 408 l 1,1,-1
 170 0 l 1,2,-1
 110 0 l 1,3,-1
 110 361 l 1,4,-1
 23 291 l 1,5,-1
 23 348 l 1,6,-1
 110 418 l 1,7,-1
 110 730 l 1,8,-1
 170 730 l 1,9,-1
 170 466 l 1,10,-1
 257 536 l 1,11,-1
 257 478 l 1,0,-1
EndSplineSet
EndChar

StartChar: OE
Encoding: 338 338 273
Width: 1029
GlyphClass: 1
Flags: W
LayerCount: 2
Fore
SplineSet
136 235 m 2,0,1
 136 148 136 148 186.5 96 c 128,-1,2
 237 44 237 44 328 44 c 0,3,4
 423 44 423 44 472.5 93.5 c 128,-1,5
 522 143 522 143 522 235 c 2,6,-1
 522 465 l 2,7,8
 522 553 522 553 471 604.5 c 128,-1,9
 420 656 420 656 328 656 c 0,10,11
 237 656 237 656 186.5 604 c 128,-1,12
 136 552 136 552 136 465 c 2,13,-1
 136 235 l 2,0,1
974 53 m 1,14,-1
 974 0 l 1,15,-1
 527 0 l 1,16,-1
 527 92 l 1,17,18
 499 41 499 41 448.5 15 c 128,-1,19
 398 -11 398 -11 326 -11 c 0,20,21
 206 -11 206 -11 140.5 54.5 c 128,-1,22
 75 120 75 120 75 232 c 2,23,-1
 75 469 l 2,24,25
 75 580 75 580 140.5 645.5 c 128,-1,26
 206 711 206 711 326 711 c 0,27,28
 397 711 397 711 448 684 c 128,-1,29
 499 657 499 657 527 605 c 1,30,-1
 527 700 l 1,31,-1
 957 700 l 1,32,-1
 957 647 l 1,33,-1
 583 647 l 1,34,-1
 583 392 l 1,35,-1
 942 392 l 1,36,-1
 942 341 l 1,37,-1
 583 341 l 1,38,-1
 583 53 l 1,39,-1
 974 53 l 1,14,-1
EndSplineSet
EndChar

StartChar: oe
Encoding: 339 339 274
Width: 908
GlyphClass: 1
Flags: W
LayerCount: 2
Fore
SplineSet
790 158 m 1,0,-1
 846 158 l 1,1,-1
 846 147 l 2,2,3
 846 75 846 75 792.5 32 c 128,-1,4
 739 -11 739 -11 642 -11 c 0,5,6
 573 -11 573 -11 526 18 c 128,-1,7
 479 47 479 47 458 103 c 1,8,9
 437 48 437 48 390 18.5 c 128,-1,10
 343 -11 343 -11 275 -11 c 0,11,12
 175 -11 175 -11 119.5 44.5 c 128,-1,13
 64 100 64 100 64 194 c 2,14,-1
 64 332 l 2,15,16
 64 425 64 425 119.5 480.5 c 128,-1,17
 175 536 175 536 275 536 c 0,18,19
 344 536 344 536 391 506 c 128,-1,20
 438 476 438 476 459 420 c 1,21,22
 480 476 480 476 527 506 c 128,-1,23
 574 536 574 536 642 536 c 0,24,25
 740 536 740 536 794.5 480 c 128,-1,26
 849 424 849 424 849 332 c 2,27,-1
 849 252 l 1,28,-1
 488 252 l 1,29,-1
 488 182 l 2,30,31
 488 116 488 116 528 76.5 c 128,-1,32
 568 37 568 37 640 37 c 0,33,34
 711 37 711 37 750.5 68 c 128,-1,35
 790 99 790 99 790 149 c 2,36,-1
 790 158 l 1,0,-1
791 339 m 2,37,38
 791 406 791 406 751 447 c 128,-1,39
 711 488 711 488 640 488 c 0,40,41
 568 488 568 488 528 447 c 128,-1,42
 488 406 488 406 488 339 c 2,43,-1
 488 299 l 1,44,-1
 791 299 l 1,45,-1
 791 339 l 2,37,38
123 193 m 2,46,47
 123 124 123 124 163.5 81.5 c 128,-1,48
 204 39 204 39 276 39 c 256,49,50
 348 39 348 39 388.5 81.5 c 128,-1,51
 429 124 429 124 429 193 c 2,52,-1
 429 332 l 2,53,54
 429 402 429 402 388.5 444 c 128,-1,55
 348 486 348 486 276 486 c 256,56,57
 204 486 204 486 163.5 444 c 128,-1,58
 123 402 123 402 123 332 c 2,59,-1
 123 193 l 2,46,47
EndSplineSet
EndChar

StartChar: Racute
Encoding: 340 340 275
Width: 654
GlyphClass: 1
Flags: W
LayerCount: 2
Fore
SplineSet
307 752 m 1,0,-1
 386 891 l 1,1,-1
 451 891 l 1,2,-1
 356 752 l 1,3,-1
 307 752 l 1,0,-1
345 330 m 2,4,5
 440 330 440 330 488 369.5 c 128,-1,6
 536 409 536 409 536 488 c 0,7,8
 536 568 536 568 488.5 607.5 c 128,-1,9
 441 647 441 647 345 647 c 2,10,-1
 157 647 l 1,11,-1
 157 330 l 1,12,-1
 345 330 l 2,4,5
389 280 m 1,13,14
 372 279 372 279 362.5 278.5 c 128,-1,15
 353 278 353 278 345 278 c 2,16,-1
 157 278 l 1,17,-1
 157 0 l 1,18,-1
 94 0 l 1,19,-1
 94 700 l 1,20,-1
 345 700 l 2,21,22
 471 700 471 700 535 646.5 c 128,-1,23
 599 593 599 593 599 489 c 0,24,25
 599 409 599 409 561.5 359 c 128,-1,26
 524 309 524 309 450 290 c 1,27,-1
 586 0 l 1,28,-1
 520 0 l 1,29,-1
 389 280 l 1,13,14
EndSplineSet
EndChar

StartChar: uni0156
Encoding: 342 342 277
Width: 654
GlyphClass: 1
Flags: W
LayerCount: 2
Fore
SplineSet
345 330 m 2,0,1
 440 330 440 330 488 369.5 c 128,-1,2
 536 409 536 409 536 488 c 0,3,4
 536 568 536 568 488.5 607.5 c 128,-1,5
 441 647 441 647 345 647 c 2,6,-1
 157 647 l 1,7,-1
 157 330 l 1,8,-1
 345 330 l 2,0,1
389 280 m 1,9,10
 372 279 372 279 362.5 278.5 c 128,-1,11
 353 278 353 278 345 278 c 2,12,-1
 157 278 l 1,13,-1
 157 0 l 1,14,-1
 94 0 l 1,15,-1
 94 700 l 1,16,-1
 345 700 l 2,17,18
 471 700 471 700 535 646.5 c 128,-1,19
 599 593 599 593 599 489 c 0,20,21
 599 409 599 409 561.5 359 c 128,-1,22
 524 309 524 309 450 290 c 1,23,-1
 586 0 l 1,24,-1
 520 0 l 1,25,-1
 389 280 l 1,9,10
277 -190 m 1,26,-1
 294 -60 l 1,27,-1
 352 -60 l 1,28,-1
 352 -75 l 1,29,-1
 321 -190 l 1,30,-1
 277 -190 l 1,26,-1
EndSplineSet
EndChar

StartChar: Rcaron
Encoding: 344 344 279
Width: 654
GlyphClass: 1
Flags: W
LayerCount: 2
Fore
SplineSet
214 891 m 1,0,-1
 262 891 l 1,1,-1
 332 784 l 1,2,-1
 333 784 l 1,3,-1
 403 891 l 1,4,-1
 451 891 l 1,5,-1
 362 752 l 1,6,-1
 303 752 l 1,7,-1
 214 891 l 1,0,-1
345 330 m 2,8,9
 440 330 440 330 488 369.5 c 128,-1,10
 536 409 536 409 536 488 c 0,11,12
 536 568 536 568 488.5 607.5 c 128,-1,13
 441 647 441 647 345 647 c 2,14,-1
 157 647 l 1,15,-1
 157 330 l 1,16,-1
 345 330 l 2,8,9
389 280 m 1,17,18
 372 279 372 279 362.5 278.5 c 128,-1,19
 353 278 353 278 345 278 c 2,20,-1
 157 278 l 1,21,-1
 157 0 l 1,22,-1
 94 0 l 1,23,-1
 94 700 l 1,24,-1
 345 700 l 2,25,26
 471 700 471 700 535 646.5 c 128,-1,27
 599 593 599 593 599 489 c 0,28,29
 599 409 599 409 561.5 359 c 128,-1,30
 524 309 524 309 450 290 c 1,31,-1
 586 0 l 1,32,-1
 520 0 l 1,33,-1
 389 280 l 1,17,18
EndSplineSet
EndChar

StartChar: Scedilla
Encoding: 350 350 285
Width: 621
GlyphClass: 1
Flags: W
LayerCount: 2
Fore
SplineSet
308 -55 m 0,0,1
 344 -55 344 -55 364.5 -75.5 c 128,-1,2
 385 -96 385 -96 385 -129 c 0,3,4
 385 -165 385 -165 362.5 -186.5 c 128,-1,5
 340 -208 340 -208 300 -208 c 256,6,7
 260 -208 260 -208 239 -192.5 c 128,-1,8
 218 -177 218 -177 218 -149 c 2,9,-1
 218 -139 l 1,10,-1
 256 -139 l 1,11,-1
 256 -146 l 2,12,13
 256 -158 256 -158 266.5 -164 c 128,-1,14
 277 -170 277 -170 299 -170 c 0,15,16
 320 -170 320 -170 330.5 -160 c 128,-1,17
 341 -150 341 -150 341 -130 c 0,18,19
 341 -111 341 -111 330 -101.5 c 128,-1,20
 319 -92 319 -92 298 -92 c 0,21,22
 289 -92 289 -92 280 -94.5 c 128,-1,23
 271 -97 271 -97 254 -105 c 1,24,-1
 225 -88 l 1,25,-1
 268 -9 l 1,26,27
 164 0 164 0 112 43 c 128,-1,28
 60 86 60 86 60 164 c 2,29,-1
 60 175 l 1,30,-1
 121 175 l 1,31,-1
 121 165 l 2,32,33
 121 102 121 102 170.5 72.5 c 128,-1,34
 220 43 220 43 323 43 c 0,35,36
 409 43 409 43 453.5 81.5 c 128,-1,37
 498 120 498 120 498 195 c 0,38,39
 498 244 498 244 470 274 c 128,-1,40
 442 304 442 304 384 318 c 2,41,-1
 225 354 l 2,42,43
 144 373 144 373 106 413.5 c 128,-1,44
 68 454 68 454 68 522 c 0,45,46
 68 613 68 613 128.5 662 c 128,-1,47
 189 711 189 711 304 711 c 0,48,49
 424 711 424 711 486 663 c 128,-1,50
 548 615 548 615 548 524 c 2,51,-1
 548 513 l 1,52,-1
 486 513 l 1,53,-1
 486 523 l 2,54,55
 486 592 486 592 441 624.5 c 128,-1,56
 396 657 396 657 303 657 c 0,57,58
 217 657 217 657 173 624 c 128,-1,59
 129 591 129 591 129 526 c 0,60,61
 129 479 129 479 156.5 452 c 128,-1,62
 184 425 184 425 246 411 c 2,63,-1
 405 375 l 2,64,65
 483 357 483 357 522.5 313 c 128,-1,66
 562 269 562 269 562 201 c 0,67,68
 562 98 562 98 501 43.5 c 128,-1,69
 440 -11 440 -11 323 -11 c 2,70,-1
 307 -11 l 1,71,-1
 280 -60 l 1,72,73
 286 -57 286 -57 293 -56 c 128,-1,74
 300 -55 300 -55 308 -55 c 0,0,1
EndSplineSet
EndChar

StartChar: scedilla
Encoding: 351 351 286
Width: 514
GlyphClass: 1
Flags: W
LayerCount: 2
Fore
SplineSet
261 -55 m 0,0,1
 297 -55 297 -55 317.5 -75.5 c 128,-1,2
 338 -96 338 -96 338 -129 c 0,3,4
 338 -165 338 -165 315.5 -186.5 c 128,-1,5
 293 -208 293 -208 253 -208 c 256,6,7
 213 -208 213 -208 192 -192.5 c 128,-1,8
 171 -177 171 -177 171 -149 c 2,9,-1
 171 -139 l 1,10,-1
 209 -139 l 1,11,-1
 209 -146 l 2,12,13
 209 -158 209 -158 219.5 -164 c 128,-1,14
 230 -170 230 -170 252 -170 c 0,15,16
 273 -170 273 -170 283.5 -160 c 128,-1,17
 294 -150 294 -150 294 -130 c 0,18,19
 294 -111 294 -111 283 -101.5 c 128,-1,20
 272 -92 272 -92 251 -92 c 0,21,22
 242 -92 242 -92 233 -94.5 c 128,-1,23
 224 -97 224 -97 207 -105 c 1,24,-1
 178 -88 l 1,25,-1
 220 -10 l 1,26,27
 137 -4 137 -4 95.5 29.5 c 128,-1,28
 54 63 54 63 54 124 c 2,29,-1
 54 134 l 1,30,-1
 112 134 l 1,31,-1
 112 125 l 2,32,33
 112 79 112 79 149 58 c 128,-1,34
 186 37 186 37 263 37 c 0,35,36
 330 37 330 37 366 65 c 128,-1,37
 402 93 402 93 402 145 c 0,38,39
 402 178 402 178 380.5 199.5 c 128,-1,40
 359 221 359 221 315 232 c 2,41,-1
 196 258 l 2,42,43
 124 274 124 274 93.5 306 c 128,-1,44
 63 338 63 338 63 392 c 0,45,46
 63 459 63 459 112.5 497.5 c 128,-1,47
 162 536 162 536 251 536 c 0,48,49
 349 536 349 536 398 500 c 128,-1,50
 447 464 447 464 447 392 c 2,51,-1
 447 383 l 1,52,-1
 390 383 l 1,53,-1
 390 391 l 2,54,55
 390 442 390 442 355.5 466 c 128,-1,56
 321 490 321 490 250 490 c 0,57,58
 186 490 186 490 152.5 465.5 c 128,-1,59
 119 441 119 441 119 395 c 0,60,61
 119 362 119 362 140.5 342 c 128,-1,62
 162 322 162 322 211 311 c 2,63,-1
 333 284 l 2,64,65
 397 269 397 269 429 235.5 c 128,-1,66
 461 202 461 202 461 150 c 0,67,68
 461 74 461 74 409.5 31.5 c 128,-1,69
 358 -11 358 -11 262 -11 c 2,70,-1
 260 -11 l 1,71,-1
 233 -60 l 1,72,73
 239 -57 239 -57 246 -56 c 128,-1,74
 253 -55 253 -55 261 -55 c 0,0,1
EndSplineSet
EndChar

StartChar: uni0162
Encoding: 354 354 289
Width: 565
GlyphClass: 1
Flags: W
LayerCount: 2
Fore
SplineSet
299 -55 m 0,0,1
 335 -55 335 -55 355.5 -75.5 c 128,-1,2
 376 -96 376 -96 376 -129 c 0,3,4
 376 -165 376 -165 353.5 -186.5 c 128,-1,5
 331 -208 331 -208 291 -208 c 256,6,7
 251 -208 251 -208 230 -192.5 c 128,-1,8
 209 -177 209 -177 209 -149 c 2,9,-1
 209 -139 l 1,10,-1
 247 -139 l 1,11,-1
 247 -146 l 2,12,13
 247 -158 247 -158 258 -164 c 128,-1,14
 269 -170 269 -170 290 -170 c 256,15,16
 311 -170 311 -170 321.5 -160 c 128,-1,17
 332 -150 332 -150 332 -130 c 0,18,19
 332 -112 332 -112 321 -102 c 128,-1,20
 310 -92 310 -92 289 -92 c 0,21,22
 280 -92 280 -92 272 -94 c 128,-1,23
 264 -96 264 -96 246 -105 c 1,24,-1
 216 -88 l 1,25,-1
 258 0 l 1,26,-1
 251 0 l 1,27,-1
 251 645 l 1,28,-1
 25 645 l 1,29,-1
 25 700 l 1,30,-1
 540 700 l 1,31,-1
 540 645 l 1,32,-1
 313 645 l 1,33,-1
 313 0 l 1,34,-1
 297 0 l 1,35,-1
 270 -61 l 1,36,37
 279 -57 279 -57 285.5 -56 c 128,-1,38
 292 -55 292 -55 299 -55 c 0,0,1
EndSplineSet
EndChar

StartChar: uni0163
Encoding: 355 355 290
Width: 354
GlyphClass: 1
Flags: W
LayerCount: 2
Fore
SplineSet
219 -55 m 0,0,1
 255 -55 255 -55 275.5 -75.5 c 128,-1,2
 296 -96 296 -96 296 -129 c 0,3,4
 296 -164 296 -164 273.5 -186 c 128,-1,5
 251 -208 251 -208 211 -208 c 256,6,7
 171 -208 171 -208 149.5 -192.5 c 128,-1,8
 128 -177 128 -177 128 -149 c 2,9,-1
 128 -139 l 1,10,-1
 166 -139 l 1,11,-1
 166 -146 l 2,12,13
 166 -158 166 -158 177 -164 c 128,-1,14
 188 -170 188 -170 209 -170 c 256,15,16
 230 -170 230 -170 241 -160 c 128,-1,17
 252 -150 252 -150 252 -130 c 0,18,19
 252 -112 252 -112 241 -102 c 128,-1,20
 230 -92 230 -92 209 -92 c 0,21,22
 200 -92 200 -92 191 -94.5 c 128,-1,23
 182 -97 182 -97 165 -105 c 1,24,-1
 136 -88 l 1,25,-1
 195 13 l 1,26,27
 151 29 151 29 128.5 65.5 c 128,-1,28
 106 102 106 102 106 158 c 2,29,-1
 106 477 l 1,30,-1
 27 477 l 1,31,-1
 27 525 l 1,32,-1
 106 525 l 1,33,-1
 106 664 l 1,34,-1
 165 664 l 1,35,-1
 165 525 l 1,36,-1
 315 525 l 1,37,-1
 315 477 l 1,38,-1
 165 477 l 1,39,-1
 165 161 l 2,40,41
 165 105 165 105 196 77.5 c 128,-1,42
 227 50 227 50 290 50 c 2,43,-1
 335 50 l 1,44,-1
 335 0 l 1,45,-1
 282 0 l 2,46,47
 266 0 266 0 253 1 c 128,-1,48
 240 2 240 2 230 4 c 1,49,-1
 191 -60 l 1,50,51
 198 -57 198 -57 204.5 -56 c 128,-1,52
 211 -55 211 -55 219 -55 c 0,0,1
EndSplineSet
EndChar

StartChar: Tbar
Encoding: 358 358 293
Width: 600
GlyphClass: 1
Flags: W
LayerCount: 2
Fore
SplineSet
330 372 m 1,0,-1
 501 372 l 1,1,-1
 501 325 l 1,2,-1
 330 325 l 1,3,-1
 330 0 l 1,4,-1
 268 0 l 1,5,-1
 268 325 l 1,6,-1
 98 325 l 1,7,-1
 98 372 l 1,8,-1
 268 372 l 1,9,-1
 268 645 l 1,10,-1
 42 645 l 1,11,-1
 42 700 l 1,12,-1
 557 700 l 1,13,-1
 557 645 l 1,14,-1
 330 645 l 1,15,-1
 330 372 l 1,0,-1
EndSplineSet
EndChar

StartChar: tbar
Encoding: 359 359 294
Width: 357
GlyphClass: 1
Flags: W
LayerCount: 2
Fore
SplineSet
167 161 m 2,0,1
 167 105 167 105 198 77.5 c 128,-1,2
 229 50 229 50 292 50 c 2,3,-1
 337 50 l 1,4,-1
 337 0 l 1,5,-1
 284 0 l 2,6,7
 196 0 196 0 152 39.5 c 128,-1,8
 108 79 108 79 108 158 c 2,9,-1
 108 272 l 1,10,-1
 42 272 l 1,11,-1
 42 315 l 1,12,-1
 108 315 l 1,13,-1
 108 477 l 1,14,-1
 29 477 l 1,15,-1
 29 525 l 1,16,-1
 108 525 l 1,17,-1
 108 664 l 1,18,-1
 167 664 l 1,19,-1
 167 525 l 1,20,-1
 317 525 l 1,21,-1
 317 477 l 1,22,-1
 167 477 l 1,23,-1
 167 315 l 1,24,-1
 308 315 l 1,25,-1
 308 272 l 1,26,-1
 167 272 l 1,27,-1
 167 161 l 2,0,1
EndSplineSet
EndChar

StartChar: Uogonek
Encoding: 370 370 305
Width: 686
GlyphClass: 1
Flags: W
LayerCount: 2
Fore
SplineSet
470 -168 m 1,0,1
 456 -174 456 -174 442.5 -177 c 128,-1,2
 429 -180 429 -180 414 -180 c 0,3,4
 372 -180 372 -180 345 -157 c 128,-1,5
 318 -134 318 -134 318 -100 c 0,6,7
 318 -75 318 -75 331.5 -52 c 128,-1,8
 345 -29 345 -29 371 -10 c 1,9,10
 367 -10 367 -10 357 -10.5 c 128,-1,11
 347 -11 347 -11 342 -11 c 0,12,13
 222 -11 222 -11 155.5 55 c 128,-1,14
 89 121 89 121 89 232 c 2,15,-1
 89 700 l 1,16,-1
 151 700 l 1,17,-1
 151 235 l 2,18,19
 151 148 151 148 201 96 c 128,-1,20
 251 44 251 44 342 44 c 0,21,22
 434 44 434 44 484.5 95.5 c 128,-1,23
 535 147 535 147 535 235 c 2,24,-1
 535 700 l 1,25,-1
 597 700 l 1,26,-1
 597 232 l 2,27,28
 597 151 597 151 562 95 c 128,-1,29
 527 39 527 39 457 8 c 0,30,31
 413 -11 413 -11 390.5 -35.5 c 128,-1,32
 368 -60 368 -60 368 -88 c 0,33,34
 368 -110 368 -110 384.5 -123.5 c 128,-1,35
 401 -137 401 -137 428 -137 c 0,36,37
 437 -137 437 -137 446.5 -135.5 c 128,-1,38
 456 -134 456 -134 470 -131 c 1,39,-1
 470 -168 l 1,0,1
EndSplineSet
EndChar

StartChar: uogonek
Encoding: 371 371 306
Width: 575
GlyphClass: 1
Flags: W
LayerCount: 2
Fore
SplineSet
450 -137 m 0,0,1
 459 -137 459 -137 468.5 -135.5 c 128,-1,2
 478 -134 478 -134 492 -131 c 1,3,-1
 492 -168 l 1,4,5
 478 -174 478 -174 464.5 -177 c 128,-1,6
 451 -180 451 -180 436 -180 c 0,7,8
 393 -180 393 -180 366.5 -157 c 128,-1,9
 340 -134 340 -134 340 -100 c 256,10,11
 340 -66 340 -66 364.5 -37.5 c 128,-1,12
 389 -9 389 -9 439 15 c 1,13,-1
 436 85 l 1,14,15
 413 39 413 39 369 14 c 128,-1,16
 325 -11 325 -11 264 -11 c 0,17,18
 179 -11 179 -11 128.5 41.5 c 128,-1,19
 78 94 78 94 78 178 c 2,20,-1
 78 525 l 1,21,-1
 137 525 l 1,22,-1
 137 190 l 2,23,24
 137 121 137 121 174 81.5 c 128,-1,25
 211 42 211 42 280 42 c 0,26,27
 353 42 353 42 392.5 86 c 128,-1,28
 432 130 432 130 432 206 c 2,29,-1
 432 525 l 1,30,-1
 492 525 l 1,31,-1
 492 0 l 1,32,-1
 470 0 l 1,33,34
 427 -23 427 -23 408 -44 c 128,-1,35
 389 -65 389 -65 389 -88 c 256,36,37
 389 -111 389 -111 405.5 -124 c 128,-1,38
 422 -137 422 -137 450 -137 c 0,0,1
EndSplineSet
EndChar

StartChar: longs
Encoding: 383 383 318
Width: 297
GlyphClass: 1
Flags: W
LayerCount: 2
Fore
SplineSet
292 680 m 2,0,1
 230 680 230 680 198.5 647.5 c 128,-1,2
 167 615 167 615 167 552 c 2,3,-1
 167 0 l 1,4,-1
 107 0 l 1,5,-1
 107 478 l 1,6,-1
 30 478 l 1,7,-1
 30 525 l 1,8,-1
 107 525 l 1,9,-1
 107 550 l 2,10,11
 107 637 107 637 154.5 683.5 c 128,-1,12
 202 730 202 730 293 730 c 2,13,-1
 335 730 l 1,14,-1
 335 680 l 1,15,-1
 292 680 l 2,0,1
EndSplineSet
EndChar

StartChar: florin
Encoding: 402 402 319
Width: 474
GlyphClass: 1
Flags: W
LayerCount: 2
Fore
SplineSet
373 345 m 1,0,-1
 250 345 l 1,1,-1
 211 24 l 2,2,3
 200 -65 200 -65 148.5 -110.5 c 128,-1,4
 97 -156 97 -156 7 -156 c 2,5,-1
 -36 -156 l 1,6,-1
 -36 -106 l 1,7,-1
 10 -106 l 2,8,9
 73 -106 73 -106 109 -73 c 128,-1,10
 145 -40 145 -40 152 24 c 2,11,-1
 191 345 l 1,12,-1
 75 345 l 1,13,-1
 75 394 l 1,14,-1
 197 394 l 1,15,-1
 212 520 l 2,16,17
 223 610 223 610 274 655 c 128,-1,18
 325 700 325 700 416 700 c 2,19,-1
 459 700 l 1,20,-1
 459 650 l 1,21,-1
 413 650 l 2,22,23
 350 650 350 650 314.5 617.5 c 128,-1,24
 279 585 279 585 271 520 c 2,25,-1
 256 394 l 1,26,-1
 373 394 l 1,27,-1
 373 345 l 1,0,-1
EndSplineSet
EndChar

StartChar: uni0237
Encoding: 567 567 324
Width: 231
GlyphClass: 1
Flags: W
LayerCount: 2
Fore
SplineSet
145 -30 m 2,0,1
 145 -100 145 -100 100 -139.5 c 128,-1,2
 55 -179 55 -179 -30 -179 c 2,3,-1
 -62 -179 l 1,4,-1
 -62 -129 l 1,5,-1
 -36 -129 l 2,6,7
 23 -129 23 -129 54 -103.5 c 128,-1,8
 85 -78 85 -78 85 -32 c 2,9,-1
 85 525 l 1,10,-1
 145 525 l 1,11,-1
 145 -30 l 2,0,1
EndSplineSet
EndChar

StartChar: circumflex
Encoding: 710 710 325
Width: 500
GlyphClass: 1
Flags: W
LayerCount: 2
Fore
SplineSet
368 597 m 1,0,-1
 320 597 l 1,1,-1
 250 704 l 1,2,-1
 249 704 l 1,3,-1
 179 597 l 1,4,-1
 131 597 l 1,5,-1
 220 736 l 1,6,-1
 279 736 l 1,7,-1
 368 597 l 1,0,-1
EndSplineSet
EndChar

StartChar: caron
Encoding: 711 711 326
Width: 500
GlyphClass: 1
Flags: W
LayerCount: 2
Fore
SplineSet
131 736 m 1,0,-1
 179 736 l 1,1,-1
 249 629 l 1,2,-1
 250 629 l 1,3,-1
 320 736 l 1,4,-1
 368 736 l 1,5,-1
 279 597 l 1,6,-1
 220 597 l 1,7,-1
 131 736 l 1,0,-1
EndSplineSet
EndChar

StartChar: breve
Encoding: 728 728 328
Width: 500
GlyphClass: 1
Flags: W
LayerCount: 2
Fore
SplineSet
249 625 m 0,0,1
 277 625 277 625 294 641 c 128,-1,2
 311 657 311 657 311 684 c 2,3,-1
 311 711 l 1,4,-1
 352 711 l 1,5,-1
 352 684 l 2,6,7
 352 640 352 640 324 613.5 c 128,-1,8
 296 587 296 587 249 587 c 256,9,10
 202 587 202 587 174.5 613.5 c 128,-1,11
 147 640 147 640 147 684 c 2,12,-1
 147 711 l 1,13,-1
 188 711 l 1,14,-1
 188 684 l 2,15,16
 188 658 188 658 205 641.5 c 128,-1,17
 222 625 222 625 249 625 c 0,0,1
EndSplineSet
EndChar

StartChar: dotaccent
Encoding: 729 729 329
Width: 500
GlyphClass: 1
Flags: W
LayerCount: 2
Fore
SplineSet
217 715 m 1,0,-1
 283 715 l 1,1,-1
 283 641 l 1,2,-1
 217 641 l 1,3,-1
 217 715 l 1,0,-1
EndSplineSet
EndChar

StartChar: ring
Encoding: 730 730 330
Width: 500
GlyphClass: 1
Flags: W
LayerCount: 2
Fore
SplineSet
249 587 m 0,0,1
 210 587 210 587 182.5 614 c 128,-1,2
 155 641 155 641 155 680 c 0,3,4
 155 720 155 720 182.5 747 c 128,-1,5
 210 774 210 774 249 774 c 0,6,7
 289 774 289 774 316.5 747 c 128,-1,8
 344 720 344 720 344 680 c 0,9,10
 344 641 344 641 316.5 614 c 128,-1,11
 289 587 289 587 249 587 c 0,0,1
249 739 m 256,12,13
 225 739 225 739 209 722 c 128,-1,14
 193 705 193 705 193 680 c 0,15,16
 193 656 193 656 209.5 639.5 c 128,-1,17
 226 623 226 623 249 623 c 0,18,19
 273 623 273 623 289.5 639.5 c 128,-1,20
 306 656 306 656 306 680 c 0,21,22
 306 705 306 705 289.5 722 c 128,-1,23
 273 739 273 739 249 739 c 256,12,13
EndSplineSet
EndChar

StartChar: ogonek
Encoding: 731 731 331
Width: 500
GlyphClass: 1
Flags: W
LayerCount: 2
Fore
SplineSet
221 -88 m 0,0,1
 221 -110 221 -110 237.5 -123.5 c 128,-1,2
 254 -137 254 -137 281 -137 c 0,3,4
 290 -137 290 -137 299.5 -135.5 c 128,-1,5
 309 -134 309 -134 323 -131 c 1,6,-1
 323 -168 l 1,7,8
 310 -174 310 -174 296 -177 c 128,-1,9
 282 -180 282 -180 267 -180 c 0,10,11
 225 -180 225 -180 198 -157 c 128,-1,12
 171 -134 171 -134 171 -100 c 0,13,14
 171 -65 171 -65 197.5 -35.5 c 128,-1,15
 224 -6 224 -6 277 18 c 1,16,-1
 310 5 l 1,17,18
 262 -21 262 -21 241.5 -42.5 c 128,-1,19
 221 -64 221 -64 221 -88 c 0,0,1
EndSplineSet
EndChar

StartChar: tilde
Encoding: 732 732 332
Width: 500
GlyphClass: 1
Flags: W
LayerCount: 2
Fore
SplineSet
398 696 m 1,0,1
 398 647 398 647 377 620.5 c 128,-1,2
 356 594 356 594 318 594 c 0,3,4
 300 594 300 594 285 599 c 128,-1,5
 270 604 270 604 257 615 c 2,6,-1
 222 642 l 2,7,8
 214 649 214 649 204.5 652.5 c 128,-1,9
 195 656 195 656 186 656 c 0,10,11
 164 656 164 656 152 641 c 128,-1,12
 140 626 140 626 140 597 c 1,13,-1
 103 597 l 1,14,15
 103 645 103 645 125.5 672 c 128,-1,16
 148 699 148 699 185 699 c 0,17,18
 202 699 202 699 216 694 c 128,-1,19
 230 689 230 689 243 678 c 2,20,-1
 277 651 l 2,21,22
 286 644 286 644 297 640 c 128,-1,23
 308 636 308 636 316 636 c 0,24,25
 339 636 339 636 350.5 651 c 128,-1,26
 362 666 362 666 362 696 c 1,27,-1
 398 696 l 1,0,1
EndSplineSet
EndChar

StartChar: hungarumlaut
Encoding: 733 733 333
Width: 500
GlyphClass: 1
Flags: W
LayerCount: 2
Fore
SplineSet
230 597 m 1,0,-1
 320 736 l 1,1,-1
 387 736 l 1,2,-1
 281 597 l 1,3,-1
 230 597 l 1,0,-1
122 597 m 1,4,-1
 199 736 l 1,5,-1
 266 736 l 1,6,-1
 174 597 l 1,7,-1
 122 597 l 1,4,-1
EndSplineSet
EndChar

StartChar: pi
Encoding: 960 960 337
Width: 601
GlyphClass: 1
Flags: W
LayerCount: 2
Fore
SplineSet
83 525 m 1,0,-1
 518 525 l 1,1,-1
 518 0 l 1,2,-1
 456 0 l 1,3,-1
 456 473 l 1,4,-1
 145 473 l 1,5,-1
 145 0 l 1,6,-1
 83 0 l 1,7,-1
 83 525 l 1,0,-1
EndSplineSet
EndChar

StartChar: endash
Encoding: 8211 8211 346
Width: 572
GlyphClass: 1
Flags: W
LayerCount: 2
Fore
SplineSet
497 285 m 1,0,-1
 75 285 l 1,1,-1
 75 340 l 1,2,-1
 497 340 l 1,3,-1
 497 285 l 1,0,-1
EndSplineSet
EndChar

StartChar: emdash
Encoding: 8212 8212 347
Width: 912
GlyphClass: 1
Flags: W
LayerCount: 2
Fore
SplineSet
837 285 m 1,0,-1
 75 285 l 1,1,-1
 75 340 l 1,2,-1
 837 340 l 1,3,-1
 837 285 l 1,0,-1
EndSplineSet
EndChar

StartChar: quoteleft
Encoding: 8216 8216 348
Width: 217
GlyphClass: 1
Flags: W
LayerCount: 2
Fore
SplineSet
159 700 m 1,0,-1
 127 516 l 1,1,-1
 63 516 l 1,2,-1
 63 532 l 1,3,-1
 114 700 l 1,4,-1
 159 700 l 1,0,-1
EndSplineSet
EndChar

StartChar: quoteright
Encoding: 8217 8217 349
Width: 214
GlyphClass: 1
Flags: W
LayerCount: 2
Fore
SplineSet
65 516 m 1,0,-1
 97 700 l 1,1,-1
 161 700 l 1,2,-1
 161 684 l 1,3,-1
 110 516 l 1,4,-1
 65 516 l 1,0,-1
EndSplineSet
EndChar

StartChar: quotesinglbase
Encoding: 8218 8218 350
Width: 218
GlyphClass: 1
Flags: W
LayerCount: 2
Fore
SplineSet
49 -106 m 1,0,-1
 81 78 l 1,1,-1
 145 78 l 1,2,-1
 145 62 l 1,3,-1
 94 -106 l 1,4,-1
 49 -106 l 1,0,-1
EndSplineSet
EndChar

StartChar: quotedblleft
Encoding: 8220 8220 351
Width: 342
GlyphClass: 1
Flags: W
LayerCount: 2
Fore
SplineSet
284 700 m 1,0,-1
 252 516 l 1,1,-1
 188 516 l 1,2,-1
 188 532 l 1,3,-1
 239 700 l 1,4,-1
 284 700 l 1,0,-1
159 700 m 1,5,-1
 127 516 l 1,6,-1
 63 516 l 1,7,-1
 63 532 l 1,8,-1
 114 700 l 1,9,-1
 159 700 l 1,5,-1
EndSplineSet
EndChar

StartChar: quotedblright
Encoding: 8221 8221 352
Width: 339
GlyphClass: 1
Flags: W
LayerCount: 2
Fore
SplineSet
190 516 m 1,0,-1
 222 700 l 1,1,-1
 286 700 l 1,2,-1
 286 684 l 1,3,-1
 235 516 l 1,4,-1
 190 516 l 1,0,-1
65 516 m 1,5,-1
 97 700 l 1,6,-1
 161 700 l 1,7,-1
 161 684 l 1,8,-1
 110 516 l 1,9,-1
 65 516 l 1,5,-1
EndSplineSet
EndChar

StartChar: quotedblbase
Encoding: 8222 8222 353
Width: 342
GlyphClass: 1
Flags: W
LayerCount: 2
Fore
SplineSet
174 -106 m 1,0,-1
 206 78 l 1,1,-1
 270 78 l 1,2,-1
 270 62 l 1,3,-1
 219 -106 l 1,4,-1
 174 -106 l 1,0,-1
49 -106 m 1,5,-1
 81 78 l 1,6,-1
 145 78 l 1,7,-1
 145 62 l 1,8,-1
 94 -106 l 1,9,-1
 49 -106 l 1,5,-1
EndSplineSet
EndChar

StartChar: dagger
Encoding: 8224 8224 354
Width: 484
GlyphClass: 1
Flags: W
LayerCount: 2
Fore
SplineSet
398 474 m 1,0,-1
 261 485 l 1,1,-1
 276 61 l 1,2,-1
 276 0 l 1,3,-1
 211 0 l 1,4,-1
 211 61 l 1,5,-1
 229 485 l 1,6,-1
 87 474 l 1,7,-1
 64 474 l 1,8,-1
 64 525 l 1,9,-1
 87 525 l 1,10,-1
 227 514 l 1,11,-1
 212 677 l 1,12,-1
 212 700 l 1,13,-1
 275 700 l 1,14,-1
 275 677 l 1,15,-1
 262 515 l 1,16,-1
 398 525 l 1,17,-1
 420 525 l 1,18,-1
 420 474 l 1,19,-1
 398 474 l 1,0,-1
EndSplineSet
EndChar

StartChar: daggerdbl
Encoding: 8225 8225 355
Width: 484
GlyphClass: 1
Flags: W
LayerCount: 2
Fore
SplineSet
87 226 m 1,0,-1
 226 216 l 1,1,-1
 212 350 l 1,2,-1
 227 485 l 1,3,-1
 87 474 l 1,4,-1
 64 474 l 1,5,-1
 64 525 l 1,6,-1
 87 525 l 1,7,-1
 227 514 l 1,8,-1
 212 677 l 1,9,-1
 212 700 l 1,10,-1
 275 700 l 1,11,-1
 275 677 l 1,12,-1
 262 515 l 1,13,-1
 398 525 l 1,14,-1
 420 525 l 1,15,-1
 420 474 l 1,16,-1
 398 474 l 1,17,-1
 262 484 l 1,18,-1
 276 350 l 1,19,-1
 261 216 l 1,20,-1
 398 226 l 1,21,-1
 420 226 l 1,22,-1
 420 176 l 1,23,-1
 398 176 l 1,24,-1
 261 185 l 1,25,-1
 275 23 l 1,26,-1
 275 0 l 1,27,-1
 212 0 l 1,28,-1
 212 23 l 1,29,-1
 226 186 l 1,30,-1
 87 176 l 1,31,-1
 64 176 l 1,32,-1
 64 226 l 1,33,-1
 87 226 l 1,0,-1
EndSplineSet
EndChar

StartChar: bullet
Encoding: 8226 8226 356
Width: 347
GlyphClass: 1
Flags: W
LayerCount: 2
Fore
SplineSet
100 421 m 1,0,-1
 247 421 l 1,1,-1
 247 279 l 1,2,-1
 100 279 l 1,3,-1
 100 421 l 1,0,-1
EndSplineSet
EndChar

StartChar: guilsinglleft
Encoding: 8249 8249 359
Width: 327
GlyphClass: 1
Flags: W
LayerCount: 2
Fore
SplineSet
202 453 m 1,0,-1
 264 453 l 1,1,-1
 112 262 l 1,2,-1
 264 73 l 1,3,-1
 202 73 l 1,4,-1
 41 262 l 1,5,-1
 202 453 l 1,0,-1
EndSplineSet
EndChar

StartChar: guilsinglright
Encoding: 8250 8250 360
Width: 327
GlyphClass: 1
Flags: W
LayerCount: 2
Fore
SplineSet
63 453 m 1,0,-1
 125 453 l 1,1,-1
 286 262 l 1,2,-1
 125 73 l 1,3,-1
 63 73 l 1,4,-1
 215 262 l 1,5,-1
 63 453 l 1,0,-1
EndSplineSet
EndChar

StartChar: fraction
Encoding: 8260 8260 361
Width: 151
GlyphClass: 1
Flags: W
LayerCount: 2
Fore
SplineSet
-171 0 m 1,0,-1
 262 700 l 1,1,-1
 319 700 l 1,2,-1
 -114 0 l 1,3,-1
 -171 0 l 1,0,-1
EndSplineSet
EndChar

StartChar: lira
Encoding: 8356 8356 384
Width: 639
GlyphClass: 1
Flags: W
LayerCount: 2
Fore
SplineSet
201 242 m 1,0,-1
 201 50 l 1,1,-1
 565 50 l 1,2,-1
 565 0 l 1,3,-1
 63 0 l 1,4,-1
 63 45 l 1,5,-1
 140 50 l 1,6,-1
 140 242 l 1,7,-1
 62 242 l 1,8,-1
 62 287 l 1,9,-1
 140 287 l 1,10,-1
 140 361 l 1,11,-1
 62 361 l 1,12,-1
 62 406 l 1,13,-1
 140 406 l 1,14,-1
 140 472 l 2,15,16
 140 582 140 582 199 646.5 c 128,-1,17
 258 711 258 711 366 711 c 0,18,19
 467 711 467 711 524.5 653.5 c 128,-1,20
 582 596 582 596 582 504 c 2,21,-1
 582 486 l 1,22,-1
 522 486 l 1,23,-1
 522 500 l 2,24,25
 522 569 522 569 480 612.5 c 128,-1,26
 438 656 438 656 364 656 c 0,27,28
 286 656 286 656 243.5 606 c 128,-1,29
 201 556 201 556 201 472 c 2,30,-1
 201 406 l 1,31,-1
 395 406 l 1,32,-1
 395 361 l 1,33,-1
 201 361 l 1,34,-1
 201 287 l 1,35,-1
 395 287 l 1,36,-1
 395 242 l 1,37,-1
 201 242 l 1,0,-1
EndSplineSet
EndChar

StartChar: Euro
Encoding: 8364 8364 386
Width: 657
GlyphClass: 1
Flags: W
LayerCount: 2
Fore
SplineSet
530 209 m 1,0,-1
 592 209 l 1,1,-1
 592 191 l 2,2,3
 592 100 592 100 531 44.5 c 128,-1,4
 470 -11 470 -11 361 -11 c 0,5,6
 249 -11 249 -11 187 55 c 128,-1,7
 125 121 125 121 125 232 c 2,8,-1
 125 265 l 1,9,-1
 48 265 l 1,10,-1
 48 311 l 1,11,-1
 125 311 l 1,12,-1
 125 385 l 1,13,-1
 48 385 l 1,14,-1
 48 431 l 1,15,-1
 125 431 l 1,16,-1
 125 469 l 2,17,18
 125 579 125 579 187 645 c 128,-1,19
 249 711 249 711 361 711 c 0,20,21
 470 711 470 711 531 658 c 128,-1,22
 592 605 592 605 592 517 c 2,23,-1
 592 500 l 1,24,-1
 530 500 l 1,25,-1
 530 515 l 2,26,27
 530 579 530 579 485.5 617.5 c 128,-1,28
 441 656 441 656 362 656 c 0,29,30
 279 656 279 656 233 605.5 c 128,-1,31
 187 555 187 555 187 469 c 2,32,-1
 187 431 l 1,33,-1
 386 431 l 1,34,-1
 386 385 l 1,35,-1
 187 385 l 1,36,-1
 187 311 l 1,37,-1
 386 311 l 1,38,-1
 386 265 l 1,39,-1
 187 265 l 1,40,-1
 187 231 l 2,41,42
 187 145 187 145 233 94.5 c 128,-1,43
 279 44 279 44 362 44 c 0,44,45
 442 44 442 44 486 84.5 c 128,-1,46
 530 125 530 125 530 193 c 2,47,-1
 530 209 l 1,0,-1
EndSplineSet
EndChar

StartChar: uni2113
Encoding: 8467 8467 387
Width: 488
GlyphClass: 1
Flags: W
LayerCount: 2
Fore
SplineSet
318 52 m 2,0,-1
 433 52 l 1,1,-1
 433 0 l 1,2,-1
 314 0 l 2,3,4
 219 0 219 0 174.5 43.5 c 128,-1,5
 130 87 130 87 130 186 c 2,6,-1
 130 220 l 1,7,8
 120 215 120 215 108.5 210.5 c 128,-1,9
 97 206 97 206 74 197 c 0,10,11
 61 191 61 191 54.5 188.5 c 128,-1,12
 48 186 48 186 43 184 c 1,13,-1
 25 231 l 1,14,15
 76 252 76 252 94.5 260 c 128,-1,16
 113 268 113 268 130 276 c 1,17,-1
 130 504 l 2,18,19
 130 601 130 601 174 656 c 128,-1,20
 218 711 218 711 299 711 c 0,21,22
 372 711 372 711 409.5 669 c 128,-1,23
 447 627 447 627 447 544 c 0,24,25
 447 458 447 458 383.5 384.5 c 128,-1,26
 320 311 320 311 189 247 c 1,27,-1
 189 191 l 2,28,29
 189 114 189 114 219.5 83 c 128,-1,30
 250 52 250 52 318 52 c 2,0,-1
396 544 m 0,31,32
 396 605 396 605 372 634 c 128,-1,33
 348 663 348 663 300 663 c 0,34,35
 245 663 245 663 217 623 c 128,-1,36
 189 583 189 583 189 504 c 2,37,-1
 189 306 l 1,38,39
 292 360 292 360 344 420 c 128,-1,40
 396 480 396 480 396 544 c 0,31,32
EndSplineSet
EndChar

StartChar: trademark
Encoding: 8482 8482 388
Width: 826
GlyphClass: 1
Flags: W
LayerCount: 2
Fore
SplineSet
35 700 m 1,0,-1
 343 700 l 1,1,-1
 343 655 l 1,2,-1
 218 655 l 1,3,-1
 218 291 l 1,4,-1
 167 291 l 1,5,-1
 167 655 l 1,6,-1
 35 655 l 1,7,-1
 35 700 l 1,0,-1
689 611 m 1,8,-1
 582 441 l 1,9,-1
 560 441 l 1,10,-1
 447 615 l 1,11,-1
 447 291 l 1,12,-1
 397 291 l 1,13,-1
 397 700 l 1,14,-1
 448 700 l 1,15,-1
 573 507 l 1,16,-1
 694 700 l 1,17,-1
 740 700 l 1,18,-1
 740 291 l 1,19,-1
 689 291 l 1,20,-1
 689 611 l 1,8,-1
EndSplineSet
EndChar

StartChar: Omega
Encoding: 8486 8486 389
Width: 658
GlyphClass: 1
Flags: W
LayerCount: 2
Fore
SplineSet
407 132 m 1,0,1
 457 147 457 147 489.5 199.5 c 128,-1,2
 522 252 522 252 522 325 c 2,3,-1
 522 465 l 2,4,5
 522 553 522 553 471 604.5 c 128,-1,6
 420 656 420 656 328 656 c 0,7,8
 237 656 237 656 187 604 c 128,-1,9
 137 552 137 552 137 465 c 2,10,-1
 137 325 l 2,11,12
 137 252 137 252 169.5 199.5 c 128,-1,13
 202 147 202 147 251 132 c 1,14,-1
 251 0 l 1,15,-1
 71 0 l 1,16,-1
 71 52 l 1,17,-1
 208 52 l 1,18,-1
 208 95 l 1,19,20
 150 115 150 115 112.5 178 c 128,-1,21
 75 241 75 241 75 322 c 2,22,-1
 75 469 l 2,23,24
 75 580 75 580 141.5 645.5 c 128,-1,25
 208 711 208 711 328 711 c 0,26,27
 450 711 450 711 516.5 646 c 128,-1,28
 583 581 583 581 583 469 c 2,29,-1
 583 322 l 2,30,31
 583 241 583 241 545.5 178 c 128,-1,32
 508 115 508 115 451 95 c 1,33,-1
 451 52 l 1,34,-1
 588 52 l 1,35,-1
 588 0 l 1,36,-1
 407 0 l 1,37,-1
 407 132 l 1,0,1
EndSplineSet
EndChar

StartChar: estimated
Encoding: 8494 8494 390
Width: 822
GlyphClass: 1
Flags: W
LayerCount: 2
Fore
SplineSet
419 26 m 0,0,1
 498 26 498 26 566.5 62 c 128,-1,2
 635 98 635 98 681 162 c 1,3,-1
 711 139 l 1,4,5
 661 69 661 69 583.5 29 c 128,-1,6
 506 -11 506 -11 419 -11 c 0,7,8
 270 -11 270 -11 164.5 95 c 128,-1,9
 59 201 59 201 59 350 c 256,10,11
 59 499 59 499 164.5 605 c 128,-1,12
 270 711 270 711 419 711 c 0,13,14
 571 711 571 711 675 604 c 128,-1,15
 779 497 779 497 779 340 c 1,16,-1
 163 340 l 1,17,-1
 163 153 l 1,18,19
 209 93 209 93 276 59.5 c 128,-1,20
 343 26 343 26 419 26 c 0,0,1
681 535 m 1,21,22
 636 601 636 601 567 638 c 128,-1,23
 498 675 498 675 419 675 c 0,24,25
 343 675 343 675 276 641.5 c 128,-1,26
 209 608 209 608 163 548 c 1,27,-1
 163 379 l 1,28,-1
 681 379 l 1,29,-1
 681 535 l 1,21,22
EndSplineSet
EndChar

StartChar: partialdiff
Encoding: 8706 8706 404
Width: 554
GlyphClass: 1
Flags: W
LayerCount: 2
Fore
SplineSet
228 711 m 2,0,1
 355 711 355 711 415 656 c 128,-1,2
 475 601 475 601 475 483 c 2,3,-1
 475 186 l 2,4,5
 475 96 475 96 420 42.5 c 128,-1,6
 365 -11 365 -11 265 -11 c 0,7,8
 163 -11 163 -11 107 42.5 c 128,-1,9
 51 96 51 96 51 186 c 2,10,-1
 51 244 l 2,11,12
 51 334 51 334 106 387.5 c 128,-1,13
 161 441 161 441 260 441 c 0,14,15
 310 441 310 441 349.5 423 c 128,-1,16
 389 405 389 405 416 369 c 1,17,-1
 416 485 l 2,18,19
 416 577 416 577 372.5 620 c 128,-1,20
 329 663 329 663 238 663 c 2,21,-1
 138 663 l 1,22,-1
 138 711 l 1,23,-1
 228 711 l 2,0,1
111 187 m 2,24,25
 111 120 111 120 151 80 c 128,-1,26
 191 40 191 40 263 40 c 256,27,28
 335 40 335 40 375.5 80.5 c 128,-1,29
 416 121 416 121 416 187 c 2,30,-1
 416 244 l 2,31,32
 416 310 416 310 375.5 350.5 c 128,-1,33
 335 391 335 391 263 391 c 256,34,35
 191 391 191 391 151 351 c 128,-1,36
 111 311 111 311 111 244 c 2,37,-1
 111 187 l 2,24,25
EndSplineSet
EndChar

StartChar: Delta
Encoding: 8710 8710 405
Width: 585
GlyphClass: 1
Flags: W
LayerCount: 2
Fore
SplineSet
252 700 m 1,0,-1
 333 700 l 1,1,-1
 558 0 l 1,2,-1
 27 0 l 1,3,-1
 252 700 l 1,0,-1
295 636 m 1,4,-1
 290 636 l 1,5,-1
 101 50 l 1,6,-1
 484 50 l 1,7,-1
 295 636 l 1,4,-1
EndSplineSet
EndChar

StartChar: product
Encoding: 8719 8719 406
Width: 712
GlyphClass: 1
Flags: W
LayerCount: 2
Fore
SplineSet
100 700 m 1,0,-1
 613 700 l 1,1,-1
 613 -126 l 1,2,-1
 551 -126 l 1,3,-1
 551 647 l 1,4,-1
 162 647 l 1,5,-1
 162 -126 l 1,6,-1
 100 -126 l 1,7,-1
 100 700 l 1,0,-1
EndSplineSet
EndChar

StartChar: summation
Encoding: 8721 8721 407
Width: 579
GlyphClass: 1
Flags: W
LayerCount: 2
Fore
SplineSet
530 645 m 1,0,-1
 133 645 l 1,1,-1
 347 317 l 1,2,-1
 347 296 l 1,3,-1
 127 -71 l 1,4,-1
 530 -71 l 1,5,-1
 530 -126 l 1,6,-1
 39 -126 l 1,7,-1
 39 -95 l 1,8,-1
 282 308 l 1,9,-1
 39 676 l 1,10,-1
 39 700 l 1,11,-1
 530 700 l 1,12,-1
 530 645 l 1,0,-1
EndSplineSet
EndChar

StartChar: minus
Encoding: 8722 8722 408
Width: 572
GlyphClass: 1
Flags: W
LayerCount: 2
Fore
SplineSet
80 358 m 1,0,-1
 492 358 l 1,1,-1
 492 305 l 1,2,-1
 80 305 l 1,3,-1
 80 358 l 1,0,-1
EndSplineSet
EndChar

StartChar: radical
Encoding: 8730 8730 411
Width: 613
GlyphClass: 1
Flags: W
LayerCount: 2
Fore
SplineSet
286 0 m 1,0,-1
 127 473 l 1,1,-1
 35 473 l 1,2,-1
 35 525 l 1,3,-1
 174 525 l 1,4,-1
 316 91 l 1,5,-1
 326 91 l 1,6,-1
 524 700 l 1,7,-1
 589 700 l 1,8,-1
 354 0 l 1,9,-1
 286 0 l 1,0,-1
EndSplineSet
EndChar

StartChar: infinity
Encoding: 8734 8734 412
Width: 855
GlyphClass: 1
Flags: W
LayerCount: 2
Fore
SplineSet
623 458 m 0,0,1
 702 458 702 458 746.5 412.5 c 128,-1,2
 791 367 791 367 791 289 c 256,3,4
 791 211 791 211 746.5 165 c 128,-1,5
 702 119 702 119 623 119 c 0,6,7
 569 119 569 119 524 149.5 c 128,-1,8
 479 180 479 180 432 254 c 1,9,10
 392 189 392 189 341 155 c 128,-1,11
 290 121 290 121 231 121 c 0,12,13
 153 121 153 121 108 167 c 128,-1,14
 63 213 63 213 63 291 c 0,15,16
 63 368 63 368 108 414 c 128,-1,17
 153 460 153 460 231 460 c 0,18,19
 288 460 288 460 336.5 430 c 128,-1,20
 385 400 385 400 430 336 c 1,21,22
 470 397 470 397 518.5 427.5 c 128,-1,23
 567 458 567 458 623 458 c 0,0,1
230 409 m 0,24,25
 177 409 177 409 146 376.5 c 128,-1,26
 115 344 115 344 115 291 c 0,27,28
 115 237 115 237 146 204.5 c 128,-1,29
 177 172 177 172 230 172 c 0,30,31
 279 172 279 172 323 203 c 128,-1,32
 367 234 367 234 403 294 c 1,33,34
 363 354 363 354 321 381.5 c 128,-1,35
 279 409 279 409 230 409 c 0,24,25
625 170 m 0,36,37
 677 170 677 170 708 202.5 c 128,-1,38
 739 235 739 235 739 289 c 0,39,40
 739 342 739 342 708.5 374.5 c 128,-1,41
 678 407 678 407 625 407 c 0,42,43
 577 407 577 407 536 379 c 128,-1,44
 495 351 495 351 462 296 c 1,45,46
 511 221 511 221 547 195.5 c 128,-1,47
 583 170 583 170 625 170 c 0,36,37
EndSplineSet
EndChar

StartChar: integral
Encoding: 8747 8747 413
Width: 428
GlyphClass: 1
Flags: W
LayerCount: 2
Fore
SplineSet
370 655 m 2,0,1
 304 655 304 655 274 627 c 128,-1,2
 244 599 244 599 244 529 c 2,3,-1
 244 21 l 2,4,5
 244 -72 244 -72 198.5 -114 c 128,-1,6
 153 -156 153 -156 56 -156 c 2,7,-1
 16 -156 l 1,8,-1
 16 -106 l 1,9,-1
 59 -106 l 2,10,11
 126 -106 126 -106 155.5 -77.5 c 128,-1,12
 185 -49 185 -49 185 21 c 2,13,-1
 185 529 l 2,14,15
 185 621 185 621 231 663 c 128,-1,16
 277 705 277 705 373 705 c 2,17,-1
 413 705 l 1,18,-1
 413 655 l 1,19,-1
 370 655 l 2,0,1
EndSplineSet
EndChar

StartChar: notequal
Encoding: 8800 8800 415
Width: 572
GlyphClass: 1
Flags: W
LayerCount: 2
Fore
SplineSet
258 265 m 1,0,-1
 492 265 l 1,1,-1
 492 211 l 1,2,-1
 215 211 l 1,3,-1
 148 134 l 1,4,-1
 91 134 l 1,5,-1
 158 211 l 1,6,-1
 80 211 l 1,7,-1
 80 265 l 1,8,-1
 200 265 l 1,9,-1
 315 398 l 1,10,-1
 80 398 l 1,11,-1
 80 452 l 1,12,-1
 358 452 l 1,13,-1
 424 529 l 1,14,-1
 482 529 l 1,15,-1
 415 452 l 1,16,-1
 492 452 l 1,17,-1
 492 398 l 1,18,-1
 373 398 l 1,19,-1
 258 265 l 1,0,-1
EndSplineSet
EndChar

StartChar: lessequal
Encoding: 8804 8804 416
Width: 605
GlyphClass: 1
Flags: W
LayerCount: 2
Fore
SplineSet
526 206 m 1,0,-1
 526 147 l 1,1,-1
 71 331 l 1,2,-1
 71 379 l 1,3,-1
 526 562 l 1,4,-1
 526 504 l 1,5,-1
 136 355 l 1,6,-1
 136 354 l 1,7,-1
 526 206 l 1,0,-1
526 62 m 1,8,-1
 526 14 l 1,9,-1
 71 14 l 1,10,-1
 71 62 l 1,11,-1
 526 62 l 1,8,-1
EndSplineSet
EndChar

StartChar: greaterequal
Encoding: 8805 8805 417
Width: 605
GlyphClass: 1
Flags: W
LayerCount: 2
Fore
SplineSet
79 147 m 1,0,-1
 79 206 l 1,1,-1
 469 354 l 1,2,-1
 469 355 l 1,3,-1
 79 504 l 1,4,-1
 79 562 l 1,5,-1
 534 379 l 1,6,-1
 534 331 l 1,7,-1
 79 147 l 1,0,-1
79 14 m 1,8,-1
 79 62 l 1,9,-1
 534 62 l 1,10,-1
 534 14 l 1,11,-1
 79 14 l 1,8,-1
EndSplineSet
EndChar

StartChar: lozenge
Encoding: 9674 9674 418
Width: 582
GlyphClass: 1
Flags: W
LayerCount: 2
Fore
SplineSet
248 700 m 1,0,-1
 334 700 l 1,1,-1
 550 349 l 1,2,-1
 334 0 l 1,3,-1
 248 0 l 1,4,-1
 32 349 l 1,5,-1
 248 700 l 1,0,-1
102 353 m 1,6,-1
 286 59 l 1,7,-1
 301 59 l 1,8,-1
 480 345 l 1,9,-1
 297 642 l 1,10,-1
 282 642 l 1,11,-1
 102 353 l 1,6,-1
EndSplineSet
EndChar

StartChar: hyphen.denominator
Encoding: 63019 63019 419
Width: 216
GlyphClass: 1
Flags: W
LayerCount: 2
Fore
SplineSet
178 135 m 1,0,-1
 38 135 l 1,1,-1
 38 180 l 1,2,-1
 178 180 l 1,3,-1
 178 135 l 1,0,-1
EndSplineSet
EndChar

StartChar: parenleft.denominator
Encoding: 63020 63020 420
Width: 193
GlyphClass: 1
Flags: W
LayerCount: 2
Fore
SplineSet
152 -46 m 2,0,1
 97 -46 97 -46 71 -23 c 128,-1,2
 45 0 45 0 45 52 c 2,3,-1
 45 298 l 2,4,5
 45 350 45 350 71 373 c 128,-1,6
 97 396 97 396 152 396 c 2,7,-1
 170 396 l 1,8,-1
 170 354 l 1,9,-1
 154 354 l 2,10,11
 124 354 124 354 109.5 339.5 c 128,-1,12
 95 325 95 325 95 295 c 2,13,-1
 95 55 l 2,14,15
 95 25 95 25 109.5 10.5 c 128,-1,16
 124 -4 124 -4 154 -4 c 2,17,-1
 170 -4 l 1,18,-1
 170 -46 l 1,19,-1
 152 -46 l 2,0,1
EndSplineSet
EndChar

StartChar: parenright.denominator
Encoding: 63021 63021 421
Width: 193
GlyphClass: 1
Flags: W
LayerCount: 2
Fore
SplineSet
42 396 m 2,0,1
 97 396 97 396 123 373 c 128,-1,2
 149 350 149 350 149 298 c 2,3,-1
 149 52 l 2,4,5
 149 0 149 0 123 -23 c 128,-1,6
 97 -46 97 -46 42 -46 c 2,7,-1
 23 -46 l 1,8,-1
 23 -4 l 1,9,-1
 40 -4 l 2,10,11
 70 -4 70 -4 84.5 10.5 c 128,-1,12
 99 25 99 25 99 55 c 2,13,-1
 99 295 l 2,14,15
 99 325 99 325 84.5 339.5 c 128,-1,16
 70 354 70 354 40 354 c 2,17,-1
 23 354 l 1,18,-1
 23 396 l 1,19,-1
 42 396 l 2,0,1
EndSplineSet
EndChar

StartChar: zero.denominator
Encoding: 63061 63061 425
Width: 321
GlyphClass: 1
Flags: W
LayerCount: 2
Fore
SplineSet
160 -6 m 256,0,1
 102 -6 102 -6 70 28 c 128,-1,2
 38 62 38 62 38 118 c 2,3,-1
 38 232 l 2,4,5
 38 288 38 288 70 322 c 128,-1,6
 102 356 102 356 160 356 c 256,7,8
 218 356 218 356 250.5 322 c 128,-1,9
 283 288 283 288 283 232 c 2,10,-1
 283 118 l 2,11,12
 283 62 283 62 250.5 28 c 128,-1,13
 218 -6 218 -6 160 -6 c 256,0,1
160 313 m 256,14,15
 126 313 126 313 107 290 c 128,-1,16
 88 267 88 267 88 230 c 2,17,-1
 88 120 l 2,18,19
 88 83 88 83 107 60.5 c 128,-1,20
 126 38 126 38 160 38 c 256,21,22
 194 38 194 38 213 60 c 128,-1,23
 232 82 232 82 232 120 c 2,24,-1
 232 230 l 2,25,26
 232 268 232 268 213 290.5 c 128,-1,27
 194 313 194 313 160 313 c 256,14,15
EndSplineSet
EndChar

StartChar: one.denominator
Encoding: 63062 63062 426
Width: 289
GlyphClass: 1
Flags: W
LayerCount: 2
Fore
SplineSet
127 303 m 1,0,-1
 30 289 l 1,1,-1
 30 334 l 1,2,-1
 139 353 l 1,3,-1
 179 353 l 1,4,-1
 179 43 l 1,5,-1
 276 43 l 1,6,-1
 276 0 l 1,7,-1
 30 0 l 1,8,-1
 30 43 l 1,9,-1
 127 43 l 1,10,-1
 127 303 l 1,0,-1
EndSplineSet
EndChar

StartChar: two.denominator
Encoding: 63063 63063 427
Width: 310
GlyphClass: 1
Flags: W
LayerCount: 2
Fore
SplineSet
194 197 m 2,0,1
 210 203 210 203 219 217 c 128,-1,2
 228 231 228 231 228 252 c 0,3,4
 228 282 228 282 210 297.5 c 128,-1,5
 192 313 192 313 156 313 c 256,6,7
 120 313 120 313 102 297 c 128,-1,8
 84 281 84 281 84 248 c 2,9,-1
 84 240 l 1,10,-1
 34 240 l 1,11,-1
 34 250 l 2,12,13
 34 300 34 300 65.5 328 c 128,-1,14
 97 356 97 356 156 356 c 0,15,16
 216 356 216 356 247 329.5 c 128,-1,17
 278 303 278 303 278 252 c 0,18,19
 278 218 278 218 263 195 c 128,-1,20
 248 172 248 172 216 158 c 2,21,-1
 120 119 l 2,22,23
 103 112 103 112 95.5 102.5 c 128,-1,24
 88 93 88 93 88 80 c 2,25,-1
 88 42 l 1,26,-1
 277 42 l 1,27,-1
 277 0 l 1,28,-1
 38 0 l 1,29,-1
 38 80 l 2,30,31
 38 104 38 104 51 122.5 c 128,-1,32
 64 141 64 141 87 151 c 2,33,-1
 194 197 l 2,0,1
EndSplineSet
EndChar

StartChar: three.denominator
Encoding: 63064 63064 428
Width: 308
GlyphClass: 1
Flags: W
LayerCount: 2
Fore
SplineSet
221 185 m 1,0,1
 247 175 247 175 261.5 153.5 c 128,-1,2
 276 132 276 132 276 103 c 0,3,4
 276 50 276 50 244.5 22 c 128,-1,5
 213 -6 213 -6 153 -6 c 0,6,7
 94 -6 94 -6 62.5 19.5 c 128,-1,8
 31 45 31 45 31 91 c 2,9,-1
 31 102 l 1,10,-1
 80 102 l 1,11,-1
 80 94 l 2,12,13
 80 65 80 65 98 50.5 c 128,-1,14
 116 36 116 36 151 36 c 0,15,16
 188 36 188 36 206.5 53 c 128,-1,17
 225 70 225 70 225 105 c 0,18,19
 225 131 225 131 208 147.5 c 128,-1,20
 191 164 191 164 167 164 c 2,21,-1
 109 164 l 1,22,-1
 109 202 l 1,23,-1
 166 202 l 2,24,25
 186 202 186 202 200.5 217 c 128,-1,26
 215 232 215 232 215 255 c 0,27,28
 215 285 215 285 199 299.5 c 128,-1,29
 183 314 183 314 150 314 c 256,30,31
 117 314 117 314 100.5 300 c 128,-1,32
 84 286 84 286 84 258 c 2,33,-1
 84 250 l 1,34,-1
 35 250 l 1,35,-1
 35 261 l 2,36,37
 35 306 35 306 65 331 c 128,-1,38
 95 356 95 356 151 356 c 256,39,40
 207 356 207 356 236.5 330.5 c 128,-1,41
 266 305 266 305 266 258 c 0,42,43
 266 233 266 233 254 214 c 128,-1,44
 242 195 242 195 221 185 c 1,0,1
EndSplineSet
EndChar

StartChar: four.denominator
Encoding: 63065 63065 429
Width: 317
GlyphClass: 1
Flags: W
LayerCount: 2
Fore
SplineSet
21 143 m 1,0,-1
 95 350 l 1,1,-1
 145 350 l 1,2,-1
 73 144 l 1,3,-1
 217 144 l 1,4,-1
 217 350 l 1,5,-1
 268 350 l 1,6,-1
 268 0 l 1,7,-1
 217 0 l 1,8,-1
 217 102 l 1,9,-1
 21 102 l 1,10,-1
 21 143 l 1,0,-1
EndSplineSet
EndChar

StartChar: five.denominator
Encoding: 63066 63066 430
Width: 303
GlyphClass: 1
Flags: W
LayerCount: 2
Fore
SplineSet
226 108 m 0,0,1
 226 141 226 141 208 156.5 c 128,-1,2
 190 172 190 172 151 172 c 2,3,-1
 44 172 l 1,4,-1
 44 350 l 1,5,-1
 254 350 l 1,6,-1
 254 308 l 1,7,-1
 94 308 l 1,8,-1
 94 213 l 1,9,-1
 157 213 l 2,10,11
 216 213 216 213 246.5 186 c 128,-1,12
 277 159 277 159 277 107 c 0,13,14
 277 52 277 52 246 23 c 128,-1,15
 215 -6 215 -6 154 -6 c 0,16,17
 95 -6 95 -6 63.5 19.5 c 128,-1,18
 32 45 32 45 32 91 c 2,19,-1
 32 100 l 1,20,-1
 82 100 l 1,21,-1
 82 93 l 2,22,23
 82 65 82 65 100 50.5 c 128,-1,24
 118 36 118 36 154 36 c 0,25,26
 191 36 191 36 208.5 53.5 c 128,-1,27
 226 71 226 71 226 108 c 0,0,1
EndSplineSet
EndChar

StartChar: six.denominator
Encoding: 63067 63067 431
Width: 314
GlyphClass: 1
Flags: W
LayerCount: 2
Fore
SplineSet
171 212 m 0,0,1
 226 212 226 212 255 184 c 128,-1,2
 284 156 284 156 284 106 c 0,3,4
 284 53 284 53 252 23.5 c 128,-1,5
 220 -6 220 -6 160 -6 c 256,6,7
 100 -6 100 -6 69 23.5 c 128,-1,8
 38 53 38 53 38 107 c 2,9,-1
 38 232 l 2,10,11
 38 288 38 288 70 322 c 128,-1,12
 102 356 102 356 159 356 c 0,13,14
 215 356 215 356 245.5 330 c 128,-1,15
 276 304 276 304 276 261 c 2,16,-1
 276 253 l 1,17,-1
 227 253 l 1,18,-1
 227 260 l 2,19,20
 227 285 227 285 208.5 300 c 128,-1,21
 190 315 190 315 158 315 c 256,22,23
 126 315 126 315 107 293.5 c 128,-1,24
 88 272 88 272 88 237 c 2,25,-1
 88 172 l 1,26,27
 99 192 99 192 119.5 202 c 128,-1,28
 140 212 140 212 171 212 c 0,0,1
160 174 m 0,29,30
 125 174 125 174 106.5 156 c 128,-1,31
 88 138 88 138 88 104 c 0,32,33
 88 69 88 69 106.5 50.5 c 128,-1,34
 125 32 125 32 160 32 c 0,35,36
 196 32 196 32 214 50 c 128,-1,37
 232 68 232 68 232 104 c 0,38,39
 232 139 232 139 214 156.5 c 128,-1,40
 196 174 196 174 160 174 c 0,29,30
EndSplineSet
EndChar

StartChar: seven.denominator
Encoding: 63068 63068 432
Width: 289
GlyphClass: 1
Flags: W
LayerCount: 2
Fore
SplineSet
216 308 m 1,0,-1
 14 308 l 1,1,-1
 14 350 l 1,2,-1
 274 350 l 1,3,-1
 274 312 l 1,4,-1
 121 0 l 1,5,-1
 66 0 l 1,6,-1
 216 308 l 1,0,-1
EndSplineSet
EndChar

StartChar: eight.denominator
Encoding: 63069 63069 433
Width: 317
GlyphClass: 1
Flags: W
LayerCount: 2
Fore
SplineSet
228 186 m 1,0,1
 256 175 256 175 270.5 153 c 128,-1,2
 285 131 285 131 285 102 c 0,3,4
 285 50 285 50 252.5 22 c 128,-1,5
 220 -6 220 -6 158 -6 c 256,6,7
 96 -6 96 -6 64 22 c 128,-1,8
 32 50 32 50 32 102 c 0,9,10
 32 131 32 131 46.5 153 c 128,-1,11
 61 175 61 175 89 186 c 1,12,13
 66 196 66 196 54 214.5 c 128,-1,14
 42 233 42 233 42 258 c 0,15,16
 42 306 42 306 71.5 331 c 128,-1,17
 101 356 101 356 158 356 c 0,18,19
 216 356 216 356 245.5 331 c 128,-1,20
 275 306 275 306 275 258 c 0,21,22
 275 233 275 233 263 214.5 c 128,-1,23
 251 196 251 196 228 186 c 1,0,1
91 257 m 0,24,25
 91 233 91 233 106.5 218 c 128,-1,26
 122 203 122 203 144 203 c 2,27,-1
 172 203 l 2,28,29
 195 203 195 203 211 218 c 128,-1,30
 227 233 227 233 227 257 c 0,31,32
 227 288 227 288 210 303 c 128,-1,33
 193 318 193 318 158 318 c 0,34,35
 124 318 124 318 107.5 303 c 128,-1,36
 91 288 91 288 91 257 c 0,24,25
158 33 m 0,37,38
 196 33 196 33 215.5 50.5 c 128,-1,39
 235 68 235 68 235 103 c 0,40,41
 235 130 235 130 216 147.5 c 128,-1,42
 197 165 197 165 172 165 c 2,43,-1
 144 165 l 2,44,45
 119 165 119 165 101 147.5 c 128,-1,46
 83 130 83 130 83 103 c 0,47,48
 83 68 83 68 102 50.5 c 128,-1,49
 121 33 121 33 158 33 c 0,37,38
EndSplineSet
EndChar

StartChar: nine.denominator
Encoding: 63070 63070 434
Width: 314
GlyphClass: 1
Flags: W
LayerCount: 2
Fore
SplineSet
154 176 m 0,0,1
 189 176 189 176 207.5 194 c 128,-1,2
 226 212 226 212 226 246 c 0,3,4
 226 281 226 281 207.5 299.5 c 128,-1,5
 189 318 189 318 154 318 c 0,6,7
 118 318 118 318 100 300 c 128,-1,8
 82 282 82 282 82 246 c 0,9,10
 82 211 82 211 100 193.5 c 128,-1,11
 118 176 118 176 154 176 c 0,0,1
143 138 m 0,12,13
 89 138 89 138 60 165.5 c 128,-1,14
 31 193 31 193 31 243 c 0,15,16
 31 297 31 297 62.5 326 c 128,-1,17
 94 355 94 355 154 355 c 256,18,19
 214 355 214 355 245 326 c 128,-1,20
 276 297 276 297 276 243 c 2,21,-1
 276 119 l 2,22,23
 276 62 276 62 244.5 28.5 c 128,-1,24
 213 -5 213 -5 156 -5 c 0,25,26
 100 -5 100 -5 68.5 21.5 c 128,-1,27
 37 48 37 48 37 91 c 2,28,-1
 37 97 l 1,29,-1
 87 97 l 1,30,-1
 87 91 l 2,31,32
 87 67 87 67 106 51 c 128,-1,33
 125 35 125 35 156 35 c 0,34,35
 189 35 189 35 207.5 56 c 128,-1,36
 226 77 226 77 226 113 c 2,37,-1
 226 177 l 1,38,39
 214 157 214 157 193.5 147.5 c 128,-1,40
 173 138 173 138 143 138 c 0,12,13
EndSplineSet
EndChar

StartChar: comma.denominator
Encoding: 63071 63071 435
Width: 129
GlyphClass: 1
Flags: W
LayerCount: 2
Fore
SplineSet
26 -60 m 1,0,-1
 41 52 l 1,1,-1
 95 52 l 1,2,-1
 95 40 l 1,3,-1
 64 -60 l 1,4,-1
 26 -60 l 1,0,-1
EndSplineSet
EndChar

StartChar: period.denominator
Encoding: 63072 63072 436
Width: 126
GlyphClass: 1
Flags: W
LayerCount: 2
Fore
SplineSet
36 52 m 1,0,-1
 90 52 l 1,1,-1
 90 0 l 1,2,-1
 36 0 l 1,3,-1
 36 52 l 1,0,-1
EndSplineSet
EndChar

StartChar: commaaccent
Encoding: 63171 63171 449
Width: 241
GlyphClass: 1
Flags: W
LayerCount: 2
Fore
SplineSet
64 -180 m 1,0,-1
 81 -50 l 1,1,-1
 139 -50 l 1,2,-1
 139 -65 l 1,3,-1
 108 -180 l 1,4,-1
 64 -180 l 1,0,-1
EndSplineSet
EndChar

StartChar: uniF8FF
Encoding: 63743 63743 450
Width: 1495
GlyphClass: 1
Flags: W
LayerCount: 2
Fore
SplineSet
1414 537 m 1,0,-1
 1414 529 l 1,1,-1
 76 529 l 1,2,-1
 76 537 l 1,3,-1
 1414 537 l 1,0,-1
1249 201 m 0,4,5
 1232 201 1232 201 1227 210.5 c 128,-1,6
 1222 220 1222 220 1221 257 c 0,7,8
 1221 262 1221 262 1221 287.5 c 128,-1,9
 1221 313 1221 313 1220 332 c 1,10,-1
 1191 330 l 1,11,-1
 1191 334 l 2,12,13
 1191 344 1191 344 1194 349 c 128,-1,14
 1197 354 1197 354 1203 354 c 2,15,-1
 1220 354 l 1,16,-1
 1217 384 l 1,17,18
 1236 390 1236 390 1240.5 391 c 128,-1,19
 1245 392 1245 392 1249 392 c 0,20,21
 1254 392 1254 392 1257 390 c 128,-1,22
 1260 388 1260 388 1260 384 c 2,23,-1
 1260 355 l 1,24,-1
 1307 355 l 1,25,-1
 1307 352 l 2,26,27
 1307 341 1307 341 1304 336 c 128,-1,28
 1301 331 1301 331 1295 331 c 2,29,-1
 1260 331 l 1,30,-1
 1260 241 l 2,31,32
 1260 233 1260 233 1264 229.5 c 128,-1,33
 1268 226 1268 226 1276 226 c 0,34,35
 1282 226 1282 226 1289 227 c 128,-1,36
 1296 228 1296 228 1310 231 c 0,37,38
 1330 235 1330 235 1340.5 236 c 128,-1,39
 1351 237 1351 237 1361 237 c 0,40,41
 1383 237 1383 237 1403 230.5 c 128,-1,42
 1423 224 1423 224 1423 213 c 0,43,44
 1423 200 1423 200 1414.5 192.5 c 128,-1,45
 1406 185 1406 185 1396 185 c 0,46,47
 1394 185 1394 185 1391 186 c 128,-1,48
 1388 187 1388 187 1380 192 c 0,49,50
 1361 202 1361 202 1348.5 205.5 c 128,-1,51
 1336 209 1336 209 1325 209 c 0,52,53
 1321 209 1321 209 1316 208.5 c 128,-1,54
 1311 208 1311 208 1299 206 c 0,55,56
 1281 203 1281 203 1270 202 c 128,-1,57
 1259 201 1259 201 1249 201 c 0,4,5
1163 321 m 0,58,59
 1181 321 1181 321 1192.5 312 c 128,-1,60
 1204 303 1204 303 1204 290 c 0,61,62
 1204 278 1204 278 1198 270 c 128,-1,63
 1192 262 1192 262 1179 258 c 0,64,65
 1171 255 1171 255 1161 253.5 c 128,-1,66
 1151 252 1151 252 1135 252 c 1,67,68
 1136 242 1136 242 1143 236 c 128,-1,69
 1150 230 1150 230 1161 230 c 0,70,71
 1170 230 1170 230 1177.5 232 c 128,-1,72
 1185 234 1185 234 1193 239 c 1,73,74
 1197 236 1197 236 1199 232 c 128,-1,75
 1201 228 1201 228 1201 223 c 0,76,77
 1201 214 1201 214 1188.5 207 c 128,-1,78
 1176 200 1176 200 1154 200 c 0,79,80
 1126 200 1126 200 1110 214.5 c 128,-1,81
 1094 229 1094 229 1094 253 c 0,82,83
 1094 282 1094 282 1113 301.5 c 128,-1,84
 1132 321 1132 321 1163 321 c 0,58,59
840 321 m 0,85,86
 858 321 858 321 869.5 312 c 128,-1,87
 881 303 881 303 881 290 c 0,88,89
 881 278 881 278 875 270 c 128,-1,90
 869 262 869 262 856 258 c 0,91,92
 848 255 848 255 838 253.5 c 128,-1,93
 828 252 828 252 812 252 c 1,94,95
 813 242 813 242 820 236 c 128,-1,96
 827 230 827 230 838 230 c 0,97,98
 847 230 847 230 854.5 232 c 128,-1,99
 862 234 862 234 870 239 c 1,100,101
 874 236 874 236 876 232 c 128,-1,102
 878 228 878 228 878 223 c 0,103,104
 878 214 878 214 865.5 207 c 128,-1,105
 853 200 853 200 831 200 c 0,106,107
 803 200 803 200 787 214.5 c 128,-1,108
 771 229 771 229 771 253 c 0,109,110
 771 282 771 282 790 301.5 c 128,-1,111
 809 321 809 321 840 321 c 0,85,86
141 321 m 0,112,113
 159 321 159 321 170.5 312 c 128,-1,114
 182 303 182 303 182 290 c 0,115,116
 182 278 182 278 176 270 c 128,-1,117
 170 262 170 262 157 258 c 0,118,119
 149 255 149 255 139 253.5 c 128,-1,120
 129 252 129 252 113 252 c 1,121,122
 114 242 114 242 121 236 c 128,-1,123
 128 230 128 230 139 230 c 0,124,125
 148 230 148 230 155.5 232 c 128,-1,126
 163 234 163 234 171 239 c 1,127,128
 175 236 175 236 177 232 c 128,-1,129
 179 228 179 228 179 223 c 0,130,131
 179 214 179 214 166.5 207 c 128,-1,132
 154 200 154 200 132 200 c 0,133,134
 104 200 104 200 88 214.5 c 128,-1,135
 72 229 72 229 72 253 c 0,136,137
 72 282 72 282 91 301.5 c 128,-1,138
 110 321 110 321 141 321 c 0,112,113
1004 272 m 1,139,140
 1013 296 1013 296 1024 308.5 c 128,-1,141
 1035 321 1035 321 1049 321 c 256,142,143
 1063 321 1063 321 1070.5 313 c 128,-1,144
 1078 305 1078 305 1078 289 c 2,145,-1
 1078 240 l 1,146,-1
 1080 208 l 1,147,148
 1061 202 1061 202 1056.5 201 c 128,-1,149
 1052 200 1052 200 1049 200 c 0,150,151
 1044 200 1044 200 1041 202 c 128,-1,152
 1038 204 1038 204 1038 208 c 2,153,-1
 1038 275 l 2,154,155
 1038 283 1038 283 1036 286.5 c 128,-1,156
 1034 290 1034 290 1030 290 c 0,157,158
 1023 290 1023 290 1013.5 272.5 c 128,-1,159
 1004 255 1004 255 1004 242 c 2,160,-1
 1007 208 l 1,161,162
 988 202 988 202 983.5 201 c 128,-1,163
 979 200 979 200 975 200 c 0,164,165
 970 200 970 200 967 202 c 128,-1,166
 964 204 964 204 964 208 c 2,167,-1
 964 277 l 1,168,-1
 961 313 l 1,169,170
 980 319 980 319 984.5 320 c 128,-1,171
 989 321 989 321 993 321 c 0,172,173
 998 321 998 321 1001 318.5 c 128,-1,174
 1004 316 1004 316 1004 312 c 2,175,-1
 1004 272 l 1,139,140
314 272 m 1,176,177
 320 294 320 294 332 307.5 c 128,-1,178
 344 321 344 321 359 321 c 0,179,180
 373 321 373 321 380 313 c 128,-1,181
 387 305 387 305 387 289 c 2,182,-1
 387 240 l 1,183,-1
 390 208 l 1,184,185
 371 202 371 202 366.5 201 c 128,-1,186
 362 200 362 200 359 200 c 0,187,188
 354 200 354 200 351 202 c 128,-1,189
 348 204 348 204 348 208 c 2,190,-1
 348 274 l 2,191,192
 348 283 348 283 346 286.5 c 128,-1,193
 344 290 344 290 340 290 c 0,194,195
 333 290 333 290 323.5 272.5 c 128,-1,196
 314 255 314 255 314 242 c 2,197,-1
 316 208 l 1,198,199
 297 202 297 202 292.5 201 c 128,-1,200
 288 200 288 200 285 200 c 0,201,202
 280 200 280 200 277 202 c 128,-1,203
 274 204 274 204 274 208 c 2,204,-1
 274 274 l 2,205,206
 274 283 274 283 272 286.5 c 128,-1,207
 270 290 270 290 266 290 c 0,208,209
 259 290 259 290 249.5 272.5 c 128,-1,210
 240 255 240 255 240 242 c 2,211,-1
 243 208 l 1,212,213
 224 202 224 202 219.5 201 c 128,-1,214
 215 200 215 200 211 200 c 0,215,216
 206 200 206 200 203 202 c 128,-1,217
 200 204 200 204 200 208 c 2,218,-1
 200 277 l 1,219,-1
 197 313 l 1,220,221
 216 319 216 319 220.5 320 c 128,-1,222
 225 321 225 321 229 321 c 0,223,224
 234 321 234 321 237 318.5 c 128,-1,225
 240 316 240 316 240 312 c 2,226,-1
 240 272 l 1,227,228
 246 292 246 292 258 306.5 c 128,-1,229
 270 321 270 321 285 321 c 0,230,231
 299 321 299 321 306.5 313 c 128,-1,232
 314 305 314 305 314 289 c 2,233,-1
 314 272 l 1,176,177
848 285 m 0,234,235
 848 291 848 291 844.5 294.5 c 128,-1,236
 841 298 841 298 835 298 c 0,237,238
 826 298 826 298 819.5 288.5 c 128,-1,239
 813 279 813 279 811 264 c 1,240,241
 827 264 827 264 837.5 269.5 c 128,-1,242
 848 275 848 275 848 285 c 0,234,235
1171 285 m 0,243,244
 1171 291 1171 291 1167.5 294.5 c 128,-1,245
 1164 298 1164 298 1158 298 c 0,246,247
 1149 298 1149 298 1142.5 288.5 c 128,-1,248
 1136 279 1136 279 1134 264 c 1,249,250
 1150 264 1150 264 1160.5 269.5 c 128,-1,251
 1171 275 1171 275 1171 285 c 0,243,244
149 285 m 0,252,253
 149 291 149 291 145.5 294.5 c 128,-1,254
 142 298 142 298 136 298 c 0,255,256
 127 298 127 298 120.5 288.5 c 128,-1,257
 114 279 114 279 112 264 c 1,258,259
 128 264 128 264 138.5 269.5 c 128,-1,260
 149 275 149 275 149 285 c 0,252,253
703 290 m 0,261,262
 691 290 691 290 681 272 c 128,-1,263
 671 254 671 254 671 242 c 2,264,-1
 671 219 l 1,265,266
 694 222 694 222 705 235 c 128,-1,267
 716 248 716 248 716 270 c 0,268,269
 716 280 716 280 712.5 285 c 128,-1,270
 709 290 709 290 703 290 c 0,261,262
921 203 m 256,271,272
 910 203 910 203 903 209.5 c 128,-1,273
 896 216 896 216 896 226 c 256,274,275
 896 236 896 236 903 243 c 128,-1,276
 910 250 910 250 921 250 c 256,277,278
 932 250 932 250 939.5 243 c 128,-1,279
 947 236 947 236 947 226 c 256,280,281
 947 216 947 216 939.5 209.5 c 128,-1,282
 932 203 932 203 921 203 c 256,271,272
671 272 m 1,283,284
 679 295 679 295 691 307.5 c 128,-1,285
 703 320 703 320 718 320 c 0,286,287
 736 320 736 320 747 306 c 128,-1,288
 758 292 758 292 758 269 c 0,289,290
 758 236 758 236 735.5 218.5 c 128,-1,291
 713 201 713 201 671 201 c 1,292,-1
 671 161 l 1,293,-1
 674 129 l 1,294,295
 655 123 655 123 650.5 122 c 128,-1,296
 646 121 646 121 642 121 c 0,297,298
 637 121 637 121 634 123 c 128,-1,299
 631 125 631 125 631 129 c 2,300,-1
 631 204 l 1,301,-1
 606 201 l 1,302,-1
 606 198 l 2,303,304
 606 160 606 160 588.5 139.5 c 128,-1,305
 571 119 571 119 538 119 c 0,306,307
 519 119 519 119 508 128.5 c 128,-1,308
 497 138 497 138 497 153 c 0,309,310
 497 171 497 171 513.5 184 c 128,-1,311
 530 197 530 197 567 206 c 1,312,-1
 567 248 l 1,313,314
 559 225 559 225 547 212.5 c 128,-1,315
 535 200 535 200 521 200 c 256,316,317
 507 200 507 200 500 207.5 c 128,-1,318
 493 215 493 215 493 231 c 2,319,-1
 493 234 l 1,320,321
 483 217 483 217 470 209 c 128,-1,322
 457 201 457 201 440 201 c 0,323,324
 427 201 427 201 419 209 c 128,-1,325
 411 217 411 217 411 231 c 2,326,-1
 411 332 l 1,327,-1
 382 330 l 1,328,-1
 382 334 l 2,329,330
 382 344 382 344 385 349 c 128,-1,331
 388 354 388 354 394 354 c 2,332,-1
 411 354 l 1,333,-1
 408 384 l 1,334,335
 427 390 427 390 431.5 391 c 128,-1,336
 436 392 436 392 440 392 c 0,337,338
 445 392 445 392 448 390 c 128,-1,339
 451 388 451 388 451 384 c 2,340,-1
 451 355 l 1,341,-1
 498 355 l 1,342,-1
 498 352 l 2,343,344
 498 341 498 341 495 336 c 128,-1,345
 492 331 492 331 486 331 c 2,346,-1
 451 331 l 1,347,-1
 451 245 l 2,348,349
 451 237 451 237 454 233 c 128,-1,350
 457 229 457 229 464 229 c 0,351,352
 474 229 474 229 483.5 237 c 128,-1,353
 493 245 493 245 493 255 c 2,354,-1
 493 280 l 1,355,-1
 490 313 l 1,356,357
 509 319 509 319 513.5 320 c 128,-1,358
 518 321 518 321 522 321 c 0,359,360
 527 321 527 321 530 318.5 c 128,-1,361
 533 316 533 316 533 312 c 2,362,-1
 533 246 l 2,363,364
 533 238 533 238 534.5 234.5 c 128,-1,365
 536 231 536 231 540 231 c 0,366,367
 547 231 547 231 556.5 248 c 128,-1,368
 566 265 566 265 566 279 c 2,369,-1
 564 313 l 1,370,371
 583 319 583 319 587.5 320 c 128,-1,372
 592 321 592 321 595 321 c 0,373,374
 600 321 600 321 603 318.5 c 128,-1,375
 606 316 606 316 606 312 c 2,376,-1
 606 213 l 1,377,-1
 631 216 l 1,378,-1
 631 277 l 1,379,-1
 628 313 l 1,380,381
 647 319 647 319 651.5 320 c 128,-1,382
 656 321 656 321 660 321 c 0,383,384
 665 321 665 321 668 318.5 c 128,-1,385
 671 316 671 316 671 312 c 2,386,-1
 671 272 l 1,283,284
525 162 m 0,387,388
 525 155 525 155 529 151.5 c 128,-1,389
 533 148 533 148 539 148 c 0,390,391
 551 148 551 148 558 159 c 128,-1,392
 565 170 565 170 566 194 c 1,393,394
 547 190 547 190 536 181.5 c 128,-1,395
 525 173 525 173 525 162 c 0,387,388
1414 8 m 1,396,-1
 1414 0 l 1,397,-1
 76 0 l 1,398,-1
 76 8 l 1,399,-1
 1414 8 l 1,396,-1
EndSplineSet
EndChar

StartChar: caron.salt
Encoding: 65541 -1 469
Width: 237
GlyphClass: 1
Flags: W
LayerCount: 2
Fore
SplineSet
86 603 m 1,0,-1
 86 733 l 1,1,-1
 141 733 l 1,2,-1
 141 718 l 1,3,-1
 121 603 l 1,4,-1
 86 603 l 1,0,-1
EndSplineSet
EndChar

StartChar: commaaccent.salt
Encoding: 65542 -1 470
Width: 241
GlyphClass: 1
Flags: W
LayerCount: 2
Fore
SplineSet
172 769 m 1,0,-1
 151 638 l 1,1,-1
 88 638 l 1,2,-1
 88 654 l 1,3,-1
 127 769 l 1,4,-1
 172 769 l 1,0,-1
EndSplineSet
EndChar

StartChar: acute.case
Encoding: 65543 -1 471
Width: 250
GlyphClass: 1
Flags: W
LayerCount: 2
Fore
SplineSet
54 752 m 1,0,-1
 133 891 l 1,1,-1
 198 891 l 1,2,-1
 103 752 l 1,3,-1
 54 752 l 1,0,-1
EndSplineSet
EndChar

StartChar: grave.case
Encoding: 65544 -1 472
Width: 250
GlyphClass: 1
Flags: W
LayerCount: 2
Fore
SplineSet
121 891 m 1,0,-1
 198 752 l 1,1,-1
 144 752 l 1,2,-1
 52 891 l 1,3,-1
 121 891 l 1,0,-1
EndSplineSet
EndChar

StartChar: hungarumlaut.case
Encoding: 65545 -1 473
Width: 250
GlyphClass: 1
Flags: W
LayerCount: 2
Fore
SplineSet
100 752 m 1,0,-1
 191 891 l 1,1,-1
 257 891 l 1,2,-1
 151 752 l 1,3,-1
 100 752 l 1,0,-1
-7 752 m 1,4,-1
 70 891 l 1,5,-1
 136 891 l 1,6,-1
 44 752 l 1,7,-1
 -7 752 l 1,4,-1
EndSplineSet
EndChar

StartChar: circumflex.case
Encoding: 65546 -1 474
Width: 250
GlyphClass: 1
Flags: W
LayerCount: 2
Fore
SplineSet
244 752 m 1,0,-1
 196 752 l 1,1,-1
 126 859 l 1,2,-1
 125 859 l 1,3,-1
 55 752 l 1,4,-1
 7 752 l 1,5,-1
 96 891 l 1,6,-1
 155 891 l 1,7,-1
 244 752 l 1,0,-1
EndSplineSet
EndChar

StartChar: caron.case
Encoding: 65547 -1 475
Width: 250
GlyphClass: 1
Flags: W
LayerCount: 2
Fore
SplineSet
7 891 m 1,0,-1
 55 891 l 1,1,-1
 125 784 l 1,2,-1
 126 784 l 1,3,-1
 196 891 l 1,4,-1
 244 891 l 1,5,-1
 155 752 l 1,6,-1
 96 752 l 1,7,-1
 7 891 l 1,0,-1
EndSplineSet
EndChar

StartChar: breve.case
Encoding: 65548 -1 476
Width: 250
GlyphClass: 1
Flags: W
LayerCount: 2
Fore
SplineSet
125 781 m 0,0,1
 153 781 153 781 170 797 c 128,-1,2
 187 813 187 813 187 840 c 2,3,-1
 187 867 l 1,4,-1
 228 867 l 1,5,-1
 228 840 l 2,6,7
 228 796 228 796 200 769 c 128,-1,8
 172 742 172 742 125 742 c 0,9,10
 79 742 79 742 51 769 c 128,-1,11
 23 796 23 796 23 840 c 2,12,-1
 23 867 l 1,13,-1
 64 867 l 1,14,-1
 64 840 l 2,15,16
 64 814 64 814 81 797.5 c 128,-1,17
 98 781 98 781 125 781 c 0,0,1
EndSplineSet
EndChar

StartChar: tilde.case
Encoding: 65549 -1 477
Width: 250
GlyphClass: 1
Flags: W
LayerCount: 2
Fore
SplineSet
273 851 m 1,0,1
 273 802 273 802 251.5 775.5 c 128,-1,2
 230 749 230 749 193 749 c 0,3,4
 175 749 175 749 160 754 c 128,-1,5
 145 759 145 759 132 770 c 2,6,-1
 97 798 l 2,7,8
 88 804 88 804 79 807.5 c 128,-1,9
 70 811 70 811 61 811 c 0,10,11
 39 811 39 811 27 796 c 128,-1,12
 15 781 15 781 15 752 c 1,13,-1
 -22 752 l 1,14,15
 -22 800 -22 800 0.5 827 c 128,-1,16
 23 854 23 854 60 854 c 0,17,18
 77 854 77 854 91 849 c 128,-1,19
 105 844 105 844 118 833 c 2,20,-1
 152 806 l 2,21,22
 161 799 161 799 172 795 c 128,-1,23
 183 791 183 791 191 791 c 0,24,25
 214 791 214 791 225.5 806 c 128,-1,26
 237 821 237 821 237 851 c 1,27,-1
 273 851 l 1,0,1
EndSplineSet
EndChar

StartChar: macron.case
Encoding: 65550 -1 478
Width: 250
GlyphClass: 1
Flags: W
LayerCount: 2
Fore
SplineSet
244 813 m 1,0,-1
 7 813 l 1,1,-1
 7 855 l 1,2,-1
 244 855 l 1,3,-1
 244 813 l 1,0,-1
EndSplineSet
EndChar

StartChar: dieresis.case
Encoding: 65551 -1 479
Width: 250
GlyphClass: 1
Flags: W
LayerCount: 2
Fore
SplineSet
156 879 m 1,0,-1
 214 879 l 1,1,-1
 214 811 l 1,2,-1
 156 811 l 1,3,-1
 156 879 l 1,0,-1
37 879 m 1,4,-1
 95 879 l 1,5,-1
 95 811 l 1,6,-1
 37 811 l 1,7,-1
 37 879 l 1,4,-1
EndSplineSet
EndChar

StartChar: dotaccent.case
Encoding: 65552 -1 480
Width: 250
GlyphClass: 1
Flags: W
LayerCount: 2
Fore
SplineSet
92 885 m 1,0,-1
 158 885 l 1,1,-1
 158 811 l 1,2,-1
 92 811 l 1,3,-1
 92 885 l 1,0,-1
EndSplineSet
EndChar

StartChar: ring.case
Encoding: 65553 -1 481
Width: 250
GlyphClass: 1
Flags: W
LayerCount: 2
Fore
SplineSet
124 743 m 0,0,1
 85 743 85 743 58 770 c 128,-1,2
 31 797 31 797 31 836 c 0,3,4
 31 876 31 876 58 903 c 128,-1,5
 85 930 85 930 124 930 c 0,6,7
 164 930 164 930 192 903 c 128,-1,8
 220 876 220 876 220 836 c 0,9,10
 220 797 220 797 192 770 c 128,-1,11
 164 743 164 743 124 743 c 0,0,1
124 894 m 0,12,13
 101 894 101 894 84.5 877.5 c 128,-1,14
 68 861 68 861 68 836 c 0,15,16
 68 812 68 812 84.5 795 c 128,-1,17
 101 778 101 778 124 778 c 0,18,19
 148 778 148 778 165 795 c 128,-1,20
 182 812 182 812 182 836 c 0,21,22
 182 861 182 861 165.5 877.5 c 128,-1,23
 149 894 149 894 124 894 c 0,12,13
EndSplineSet
EndChar
